
    <svg width="850" height="1350" viewBox="0 0 850 1350" xmlns="http://www.w3.org/2000/svg">
      
    <defs>
      <filter id="glassBlur" x="-20%" y="-20%" width="140%" height="140%">
        <feGaussianBlur in="SourceGraphic" stdDeviation="10" />
      </filter>
      <filter id="glow" x="-20%" y="-20%" width="140%" height="140%">
        <feGaussianBlur stdDeviation="5" result="blur" />
        <feComposite in="SourceGraphic" in2="blur" operator="over" />
      </filter>
      <linearGradient id="glassGrad" x1="0%" y1="0%" x2="100%" y2="100%">
        <stop offset="0%" stop-color="rgba(59, 130, 246, 0.1)" />
        <stop offset="100%" stop-color="rgba(59, 130, 246, 0.02)" />
      </linearGradient>
      <pattern id="grid" width="40" height="40" patternUnits="userSpaceOnUse">
        <path d="M 40 0 L 0 0 0 40" fill="none" stroke="rgba(59, 130, 246, 0.1)" stroke-width="1"/>
      </pattern>
      
      <style>
        @keyframes scanline {
          0% { transform: translateY(-100px); opacity: 0; }
          10% { opacity: 0.5; }
          90% { opacity: 0.5; }
          100% { transform: translateY(1350px); opacity: 0; }
        }
        @keyframes pulse {
          0%, 100% { opacity: 0.4; }
          50% { opacity: 1; }
        }
        @keyframes flicker {
          0%, 19.999%, 22%, 62.999%, 64%, 64.999%, 70%, 100% { opacity: 1; }
          20%, 21.999%, 63%, 63.999%, 65%, 69.999% { opacity: 0.4; }
        }
        @keyframes dataFlow {
          0% { stroke-dashoffset: 100; }
          100% { stroke-dashoffset: 0; }
        }
        @keyframes shimmer {
          0% { fill-opacity: 0.3; }
          50% { fill-opacity: 0.9; }
          100% { fill-opacity: 0.3; }
        }
        .font-mono { font-family: 'JetBrains Mono', 'Fira Code', monospace; }
        .font-sans { font-family: 'Inter', system-ui, sans-serif; }
      </style>
    </defs>
  
      
    <rect width="850" height="1350" fill="#030712" rx="24" />
    <rect width="850" height="1350" fill="url(#grid)" rx="24" />
    <rect width="850" height="100" fill="url(#glassGrad)" style="animation: scanline 8s linear infinite;">
      <animate attributeName="opacity" values="0;0.5;0" dur="8s" repeatCount="indefinite" />
    </rect>
  
      
    <g opacity="0.2" stroke="#3b82f6" stroke-width="1" fill="none">
      <path d="M 790 150 L 790 1200 L 750 1200" stroke-dasharray="5 5" style="animation: dataFlow 10s linear infinite;" />
      <path d="M 60 1200 L 20 1200 L 20 150" stroke-dasharray="5 5" style="animation: dataFlow 10s linear reverse infinite;" />
    </g>
  
      
    <g transform="translate(60, 80)">
      <text class="font-sans" font-weight="900" font-size="72" fill="#f3f4f6" letter-spacing="-3px">Qclid</text>
      <text x="5" y="45" class="font-sans" font-weight="500" font-size="20" fill="#06b6d4" opacity="0.8">always open to collab // building cool things</text>
      <line x1="0" y1="70" x2="730" y2="70" stroke="rgba(59, 130, 246, 0.3)" stroke-width="1" stroke-dasharray="4 4" />
    </g>
  
      <g transform="translate(60, 220)">
      <g transform="translate(0, 0)">
        <rect width="170" height="100" rx="16" fill="rgba(17, 24, 39, 0.7)" stroke="rgba(59, 130, 246, 0.3)" stroke-width="1" />
        <text x="20" y="40" class="font-sans" font-weight="600" font-size="12" fill="#3b82f6" letter-spacing="2px" opacity="0.7">STARS</text>
        <text x="20" y="75" class="font-mono" font-weight="800" font-size="32" fill="#f3f4f6" style="animation: flicker 2s infinite;">8</text>
        <circle cx="145" cy="25" r="3" fill="#06b6d4" style="animation: pulse 2s infinite;" />
      </g>
    
      <g transform="translate(190, 0)">
        <rect width="170" height="100" rx="16" fill="rgba(17, 24, 39, 0.7)" stroke="rgba(59, 130, 246, 0.3)" stroke-width="1" />
        <text x="20" y="40" class="font-sans" font-weight="600" font-size="12" fill="#3b82f6" letter-spacing="2px" opacity="0.7">COMMITS</text>
        <text x="20" y="75" class="font-mono" font-weight="800" font-size="32" fill="#f3f4f6" style="animation: flicker 3s infinite;">1910</text>
        <circle cx="145" cy="25" r="3" fill="#06b6d4" style="animation: pulse 2s infinite;" />
      </g>
    
      <g transform="translate(380, 0)">
        <rect width="170" height="100" rx="16" fill="rgba(17, 24, 39, 0.7)" stroke="rgba(59, 130, 246, 0.3)" stroke-width="1" />
        <text x="20" y="40" class="font-sans" font-weight="600" font-size="12" fill="#3b82f6" letter-spacing="2px" opacity="0.7">PRs</text>
        <text x="20" y="75" class="font-mono" font-weight="800" font-size="32" fill="#f3f4f6" style="animation: flicker 4s infinite;">3</text>
        <circle cx="145" cy="25" r="3" fill="#06b6d4" style="animation: pulse 2s infinite;" />
      </g>
    
      <g transform="translate(570, 0)">
        <rect width="170" height="100" rx="16" fill="rgba(17, 24, 39, 0.7)" stroke="rgba(59, 130, 246, 0.3)" stroke-width="1" />
        <text x="20" y="40" class="font-sans" font-weight="600" font-size="12" fill="#3b82f6" letter-spacing="2px" opacity="0.7">REPOS</text>
        <text x="20" y="75" class="font-mono" font-weight="800" font-size="32" fill="#f3f4f6" style="animation: flicker 5s infinite;">39</text>
        <circle cx="145" cy="25" r="3" fill="#06b6d4" style="animation: pulse 2s infinite;" />
      </g>
    </g>
      
    <g transform="translate(60, 380)">
      <rect width="730" height="200" rx="20" fill="rgba(17, 24, 39, 0.7)" stroke="rgba(59, 130, 246, 0.3)" stroke-width="1" />
      <text x="25" y="35" class="font-sans" font-weight="700" font-size="18" fill="#f3f4f6">My Activity</text>
      <g transform="translate(15, 65)">
        <rect x="0" y="0" width="12" height="12" rx="2" fill="rgba(59, 130, 246, 0.05)"  /><rect x="0" y="16" width="12" height="12" rx="2" fill="rgba(59, 130, 246, 0.05)"  /><rect x="0" y="32" width="12" height="12" rx="2" fill="rgba(59, 130, 246, 0.05)"  /><rect x="0" y="48" width="12" height="12" rx="2" fill="rgba(59, 130, 246, 0.05)"  /><rect x="0" y="64" width="12" height="12" rx="2" fill="rgba(59, 130, 246, 0.05)"  /><rect x="0" y="80" width="12" height="12" rx="2" fill="rgba(59, 130, 246, 0.05)"  /><rect x="0" y="96" width="12" height="12" rx="2" fill="rgba(59, 130, 246, 0.05)"  /><rect x="16" y="0" width="12" height="12" rx="2" fill="rgba(59, 130, 246, 0.05)"  /><rect x="16" y="16" width="12" height="12" rx="2" fill="rgba(59, 130, 246, 0.05)"  /><rect x="16" y="32" width="12" height="12" rx="2" fill="rgba(59, 130, 246, 0.05)"  /><rect x="16" y="48" width="12" height="12" rx="2" fill="rgba(59, 130, 246, 0.05)"  /><rect x="16" y="64" width="12" height="12" rx="2" fill="rgba(59, 130, 246, 0.05)"  /><rect x="16" y="80" width="12" height="12" rx="2" fill="rgba(59, 130, 246, 0.05)"  /><rect x="16" y="96" width="12" height="12" rx="2" fill="rgba(59, 130, 246, 0.05)"  /><rect x="32" y="0" width="12" height="12" rx="2" fill="rgba(59, 130, 246, 0.05)"  /><rect x="32" y="16" width="12" height="12" rx="2" fill="rgba(59, 130, 246, 0.05)"  /><rect x="32" y="32" width="12" height="12" rx="2" fill="rgba(59, 130, 246, 0.05)"  /><rect x="32" y="48" width="12" height="12" rx="2" fill="rgba(59, 130, 246, 0.05)"  /><rect x="32" y="64" width="12" height="12" rx="2" fill="rgba(59, 130, 246, 0.05)"  /><rect x="32" y="80" width="12" height="12" rx="2" fill="rgba(59, 130, 246, 0.05)"  /><rect x="32" y="96" width="12" height="12" rx="2" fill="rgba(59, 130, 246, 0.05)"  /><rect x="48" y="0" width="12" height="12" rx="2" fill="rgba(59, 130, 246, 0.30000000000000004)"  /><rect x="48" y="16" width="12" height="12" rx="2" fill="rgba(59, 130, 246, 0.05)"  /><rect x="48" y="32" width="12" height="12" rx="2" fill="rgba(59, 130, 246, 0.05)"  /><rect x="48" y="48" width="12" height="12" rx="2" fill="rgba(59, 130, 246, 0.05)"  /><rect x="48" y="64" width="12" height="12" rx="2" fill="rgba(59, 130, 246, 0.05)"  /><rect x="48" y="80" width="12" height="12" rx="2" fill="rgba(59, 130, 246, 0.05)"  /><rect x="48" y="96" width="12" height="12" rx="2" fill="rgba(59, 130, 246, 0.05)"  /><rect x="64" y="0" width="12" height="12" rx="2" fill="rgba(59, 130, 246, 0.05)"  /><rect x="64" y="16" width="12" height="12" rx="2" fill="rgba(59, 130, 246, 0.05)"  /><rect x="64" y="32" width="12" height="12" rx="2" fill="rgba(59, 130, 246, 0.05)"  /><rect x="64" y="48" width="12" height="12" rx="2" fill="rgba(59, 130, 246, 0.05)"  /><rect x="64" y="64" width="12" height="12" rx="2" fill="rgba(59, 130, 246, 0.05)"  /><rect x="64" y="80" width="12" height="12" rx="2" fill="rgba(59, 130, 246, 0.05)"  /><rect x="64" y="96" width="12" height="12" rx="2" fill="rgba(59, 130, 246, 0.05)"  /><rect x="80" y="0" width="12" height="12" rx="2" fill="rgba(59, 130, 246, 0.05)"  /><rect x="80" y="16" width="12" height="12" rx="2" fill="rgba(59, 130, 246, 0.05)"  /><rect x="80" y="32" width="12" height="12" rx="2" fill="rgba(59, 130, 246, 0.05)"  /><rect x="80" y="48" width="12" height="12" rx="2" fill="rgba(59, 130, 246, 0.05)"  /><rect x="80" y="64" width="12" height="12" rx="2" fill="rgba(59, 130, 246, 0.05)"  /><rect x="80" y="80" width="12" height="12" rx="2" fill="rgba(59, 130, 246, 0.05)"  /><rect x="80" y="96" width="12" height="12" rx="2" fill="rgba(59, 130, 246, 0.05)"  /><rect x="96" y="0" width="12" height="12" rx="2" fill="rgba(59, 130, 246, 0.05)"  /><rect x="96" y="16" width="12" height="12" rx="2" fill="rgba(59, 130, 246, 0.05)"  /><rect x="96" y="32" width="12" height="12" rx="2" fill="rgba(59, 130, 246, 0.9)" style="animation: shimmer 2.3967565928987535s infinite" /><rect x="96" y="48" width="12" height="12" rx="2" fill="rgba(59, 130, 246, 0.05)"  /><rect x="96" y="64" width="12" height="12" rx="2" fill="rgba(59, 130, 246, 0.05)"  /><rect x="96" y="80" width="12" height="12" rx="2" fill="rgba(59, 130, 246, 0.05)"  /><rect x="96" y="96" width="12" height="12" rx="2" fill="rgba(59, 130, 246, 0.05)"  /><rect x="112" y="0" width="12" height="12" rx="2" fill="rgba(59, 130, 246, 0.05)"  /><rect x="112" y="16" width="12" height="12" rx="2" fill="rgba(59, 130, 246, 0.05)"  /><rect x="112" y="32" width="12" height="12" rx="2" fill="rgba(59, 130, 246, 0.05)"  /><rect x="112" y="48" width="12" height="12" rx="2" fill="rgba(59, 130, 246, 0.05)"  /><rect x="112" y="64" width="12" height="12" rx="2" fill="rgba(59, 130, 246, 0.05)"  /><rect x="112" y="80" width="12" height="12" rx="2" fill="rgba(59, 130, 246, 0.05)"  /><rect x="112" y="96" width="12" height="12" rx="2" fill="rgba(59, 130, 246, 0.05)"  /><rect x="128" y="0" width="12" height="12" rx="2" fill="rgba(59, 130, 246, 0.05)"  /><rect x="128" y="16" width="12" height="12" rx="2" fill="rgba(59, 130, 246, 0.05)"  /><rect x="128" y="32" width="12" height="12" rx="2" fill="rgba(59, 130, 246, 0.9)" style="animation: shimmer 2.3583588108523723s infinite" /><rect x="128" y="48" width="12" height="12" rx="2" fill="rgba(59, 130, 246, 0.05)"  /><rect x="128" y="64" width="12" height="12" rx="2" fill="rgba(59, 130, 246, 0.05)"  /><rect x="128" y="80" width="12" height="12" rx="2" fill="rgba(59, 130, 246, 0.05)"  /><rect x="128" y="96" width="12" height="12" rx="2" fill="rgba(59, 130, 246, 0.9)" style="animation: shimmer 2.431091832500311s infinite" /><rect x="144" y="0" width="12" height="12" rx="2" fill="rgba(59, 130, 246, 0.05)"  /><rect x="144" y="16" width="12" height="12" rx="2" fill="rgba(59, 130, 246, 0.05)"  /><rect x="144" y="32" width="12" height="12" rx="2" fill="rgba(59, 130, 246, 0.05)"  /><rect x="144" y="48" width="12" height="12" rx="2" fill="rgba(59, 130, 246, 0.05)"  /><rect x="144" y="64" width="12" height="12" rx="2" fill="rgba(59, 130, 246, 0.05)"  /><rect x="144" y="80" width="12" height="12" rx="2" fill="rgba(59, 130, 246, 0.30000000000000004)"  /><rect x="144" y="96" width="12" height="12" rx="2" fill="rgba(59, 130, 246, 0.05)"  /><rect x="160" y="0" width="12" height="12" rx="2" fill="rgba(59, 130, 246, 0.05)"  /><rect x="160" y="16" width="12" height="12" rx="2" fill="rgba(59, 130, 246, 0.4)"  /><rect x="160" y="32" width="12" height="12" rx="2" fill="rgba(59, 130, 246, 0.05)"  /><rect x="160" y="48" width="12" height="12" rx="2" fill="rgba(59, 130, 246, 0.9)" style="animation: shimmer 2.1011723258772164s infinite" /><rect x="160" y="64" width="12" height="12" rx="2" fill="rgba(59, 130, 246, 0.9)" style="animation: shimmer 2.035507274544654s infinite" /><rect x="160" y="80" width="12" height="12" rx="2" fill="rgba(59, 130, 246, 0.05)"  /><rect x="160" y="96" width="12" height="12" rx="2" fill="rgba(59, 130, 246, 0.05)"  /><rect x="176" y="0" width="12" height="12" rx="2" fill="rgba(59, 130, 246, 0.05)"  /><rect x="176" y="16" width="12" height="12" rx="2" fill="rgba(59, 130, 246, 0.05)"  /><rect x="176" y="32" width="12" height="12" rx="2" fill="rgba(59, 130, 246, 0.05)"  /><rect x="176" y="48" width="12" height="12" rx="2" fill="rgba(59, 130, 246, 0.05)"  /><rect x="176" y="64" width="12" height="12" rx="2" fill="rgba(59, 130, 246, 0.05)"  /><rect x="176" y="80" width="12" height="12" rx="2" fill="rgba(59, 130, 246, 0.05)"  /><rect x="176" y="96" width="12" height="12" rx="2" fill="rgba(59, 130, 246, 0.05)"  /><rect x="192" y="0" width="12" height="12" rx="2" fill="rgba(59, 130, 246, 0.4)"  /><rect x="192" y="16" width="12" height="12" rx="2" fill="rgba(59, 130, 246, 0.30000000000000004)"  /><rect x="192" y="32" width="12" height="12" rx="2" fill="rgba(59, 130, 246, 0.9)" style="animation: shimmer 2.91143863097496s infinite" /><rect x="192" y="48" width="12" height="12" rx="2" fill="rgba(59, 130, 246, 0.05)"  /><rect x="192" y="64" width="12" height="12" rx="2" fill="rgba(59, 130, 246, 0.05)"  /><rect x="192" y="80" width="12" height="12" rx="2" fill="rgba(59, 130, 246, 0.9)" style="animation: shimmer 2.227887856297471s infinite" /><rect x="192" y="96" width="12" height="12" rx="2" fill="rgba(59, 130, 246, 0.05)"  /><rect x="208" y="0" width="12" height="12" rx="2" fill="rgba(59, 130, 246, 0.05)"  /><rect x="208" y="16" width="12" height="12" rx="2" fill="rgba(59, 130, 246, 0.05)"  /><rect x="208" y="32" width="12" height="12" rx="2" fill="rgba(59, 130, 246, 0.05)"  /><rect x="208" y="48" width="12" height="12" rx="2" fill="rgba(59, 130, 246, 0.7)"  /><rect x="208" y="64" width="12" height="12" rx="2" fill="rgba(59, 130, 246, 0.8)" style="animation: shimmer 2.425434131153351s infinite" /><rect x="208" y="80" width="12" height="12" rx="2" fill="rgba(59, 130, 246, 0.7)"  /><rect x="208" y="96" width="12" height="12" rx="2" fill="rgba(59, 130, 246, 0.05)"  /><rect x="224" y="0" width="12" height="12" rx="2" fill="rgba(59, 130, 246, 0.9)" style="animation: shimmer 2.5462252539015635s infinite" /><rect x="224" y="16" width="12" height="12" rx="2" fill="rgba(59, 130, 246, 0.9)" style="animation: shimmer 2.9728173585212057s infinite" /><rect x="224" y="32" width="12" height="12" rx="2" fill="rgba(59, 130, 246, 0.9)" style="animation: shimmer 2.9637641498872336s infinite" /><rect x="224" y="48" width="12" height="12" rx="2" fill="rgba(59, 130, 246, 0.8999999999999999)" style="animation: shimmer 2.4792131239261517s infinite" /><rect x="224" y="64" width="12" height="12" rx="2" fill="rgba(59, 130, 246, 0.7)"  /><rect x="224" y="80" width="12" height="12" rx="2" fill="rgba(59, 130, 246, 0.5)"  /><rect x="224" y="96" width="12" height="12" rx="2" fill="rgba(59, 130, 246, 0.8)" style="animation: shimmer 2.7280846122414744s infinite" /><rect x="240" y="0" width="12" height="12" rx="2" fill="rgba(59, 130, 246, 0.5)"  /><rect x="240" y="16" width="12" height="12" rx="2" fill="rgba(59, 130, 246, 0.4)"  /><rect x="240" y="32" width="12" height="12" rx="2" fill="rgba(59, 130, 246, 0.6000000000000001)"  /><rect x="240" y="48" width="12" height="12" rx="2" fill="rgba(59, 130, 246, 0.30000000000000004)"  /><rect x="240" y="64" width="12" height="12" rx="2" fill="rgba(59, 130, 246, 0.30000000000000004)"  /><rect x="240" y="80" width="12" height="12" rx="2" fill="rgba(59, 130, 246, 0.5)"  /><rect x="240" y="96" width="12" height="12" rx="2" fill="rgba(59, 130, 246, 0.05)"  /><rect x="256" y="0" width="12" height="12" rx="2" fill="rgba(59, 130, 246, 0.05)"  /><rect x="256" y="16" width="12" height="12" rx="2" fill="rgba(59, 130, 246, 0.05)"  /><rect x="256" y="32" width="12" height="12" rx="2" fill="rgba(59, 130, 246, 0.05)"  /><rect x="256" y="48" width="12" height="12" rx="2" fill="rgba(59, 130, 246, 0.05)"  /><rect x="256" y="64" width="12" height="12" rx="2" fill="rgba(59, 130, 246, 0.5)"  /><rect x="256" y="80" width="12" height="12" rx="2" fill="rgba(59, 130, 246, 0.9)" style="animation: shimmer 2.575421010433431s infinite" /><rect x="256" y="96" width="12" height="12" rx="2" fill="rgba(59, 130, 246, 0.9)" style="animation: shimmer 2.2978294221391438s infinite" /><rect x="272" y="0" width="12" height="12" rx="2" fill="rgba(59, 130, 246, 0.8)" style="animation: shimmer 2.0746099058521636s infinite" /><rect x="272" y="16" width="12" height="12" rx="2" fill="rgba(59, 130, 246, 0.9)" style="animation: shimmer 2.538252068205178s infinite" /><rect x="272" y="32" width="12" height="12" rx="2" fill="rgba(59, 130, 246, 0.5)"  /><rect x="272" y="48" width="12" height="12" rx="2" fill="rgba(59, 130, 246, 0.8999999999999999)" style="animation: shimmer 2.2135421609792045s infinite" /><rect x="272" y="64" width="12" height="12" rx="2" fill="rgba(59, 130, 246, 0.9)" style="animation: shimmer 2.2870746484310382s infinite" /><rect x="272" y="80" width="12" height="12" rx="2" fill="rgba(59, 130, 246, 0.9)" style="animation: shimmer 2.587817042728316s infinite" /><rect x="272" y="96" width="12" height="12" rx="2" fill="rgba(59, 130, 246, 0.6000000000000001)"  /><rect x="288" y="0" width="12" height="12" rx="2" fill="rgba(59, 130, 246, 0.5)"  /><rect x="288" y="16" width="12" height="12" rx="2" fill="rgba(59, 130, 246, 0.05)"  /><rect x="288" y="32" width="12" height="12" rx="2" fill="rgba(59, 130, 246, 0.4)"  /><rect x="288" y="48" width="12" height="12" rx="2" fill="rgba(59, 130, 246, 0.05)"  /><rect x="288" y="64" width="12" height="12" rx="2" fill="rgba(59, 130, 246, 0.6000000000000001)"  /><rect x="288" y="80" width="12" height="12" rx="2" fill="rgba(59, 130, 246, 0.05)"  /><rect x="288" y="96" width="12" height="12" rx="2" fill="rgba(59, 130, 246, 0.6000000000000001)"  /><rect x="304" y="0" width="12" height="12" rx="2" fill="rgba(59, 130, 246, 0.5)"  /><rect x="304" y="16" width="12" height="12" rx="2" fill="rgba(59, 130, 246, 0.05)"  /><rect x="304" y="32" width="12" height="12" rx="2" fill="rgba(59, 130, 246, 0.8)" style="animation: shimmer 2.6140530740164594s infinite" /><rect x="304" y="48" width="12" height="12" rx="2" fill="rgba(59, 130, 246, 0.9)" style="animation: shimmer 2.2911625051110334s infinite" /><rect x="304" y="64" width="12" height="12" rx="2" fill="rgba(59, 130, 246, 0.6000000000000001)"  /><rect x="304" y="80" width="12" height="12" rx="2" fill="rgba(59, 130, 246, 0.05)"  /><rect x="304" y="96" width="12" height="12" rx="2" fill="rgba(59, 130, 246, 0.05)"  /><rect x="320" y="0" width="12" height="12" rx="2" fill="rgba(59, 130, 246, 0.30000000000000004)"  /><rect x="320" y="16" width="12" height="12" rx="2" fill="rgba(59, 130, 246, 0.05)"  /><rect x="320" y="32" width="12" height="12" rx="2" fill="rgba(59, 130, 246, 0.05)"  /><rect x="320" y="48" width="12" height="12" rx="2" fill="rgba(59, 130, 246, 0.05)"  /><rect x="320" y="64" width="12" height="12" rx="2" fill="rgba(59, 130, 246, 0.05)"  /><rect x="320" y="80" width="12" height="12" rx="2" fill="rgba(59, 130, 246, 0.05)"  /><rect x="320" y="96" width="12" height="12" rx="2" fill="rgba(59, 130, 246, 0.05)"  /><rect x="336" y="0" width="12" height="12" rx="2" fill="rgba(59, 130, 246, 0.4)"  /><rect x="336" y="16" width="12" height="12" rx="2" fill="rgba(59, 130, 246, 0.9)" style="animation: shimmer 2.183698802061147s infinite" /><rect x="336" y="32" width="12" height="12" rx="2" fill="rgba(59, 130, 246, 0.8999999999999999)" style="animation: shimmer 2.024348549676943s infinite" /><rect x="336" y="48" width="12" height="12" rx="2" fill="rgba(59, 130, 246, 0.6000000000000001)"  /><rect x="336" y="64" width="12" height="12" rx="2" fill="rgba(59, 130, 246, 0.4)"  /><rect x="336" y="80" width="12" height="12" rx="2" fill="rgba(59, 130, 246, 0.6000000000000001)"  /><rect x="336" y="96" width="12" height="12" rx="2" fill="rgba(59, 130, 246, 0.30000000000000004)"  /><rect x="352" y="0" width="12" height="12" rx="2" fill="rgba(59, 130, 246, 0.4)"  /><rect x="352" y="16" width="12" height="12" rx="2" fill="rgba(59, 130, 246, 0.9)" style="animation: shimmer 2.549644973042689s infinite" /><rect x="352" y="32" width="12" height="12" rx="2" fill="rgba(59, 130, 246, 0.9)" style="animation: shimmer 2.9521442879211124s infinite" /><rect x="352" y="48" width="12" height="12" rx="2" fill="rgba(59, 130, 246, 0.05)"  /><rect x="352" y="64" width="12" height="12" rx="2" fill="rgba(59, 130, 246, 0.4)"  /><rect x="352" y="80" width="12" height="12" rx="2" fill="rgba(59, 130, 246, 0.8)" style="animation: shimmer 2.2511854693952214s infinite" /><rect x="352" y="96" width="12" height="12" rx="2" fill="rgba(59, 130, 246, 0.30000000000000004)"  /><rect x="368" y="0" width="12" height="12" rx="2" fill="rgba(59, 130, 246, 0.5)"  /><rect x="368" y="16" width="12" height="12" rx="2" fill="rgba(59, 130, 246, 0.9)" style="animation: shimmer 2.6235298939497604s infinite" /><rect x="368" y="32" width="12" height="12" rx="2" fill="rgba(59, 130, 246, 0.9)" style="animation: shimmer 2.808622693552522s infinite" /><rect x="368" y="48" width="12" height="12" rx="2" fill="rgba(59, 130, 246, 0.9)" style="animation: shimmer 2.928399253758845s infinite" /><rect x="368" y="64" width="12" height="12" rx="2" fill="rgba(59, 130, 246, 0.4)"  /><rect x="368" y="80" width="12" height="12" rx="2" fill="rgba(59, 130, 246, 0.9)" style="animation: shimmer 2.4166156077121785s infinite" /><rect x="368" y="96" width="12" height="12" rx="2" fill="rgba(59, 130, 246, 0.9)" style="animation: shimmer 2.891973614518927s infinite" /><rect x="384" y="0" width="12" height="12" rx="2" fill="rgba(59, 130, 246, 0.9)" style="animation: shimmer 2.5188379506624385s infinite" /><rect x="384" y="16" width="12" height="12" rx="2" fill="rgba(59, 130, 246, 0.9)" style="animation: shimmer 2.627294172841246s infinite" /><rect x="384" y="32" width="12" height="12" rx="2" fill="rgba(59, 130, 246, 0.9)" style="animation: shimmer 2.6713263921533605s infinite" /><rect x="384" y="48" width="12" height="12" rx="2" fill="rgba(59, 130, 246, 0.9)" style="animation: shimmer 2.2384969492284172s infinite" /><rect x="384" y="64" width="12" height="12" rx="2" fill="rgba(59, 130, 246, 0.9)" style="animation: shimmer 2.530894254775189s infinite" /><rect x="384" y="80" width="12" height="12" rx="2" fill="rgba(59, 130, 246, 0.9)" style="animation: shimmer 2.7517138184117242s infinite" /><rect x="384" y="96" width="12" height="12" rx="2" fill="rgba(59, 130, 246, 0.9)" style="animation: shimmer 2.4173288185227637s infinite" /><rect x="400" y="0" width="12" height="12" rx="2" fill="rgba(59, 130, 246, 0.9)" style="animation: shimmer 2.335758203112836s infinite" /><rect x="400" y="16" width="12" height="12" rx="2" fill="rgba(59, 130, 246, 0.9)" style="animation: shimmer 2.059041673548563s infinite" /><rect x="400" y="32" width="12" height="12" rx="2" fill="rgba(59, 130, 246, 0.8999999999999999)" style="animation: shimmer 2.760319968710073s infinite" /><rect x="400" y="48" width="12" height="12" rx="2" fill="rgba(59, 130, 246, 0.9)" style="animation: shimmer 2.2050753594628194s infinite" /><rect x="400" y="64" width="12" height="12" rx="2" fill="rgba(59, 130, 246, 0.9)" style="animation: shimmer 2.905123220679329s infinite" /><rect x="400" y="80" width="12" height="12" rx="2" fill="rgba(59, 130, 246, 0.9)" style="animation: shimmer 2.383855550020776s infinite" /><rect x="400" y="96" width="12" height="12" rx="2" fill="rgba(59, 130, 246, 0.4)"  /><rect x="416" y="0" width="12" height="12" rx="2" fill="rgba(59, 130, 246, 0.8999999999999999)" style="animation: shimmer 2.33444864369235s infinite" /><rect x="416" y="16" width="12" height="12" rx="2" fill="rgba(59, 130, 246, 0.9)" style="animation: shimmer 2.816048078680234s infinite" /><rect x="416" y="32" width="12" height="12" rx="2" fill="rgba(59, 130, 246, 0.9)" style="animation: shimmer 2.3020989730436345s infinite" /><rect x="416" y="48" width="12" height="12" rx="2" fill="rgba(59, 130, 246, 0.9)" style="animation: shimmer 2.0555947194507973s infinite" /><rect x="416" y="64" width="12" height="12" rx="2" fill="rgba(59, 130, 246, 0.9)" style="animation: shimmer 2.989902780632375s infinite" /><rect x="416" y="80" width="12" height="12" rx="2" fill="rgba(59, 130, 246, 0.9)" style="animation: shimmer 2.7293645641376454s infinite" /><rect x="416" y="96" width="12" height="12" rx="2" fill="rgba(59, 130, 246, 0.9)" style="animation: shimmer 2.11968298736101s infinite" /><rect x="432" y="0" width="12" height="12" rx="2" fill="rgba(59, 130, 246, 0.5)"  /><rect x="432" y="16" width="12" height="12" rx="2" fill="rgba(59, 130, 246, 0.05)"  /><rect x="432" y="32" width="12" height="12" rx="2" fill="rgba(59, 130, 246, 0.8)" style="animation: shimmer 2.984612947014755s infinite" /><rect x="432" y="48" width="12" height="12" rx="2" fill="rgba(59, 130, 246, 0.9)" style="animation: shimmer 2.2090500630767838s infinite" /><rect x="432" y="64" width="12" height="12" rx="2" fill="rgba(59, 130, 246, 0.9)" style="animation: shimmer 2.77726771134303s infinite" /><rect x="432" y="80" width="12" height="12" rx="2" fill="rgba(59, 130, 246, 0.05)"  /><rect x="432" y="96" width="12" height="12" rx="2" fill="rgba(59, 130, 246, 0.05)"  /><rect x="448" y="0" width="12" height="12" rx="2" fill="rgba(59, 130, 246, 0.05)"  /><rect x="448" y="16" width="12" height="12" rx="2" fill="rgba(59, 130, 246, 0.9)" style="animation: shimmer 2.6017779589653705s infinite" /><rect x="448" y="32" width="12" height="12" rx="2" fill="rgba(59, 130, 246, 0.9)" style="animation: shimmer 2.939015087413693s infinite" /><rect x="448" y="48" width="12" height="12" rx="2" fill="rgba(59, 130, 246, 0.7)"  /><rect x="448" y="64" width="12" height="12" rx="2" fill="rgba(59, 130, 246, 0.9)" style="animation: shimmer 2.802722173761124s infinite" /><rect x="448" y="80" width="12" height="12" rx="2" fill="rgba(59, 130, 246, 0.9)" style="animation: shimmer 2.395915484185678s infinite" /><rect x="448" y="96" width="12" height="12" rx="2" fill="rgba(59, 130, 246, 0.7)"  /><rect x="464" y="0" width="12" height="12" rx="2" fill="rgba(59, 130, 246, 0.05)"  /><rect x="464" y="16" width="12" height="12" rx="2" fill="rgba(59, 130, 246, 0.7)"  /><rect x="464" y="32" width="12" height="12" rx="2" fill="rgba(59, 130, 246, 0.9)" style="animation: shimmer 2.2000094422904386s infinite" /><rect x="464" y="48" width="12" height="12" rx="2" fill="rgba(59, 130, 246, 0.9)" style="animation: shimmer 2.0991026292989874s infinite" /><rect x="464" y="64" width="12" height="12" rx="2" fill="rgba(59, 130, 246, 0.05)"  /><rect x="464" y="80" width="12" height="12" rx="2" fill="rgba(59, 130, 246, 0.9)" style="animation: shimmer 2.215567528330964s infinite" /><rect x="464" y="96" width="12" height="12" rx="2" fill="rgba(59, 130, 246, 0.9)" style="animation: shimmer 2.232256538927427s infinite" /><rect x="480" y="0" width="12" height="12" rx="2" fill="rgba(59, 130, 246, 0.9)" style="animation: shimmer 2.532805442351511s infinite" /><rect x="480" y="16" width="12" height="12" rx="2" fill="rgba(59, 130, 246, 0.6000000000000001)"  /><rect x="480" y="32" width="12" height="12" rx="2" fill="rgba(59, 130, 246, 0.9)" style="animation: shimmer 2.365154421951428s infinite" /><rect x="480" y="48" width="12" height="12" rx="2" fill="rgba(59, 130, 246, 0.7)"  /><rect x="480" y="64" width="12" height="12" rx="2" fill="rgba(59, 130, 246, 0.4)"  /><rect x="480" y="80" width="12" height="12" rx="2" fill="rgba(59, 130, 246, 0.05)"  /><rect x="480" y="96" width="12" height="12" rx="2" fill="rgba(59, 130, 246, 0.9)" style="animation: shimmer 2.840379048388447s infinite" /><rect x="496" y="0" width="12" height="12" rx="2" fill="rgba(59, 130, 246, 0.05)"  /><rect x="496" y="16" width="12" height="12" rx="2" fill="rgba(59, 130, 246, 0.30000000000000004)"  /><rect x="496" y="32" width="12" height="12" rx="2" fill="rgba(59, 130, 246, 0.05)"  /><rect x="496" y="48" width="12" height="12" rx="2" fill="rgba(59, 130, 246, 0.05)"  /><rect x="496" y="64" width="12" height="12" rx="2" fill="rgba(59, 130, 246, 0.05)"  /><rect x="496" y="80" width="12" height="12" rx="2" fill="rgba(59, 130, 246, 0.05)"  /><rect x="496" y="96" width="12" height="12" rx="2" fill="rgba(59, 130, 246, 0.05)"  /><rect x="512" y="0" width="12" height="12" rx="2" fill="rgba(59, 130, 246, 0.7)"  /><rect x="512" y="16" width="12" height="12" rx="2" fill="rgba(59, 130, 246, 0.4)"  /><rect x="512" y="32" width="12" height="12" rx="2" fill="rgba(59, 130, 246, 0.05)"  /><rect x="512" y="48" width="12" height="12" rx="2" fill="rgba(59, 130, 246, 0.30000000000000004)"  /><rect x="512" y="64" width="12" height="12" rx="2" fill="rgba(59, 130, 246, 0.05)"  /><rect x="512" y="80" width="12" height="12" rx="2" fill="rgba(59, 130, 246, 0.05)"  /><rect x="512" y="96" width="12" height="12" rx="2" fill="rgba(59, 130, 246, 0.05)"  /><rect x="528" y="0" width="12" height="12" rx="2" fill="rgba(59, 130, 246, 0.6000000000000001)"  /><rect x="528" y="16" width="12" height="12" rx="2" fill="rgba(59, 130, 246, 0.05)"  /><rect x="528" y="32" width="12" height="12" rx="2" fill="rgba(59, 130, 246, 0.05)"  /><rect x="528" y="48" width="12" height="12" rx="2" fill="rgba(59, 130, 246, 0.05)"  /><rect x="528" y="64" width="12" height="12" rx="2" fill="rgba(59, 130, 246, 0.9)" style="animation: shimmer 2.0416728653857223s infinite" /><rect x="528" y="80" width="12" height="12" rx="2" fill="rgba(59, 130, 246, 0.9)" style="animation: shimmer 2.860566140535657s infinite" /><rect x="528" y="96" width="12" height="12" rx="2" fill="rgba(59, 130, 246, 0.9)" style="animation: shimmer 2.162437109705351s infinite" /><rect x="544" y="0" width="12" height="12" rx="2" fill="rgba(59, 130, 246, 0.9)" style="animation: shimmer 2.3372125066040788s infinite" /><rect x="544" y="16" width="12" height="12" rx="2" fill="rgba(59, 130, 246, 0.9)" style="animation: shimmer 2.4401463331580024s infinite" /><rect x="544" y="32" width="12" height="12" rx="2" fill="rgba(59, 130, 246, 0.8)" style="animation: shimmer 2.6962093284684308s infinite" /><rect x="544" y="48" width="12" height="12" rx="2" fill="rgba(59, 130, 246, 0.5)"  /><rect x="544" y="64" width="12" height="12" rx="2" fill="rgba(59, 130, 246, 0.9)" style="animation: shimmer 2.365991728601691s infinite" /><rect x="544" y="80" width="12" height="12" rx="2" fill="rgba(59, 130, 246, 0.9)" style="animation: shimmer 2.551578787525198s infinite" /><rect x="544" y="96" width="12" height="12" rx="2" fill="rgba(59, 130, 246, 0.9)" style="animation: shimmer 2.0724385160281056s infinite" /><rect x="560" y="0" width="12" height="12" rx="2" fill="rgba(59, 130, 246, 0.05)"  /><rect x="560" y="16" width="12" height="12" rx="2" fill="rgba(59, 130, 246, 0.9)" style="animation: shimmer 2.8153325346840097s infinite" /><rect x="560" y="32" width="12" height="12" rx="2" fill="rgba(59, 130, 246, 0.9)" style="animation: shimmer 2.0479740910802215s infinite" /><rect x="560" y="48" width="12" height="12" rx="2" fill="rgba(59, 130, 246, 0.9)" style="animation: shimmer 2.2003095497191523s infinite" /><rect x="560" y="64" width="12" height="12" rx="2" fill="rgba(59, 130, 246, 0.9)" style="animation: shimmer 2.883530240318531s infinite" /><rect x="560" y="80" width="12" height="12" rx="2" fill="rgba(59, 130, 246, 0.9)" style="animation: shimmer 2.896740966608625s infinite" /><rect x="560" y="96" width="12" height="12" rx="2" fill="rgba(59, 130, 246, 0.9)" style="animation: shimmer 2.926862216482915s infinite" /><rect x="576" y="0" width="12" height="12" rx="2" fill="rgba(59, 130, 246, 0.9)" style="animation: shimmer 2.48227992897645s infinite" /><rect x="576" y="16" width="12" height="12" rx="2" fill="rgba(59, 130, 246, 0.9)" style="animation: shimmer 2.741287124604767s infinite" /><rect x="576" y="32" width="12" height="12" rx="2" fill="rgba(59, 130, 246, 0.9)" style="animation: shimmer 2.4849919090677233s infinite" /><rect x="576" y="48" width="12" height="12" rx="2" fill="rgba(59, 130, 246, 0.9)" style="animation: shimmer 2.6597071743671523s infinite" /><rect x="576" y="64" width="12" height="12" rx="2" fill="rgba(59, 130, 246, 0.30000000000000004)"  /><rect x="576" y="80" width="12" height="12" rx="2" fill="rgba(59, 130, 246, 0.9)" style="animation: shimmer 2.157252617675531s infinite" /><rect x="576" y="96" width="12" height="12" rx="2" fill="rgba(59, 130, 246, 0.30000000000000004)"  /><rect x="592" y="0" width="12" height="12" rx="2" fill="rgba(59, 130, 246, 0.05)"  /><rect x="592" y="16" width="12" height="12" rx="2" fill="rgba(59, 130, 246, 0.7)"  /><rect x="592" y="32" width="12" height="12" rx="2" fill="rgba(59, 130, 246, 0.9)" style="animation: shimmer 2.103596950077027s infinite" /><rect x="592" y="48" width="12" height="12" rx="2" fill="rgba(59, 130, 246, 0.9)" style="animation: shimmer 2.3996775236073495s infinite" /><rect x="592" y="64" width="12" height="12" rx="2" fill="rgba(59, 130, 246, 0.30000000000000004)"  /><rect x="592" y="80" width="12" height="12" rx="2" fill="rgba(59, 130, 246, 0.4)"  /><rect x="592" y="96" width="12" height="12" rx="2" fill="rgba(59, 130, 246, 0.8)" style="animation: shimmer 2.022906867389161s infinite" /><rect x="608" y="0" width="12" height="12" rx="2" fill="rgba(59, 130, 246, 0.9)" style="animation: shimmer 2.508802862049396s infinite" /><rect x="608" y="16" width="12" height="12" rx="2" fill="rgba(59, 130, 246, 0.9)" style="animation: shimmer 2.7524322512501964s infinite" /><rect x="608" y="32" width="12" height="12" rx="2" fill="rgba(59, 130, 246, 0.9)" style="animation: shimmer 2.9786157930379122s infinite" /><rect x="608" y="48" width="12" height="12" rx="2" fill="rgba(59, 130, 246, 0.9)" style="animation: shimmer 2.0487745884456694s infinite" /><rect x="608" y="64" width="12" height="12" rx="2" fill="rgba(59, 130, 246, 0.9)" style="animation: shimmer 2.3115735300341558s infinite" /><rect x="608" y="80" width="12" height="12" rx="2" fill="rgba(59, 130, 246, 0.9)" style="animation: shimmer 2.0929786761698375s infinite" /><rect x="608" y="96" width="12" height="12" rx="2" fill="rgba(59, 130, 246, 0.9)" style="animation: shimmer 2.867252103024673s infinite" /><rect x="624" y="0" width="12" height="12" rx="2" fill="rgba(59, 130, 246, 0.9)" style="animation: shimmer 2.8522003181858757s infinite" /><rect x="624" y="16" width="12" height="12" rx="2" fill="rgba(59, 130, 246, 0.9)" style="animation: shimmer 2.9070780257631426s infinite" /><rect x="624" y="32" width="12" height="12" rx="2" fill="rgba(59, 130, 246, 0.05)"  /><rect x="624" y="48" width="12" height="12" rx="2" fill="rgba(59, 130, 246, 0.4)"  /><rect x="624" y="64" width="12" height="12" rx="2" fill="rgba(59, 130, 246, 0.9)" style="animation: shimmer 2.4667035072023813s infinite" /><rect x="624" y="80" width="12" height="12" rx="2" fill="rgba(59, 130, 246, 0.9)" style="animation: shimmer 2.545318783708974s infinite" /><rect x="624" y="96" width="12" height="12" rx="2" fill="rgba(59, 130, 246, 0.8)" style="animation: shimmer 2.3208765490552175s infinite" /><rect x="640" y="0" width="12" height="12" rx="2" fill="rgba(59, 130, 246, 0.8999999999999999)" style="animation: shimmer 2.265358537854013s infinite" /><rect x="640" y="16" width="12" height="12" rx="2" fill="rgba(59, 130, 246, 0.9)" style="animation: shimmer 2.539025828332231s infinite" /><rect x="640" y="32" width="12" height="12" rx="2" fill="rgba(59, 130, 246, 0.05)"  /><rect x="640" y="48" width="12" height="12" rx="2" fill="rgba(59, 130, 246, 0.8)" style="animation: shimmer 2.520134040589197s infinite" /><rect x="640" y="64" width="12" height="12" rx="2" fill="rgba(59, 130, 246, 0.05)"  /><rect x="640" y="80" width="12" height="12" rx="2" fill="rgba(59, 130, 246, 0.30000000000000004)"  /><rect x="640" y="96" width="12" height="12" rx="2" fill="rgba(59, 130, 246, 0.9)" style="animation: shimmer 2.605055202570835s infinite" /><rect x="656" y="0" width="12" height="12" rx="2" fill="rgba(59, 130, 246, 0.30000000000000004)"  /><rect x="656" y="16" width="12" height="12" rx="2" fill="rgba(59, 130, 246, 0.05)"  /><rect x="656" y="32" width="12" height="12" rx="2" fill="rgba(59, 130, 246, 0.05)"  /><rect x="656" y="48" width="12" height="12" rx="2" fill="rgba(59, 130, 246, 0.05)"  /><rect x="656" y="64" width="12" height="12" rx="2" fill="rgba(59, 130, 246, 0.05)"  /><rect x="656" y="80" width="12" height="12" rx="2" fill="rgba(59, 130, 246, 0.05)"  /><rect x="656" y="96" width="12" height="12" rx="2" fill="rgba(59, 130, 246, 0.05)"  /><rect x="672" y="0" width="12" height="12" rx="2" fill="rgba(59, 130, 246, 0.9)" style="animation: shimmer 2.4111239635474795s infinite" /><rect x="672" y="16" width="12" height="12" rx="2" fill="rgba(59, 130, 246, 0.05)"  /><rect x="672" y="32" width="12" height="12" rx="2" fill="rgba(59, 130, 246, 0.05)"  /><rect x="672" y="48" width="12" height="12" rx="2" fill="rgba(59, 130, 246, 0.05)"  /><rect x="672" y="64" width="12" height="12" rx="2" fill="rgba(59, 130, 246, 0.8999999999999999)" style="animation: shimmer 2.715089591742133s infinite" /><rect x="672" y="80" width="12" height="12" rx="2" fill="rgba(59, 130, 246, 0.4)"  /><rect x="672" y="96" width="12" height="12" rx="2" fill="rgba(59, 130, 246, 0.05)"  /><rect x="688" y="0" width="12" height="12" rx="2" fill="rgba(59, 130, 246, 0.05)"  /><rect x="688" y="16" width="12" height="12" rx="2" fill="rgba(59, 130, 246, 0.05)"  /><rect x="688" y="32" width="12" height="12" rx="2" fill="rgba(59, 130, 246, 0.05)"  /><rect x="688" y="48" width="12" height="12" rx="2" fill="rgba(59, 130, 246, 0.05)"  /><rect x="688" y="64" width="12" height="12" rx="2" fill="rgba(59, 130, 246, 0.05)"  />
      </g>
    </g>
  
      <g transform="translate(60, 640)">
    <text x="0" y="0" class="font-sans" font-weight="700" font-size="18" fill="#f3f4f6">Top Works</text>
  
      <g transform="translate(0, 30)">
        <rect width="355" height="130" rx="20" fill="rgba(17, 24, 39, 0.7)" stroke="rgba(59, 130, 246, 0.3)" stroke-width="1" />
        <text x="20" y="35" class="font-mono" font-weight="700" font-size="16" fill="#f3f4f6">altus-ui</text>
        <text x="20" y="65" class="font-sans" font-size="13" fill="#9ca3af" width="310">Multi Themed UI component library. Built for performance ...</text>
        <g transform="translate(20, 100)">
          <circle cx="6" cy="-4" r="5" fill="#3178c6" filter="url(#glow)" />
          <text x="18" y="0" class="font-sans" font-size="12" fill="#9ca3af">TypeScript</text>
          <text x="280" y="0" class="font-mono" font-size="12" fill="#06b6d4">★ 3</text>
        </g>
      </g>
    
      <g transform="translate(375, 30)">
        <rect width="355" height="130" rx="20" fill="rgba(17, 24, 39, 0.7)" stroke="rgba(59, 130, 246, 0.3)" stroke-width="1" />
        <text x="20" y="35" class="font-mono" font-weight="700" font-size="16" fill="#f3f4f6">Portel</text>
        <text x="20" y="65" class="font-sans" font-size="13" fill="#9ca3af" width="310">Host you&apos;re very own website inside a minecraft server fo...</text>
        <g transform="translate(20, 100)">
          <circle cx="6" cy="-4" r="5" fill="#b07219" filter="url(#glow)" />
          <text x="18" y="0" class="font-sans" font-size="12" fill="#9ca3af">Java</text>
          <text x="280" y="0" class="font-mono" font-size="12" fill="#06b6d4">★ 3</text>
        </g>
      </g>
    
      <g transform="translate(0, 180)">
        <rect width="355" height="130" rx="20" fill="rgba(17, 24, 39, 0.7)" stroke="rgba(59, 130, 246, 0.3)" stroke-width="1" />
        <text x="20" y="35" class="font-mono" font-weight="700" font-size="16" fill="#f3f4f6">RTP</text>
        <text x="20" y="65" class="font-sans" font-size="13" fill="#9ca3af" width="310">Random Teleport plugin updated for modern Paper servers</text>
        <g transform="translate(20, 100)">
          <circle cx="6" cy="-4" r="5" fill="#b07219" filter="url(#glow)" />
          <text x="18" y="0" class="font-sans" font-size="12" fill="#9ca3af">Java</text>
          <text x="280" y="0" class="font-mono" font-size="12" fill="#06b6d4">★ 1</text>
        </g>
      </g>
    
      <g transform="translate(375, 180)">
        <rect width="355" height="130" rx="20" fill="rgba(17, 24, 39, 0.7)" stroke="rgba(59, 130, 246, 0.3)" stroke-width="1" />
        <text x="20" y="35" class="font-mono" font-weight="700" font-size="16" fill="#f3f4f6">Sublet</text>
        <text x="20" y="65" class="font-sans" font-size="13" fill="#9ca3af" width="310">Create, Manage, Run multiple independent Minecraft sub/mi...</text>
        <g transform="translate(20, 100)">
          <circle cx="6" cy="-4" r="5" fill="#b07219" filter="url(#glow)" />
          <text x="18" y="0" class="font-sans" font-size="12" fill="#9ca3af">Java</text>
          <text x="280" y="0" class="font-mono" font-size="12" fill="#06b6d4">★ 1</text>
        </g>
      </g>
    </g>
      <g transform="translate(60, 1000)">
    <text x="0" y="0" class="font-sans" font-weight="700" font-size="18" fill="#f3f4f6">My Best Tools</text>
    <g transform="translate(0, 30)">
  
      <g transform="translate(0, 0)">
        <rect width="230" height="50" rx="12" fill="rgba(17, 24, 39, 0.7)" stroke="rgba(59, 130, 246, 0.3)" stroke-width="1" />
        <circle cx="25" cy="25" r="8" fill="none" stroke="#dea584" stroke-width="1.5" stroke-dasharray="10 5" opacity="0.6">
          <animateTransform attributeName="transform" type="rotate" from="0 25 25" to="360 25 25" dur="4s" repeatCount="indefinite" />
        </circle>
        <circle cx="25" cy="25" r="3" fill="#dea584" filter="url(#glow)" />
        <text x="45" y="30" class="font-mono" font-weight="700" font-size="13" fill="#f3f4f6" letter-spacing="1px">RUST</text>
      </g>
    
      <g transform="translate(250, 0)">
        <rect width="230" height="50" rx="12" fill="rgba(17, 24, 39, 0.7)" stroke="rgba(59, 130, 246, 0.3)" stroke-width="1" />
        <circle cx="25" cy="25" r="8" fill="none" stroke="#f9e2af" stroke-width="1.5" stroke-dasharray="10 5" opacity="0.6">
          <animateTransform attributeName="transform" type="rotate" from="0 25 25" to="360 25 25" dur="4s" repeatCount="indefinite" />
        </circle>
        <circle cx="25" cy="25" r="3" fill="#f9e2af" filter="url(#glow)" />
        <text x="45" y="30" class="font-mono" font-weight="700" font-size="13" fill="#f3f4f6" letter-spacing="1px">BUN</text>
      </g>
    
      <g transform="translate(500, 0)">
        <rect width="230" height="50" rx="12" fill="rgba(17, 24, 39, 0.7)" stroke="rgba(59, 130, 246, 0.3)" stroke-width="1" />
        <circle cx="25" cy="25" r="8" fill="none" stroke="#24c8db" stroke-width="1.5" stroke-dasharray="10 5" opacity="0.6">
          <animateTransform attributeName="transform" type="rotate" from="0 25 25" to="360 25 25" dur="4s" repeatCount="indefinite" />
        </circle>
        <circle cx="25" cy="25" r="3" fill="#24c8db" filter="url(#glow)" />
        <text x="45" y="30" class="font-mono" font-weight="700" font-size="13" fill="#f3f4f6" letter-spacing="1px">TAURI</text>
      </g>
    
      <g transform="translate(0, 70)">
        <rect width="230" height="50" rx="12" fill="rgba(17, 24, 39, 0.7)" stroke="rgba(59, 130, 246, 0.3)" stroke-width="1" />
        <circle cx="25" cy="25" r="8" fill="none" stroke="#00ADD8" stroke-width="1.5" stroke-dasharray="10 5" opacity="0.6">
          <animateTransform attributeName="transform" type="rotate" from="0 25 25" to="360 25 25" dur="4s" repeatCount="indefinite" />
        </circle>
        <circle cx="25" cy="25" r="3" fill="#00ADD8" filter="url(#glow)" />
        <text x="45" y="30" class="font-mono" font-weight="700" font-size="13" fill="#f3f4f6" letter-spacing="1px">GO</text>
      </g>
    
      <g transform="translate(250, 70)">
        <rect width="230" height="50" rx="12" fill="rgba(17, 24, 39, 0.7)" stroke="rgba(59, 130, 246, 0.3)" stroke-width="1" />
        <circle cx="25" cy="25" r="8" fill="none" stroke="#3178c6" stroke-width="1.5" stroke-dasharray="10 5" opacity="0.6">
          <animateTransform attributeName="transform" type="rotate" from="0 25 25" to="360 25 25" dur="4s" repeatCount="indefinite" />
        </circle>
        <circle cx="25" cy="25" r="3" fill="#3178c6" filter="url(#glow)" />
        <text x="45" y="30" class="font-mono" font-weight="700" font-size="13" fill="#f3f4f6" letter-spacing="1px">TYPESCRIPT</text>
      </g>
    
      <g transform="translate(500, 70)">
        <rect width="230" height="50" rx="12" fill="rgba(17, 24, 39, 0.7)" stroke="rgba(59, 130, 246, 0.3)" stroke-width="1" />
        <circle cx="25" cy="25" r="8" fill="none" stroke="#ffffff" stroke-width="1.5" stroke-dasharray="10 5" opacity="0.6">
          <animateTransform attributeName="transform" type="rotate" from="0 25 25" to="360 25 25" dur="4s" repeatCount="indefinite" />
        </circle>
        <circle cx="25" cy="25" r="3" fill="#ffffff" filter="url(#glow)" />
        <text x="45" y="30" class="font-mono" font-weight="700" font-size="13" fill="#f3f4f6" letter-spacing="1px">NEXT.JS</text>
      </g>
    </g></g>
      
    <g transform="translate(60, 1250)">
      <text class="font-mono" font-size="14" fill="#f3f4f6" opacity="0.7">Discord: v_late</text>
      <text x="180" y="0" class="font-mono" font-size="14" fill="#f3f4f6" opacity="0.7">Insta: jk_nan_</text>
      <text x="480" y="0" class="font-mono" font-size="12" fill="#06b6d4" opacity="0.6">Let's build something together.</text>
    </g>
  
    </svg>
  