
    <svg width="850" height="1350" viewBox="0 0 850 1350" xmlns="http://www.w3.org/2000/svg">
      
    <defs>
      <filter id="glassBlur" x="-20%" y="-20%" width="140%" height="140%">
        <feGaussianBlur in="SourceGraphic" stdDeviation="10" />
      </filter>
      <filter id="glow" x="-20%" y="-20%" width="140%" height="140%">
        <feGaussianBlur stdDeviation="5" result="blur" />
        <feComposite in="SourceGraphic" in2="blur" operator="over" />
      </filter>
      <linearGradient id="glassGrad" x1="0%" y1="0%" x2="100%" y2="100%">
        <stop offset="0%" stop-color="rgba(59, 130, 246, 0.1)" />
        <stop offset="100%" stop-color="rgba(59, 130, 246, 0.02)" />
      </linearGradient>
      <pattern id="grid" width="40" height="40" patternUnits="userSpaceOnUse">
        <path d="M 40 0 L 0 0 0 40" fill="none" stroke="rgba(59, 130, 246, 0.1)" stroke-width="1"/>
      </pattern>
      
      <style>
        @keyframes scanline {
          0% { transform: translateY(-100px); opacity: 0; }
          10% { opacity: 0.5; }
          90% { opacity: 0.5; }
          100% { transform: translateY(1350px); opacity: 0; }
        }
        @keyframes pulse {
          0%, 100% { opacity: 0.4; }
          50% { opacity: 1; }
        }
        @keyframes flicker {
          0%, 19.999%, 22%, 62.999%, 64%, 64.999%, 70%, 100% { opacity: 1; }
          20%, 21.999%, 63%, 63.999%, 65%, 69.999% { opacity: 0.4; }
        }
        @keyframes dataFlow {
          0% { stroke-dashoffset: 100; }
          100% { stroke-dashoffset: 0; }
        }
        @keyframes shimmer {
          0% { fill-opacity: 0.3; }
          50% { fill-opacity: 0.9; }
          100% { fill-opacity: 0.3; }
        }
        .font-mono { font-family: 'JetBrains Mono', 'Fira Code', monospace; }
        .font-sans { font-family: 'Inter', system-ui, sans-serif; }
      </style>
    </defs>
  
      
    <rect width="850" height="1350" fill="#030712" rx="24" />
    <rect width="850" height="1350" fill="url(#grid)" rx="24" />
    <rect width="850" height="100" fill="url(#glassGrad)" style="animation: scanline 8s linear infinite;">
      <animate attributeName="opacity" values="0;0.5;0" dur="8s" repeatCount="indefinite" />
    </rect>
  
      
    <g opacity="0.2" stroke="#3b82f6" stroke-width="1" fill="none">
      <path d="M 790 150 L 790 1200 L 750 1200" stroke-dasharray="5 5" style="animation: dataFlow 10s linear infinite;" />
      <path d="M 60 1200 L 20 1200 L 20 150" stroke-dasharray="5 5" style="animation: dataFlow 10s linear reverse infinite;" />
    </g>
  
      
    <g transform="translate(60, 80)">
      <text class="font-sans" font-weight="900" font-size="72" fill="#f3f4f6" letter-spacing="-3px">Qclid</text>
      <text x="5" y="45" class="font-sans" font-weight="500" font-size="20" fill="#06b6d4" opacity="0.8">always open to collab // building cool things</text>
      <line x1="0" y1="70" x2="730" y2="70" stroke="rgba(59, 130, 246, 0.3)" stroke-width="1" stroke-dasharray="4 4" />
    </g>
  
      <g transform="translate(60, 220)">
      <g transform="translate(0, 0)">
        <rect width="170" height="100" rx="16" fill="rgba(17, 24, 39, 0.7)" stroke="rgba(59, 130, 246, 0.3)" stroke-width="1" />
        <text x="20" y="40" class="font-sans" font-weight="600" font-size="12" fill="#3b82f6" letter-spacing="2px" opacity="0.7">STARS</text>
        <text x="20" y="75" class="font-mono" font-weight="800" font-size="32" fill="#f3f4f6" style="animation: flicker 2s infinite;">7</text>
        <circle cx="145" cy="25" r="3" fill="#06b6d4" style="animation: pulse 2s infinite;" />
      </g>
    
      <g transform="translate(190, 0)">
        <rect width="170" height="100" rx="16" fill="rgba(17, 24, 39, 0.7)" stroke="rgba(59, 130, 246, 0.3)" stroke-width="1" />
        <text x="20" y="40" class="font-sans" font-weight="600" font-size="12" fill="#3b82f6" letter-spacing="2px" opacity="0.7">COMMITS</text>
        <text x="20" y="75" class="font-mono" font-weight="800" font-size="32" fill="#f3f4f6" style="animation: flicker 3s infinite;">1910</text>
        <circle cx="145" cy="25" r="3" fill="#06b6d4" style="animation: pulse 2s infinite;" />
      </g>
    
      <g transform="translate(380, 0)">
        <rect width="170" height="100" rx="16" fill="rgba(17, 24, 39, 0.7)" stroke="rgba(59, 130, 246, 0.3)" stroke-width="1" />
        <text x="20" y="40" class="font-sans" font-weight="600" font-size="12" fill="#3b82f6" letter-spacing="2px" opacity="0.7">PRs</text>
        <text x="20" y="75" class="font-mono" font-weight="800" font-size="32" fill="#f3f4f6" style="animation: flicker 4s infinite;">3</text>
        <circle cx="145" cy="25" r="3" fill="#06b6d4" style="animation: pulse 2s infinite;" />
      </g>
    
      <g transform="translate(570, 0)">
        <rect width="170" height="100" rx="16" fill="rgba(17, 24, 39, 0.7)" stroke="rgba(59, 130, 246, 0.3)" stroke-width="1" />
        <text x="20" y="40" class="font-sans" font-weight="600" font-size="12" fill="#3b82f6" letter-spacing="2px" opacity="0.7">REPOS</text>
        <text x="20" y="75" class="font-mono" font-weight="800" font-size="32" fill="#f3f4f6" style="animation: flicker 5s infinite;">39</text>
        <circle cx="145" cy="25" r="3" fill="#06b6d4" style="animation: pulse 2s infinite;" />
      </g>
    </g>
      
    <g transform="translate(60, 380)">
      <rect width="730" height="200" rx="20" fill="rgba(17, 24, 39, 0.7)" stroke="rgba(59, 130, 246, 0.3)" stroke-width="1" />
      <text x="25" y="35" class="font-sans" font-weight="700" font-size="18" fill="#f3f4f6">My Activity</text>
      <g transform="translate(15, 65)">
        <rect x="0" y="0" width="12" height="12" rx="2" fill="rgba(59, 130, 246, 0.05)"  /><rect x="0" y="16" width="12" height="12" rx="2" fill="rgba(59, 130, 246, 0.6000000000000001)"  /><rect x="0" y="32" width="12" height="12" rx="2" fill="rgba(59, 130, 246, 0.05)"  /><rect x="0" y="48" width="12" height="12" rx="2" fill="rgba(59, 130, 246, 0.05)"  /><rect x="0" y="64" width="12" height="12" rx="2" fill="rgba(59, 130, 246, 0.05)"  /><rect x="0" y="80" width="12" height="12" rx="2" fill="rgba(59, 130, 246, 0.05)"  /><rect x="0" y="96" width="12" height="12" rx="2" fill="rgba(59, 130, 246, 0.05)"  /><rect x="16" y="0" width="12" height="12" rx="2" fill="rgba(59, 130, 246, 0.05)"  /><rect x="16" y="16" width="12" height="12" rx="2" fill="rgba(59, 130, 246, 0.05)"  /><rect x="16" y="32" width="12" height="12" rx="2" fill="rgba(59, 130, 246, 0.05)"  /><rect x="16" y="48" width="12" height="12" rx="2" fill="rgba(59, 130, 246, 0.05)"  /><rect x="16" y="64" width="12" height="12" rx="2" fill="rgba(59, 130, 246, 0.05)"  /><rect x="16" y="80" width="12" height="12" rx="2" fill="rgba(59, 130, 246, 0.05)"  /><rect x="16" y="96" width="12" height="12" rx="2" fill="rgba(59, 130, 246, 0.05)"  /><rect x="32" y="0" width="12" height="12" rx="2" fill="rgba(59, 130, 246, 0.05)"  /><rect x="32" y="16" width="12" height="12" rx="2" fill="rgba(59, 130, 246, 0.05)"  /><rect x="32" y="32" width="12" height="12" rx="2" fill="rgba(59, 130, 246, 0.05)"  /><rect x="32" y="48" width="12" height="12" rx="2" fill="rgba(59, 130, 246, 0.05)"  /><rect x="32" y="64" width="12" height="12" rx="2" fill="rgba(59, 130, 246, 0.05)"  /><rect x="32" y="80" width="12" height="12" rx="2" fill="rgba(59, 130, 246, 0.05)"  /><rect x="32" y="96" width="12" height="12" rx="2" fill="rgba(59, 130, 246, 0.05)"  /><rect x="48" y="0" width="12" height="12" rx="2" fill="rgba(59, 130, 246, 0.05)"  /><rect x="48" y="16" width="12" height="12" rx="2" fill="rgba(59, 130, 246, 0.05)"  /><rect x="48" y="32" width="12" height="12" rx="2" fill="rgba(59, 130, 246, 0.05)"  /><rect x="48" y="48" width="12" height="12" rx="2" fill="rgba(59, 130, 246, 0.05)"  /><rect x="48" y="64" width="12" height="12" rx="2" fill="rgba(59, 130, 246, 0.05)"  /><rect x="48" y="80" width="12" height="12" rx="2" fill="rgba(59, 130, 246, 0.05)"  /><rect x="48" y="96" width="12" height="12" rx="2" fill="rgba(59, 130, 246, 0.05)"  /><rect x="64" y="0" width="12" height="12" rx="2" fill="rgba(59, 130, 246, 0.30000000000000004)"  /><rect x="64" y="16" width="12" height="12" rx="2" fill="rgba(59, 130, 246, 0.05)"  /><rect x="64" y="32" width="12" height="12" rx="2" fill="rgba(59, 130, 246, 0.05)"  /><rect x="64" y="48" width="12" height="12" rx="2" fill="rgba(59, 130, 246, 0.05)"  /><rect x="64" y="64" width="12" height="12" rx="2" fill="rgba(59, 130, 246, 0.05)"  /><rect x="64" y="80" width="12" height="12" rx="2" fill="rgba(59, 130, 246, 0.05)"  /><rect x="64" y="96" width="12" height="12" rx="2" fill="rgba(59, 130, 246, 0.05)"  /><rect x="80" y="0" width="12" height="12" rx="2" fill="rgba(59, 130, 246, 0.05)"  /><rect x="80" y="16" width="12" height="12" rx="2" fill="rgba(59, 130, 246, 0.05)"  /><rect x="80" y="32" width="12" height="12" rx="2" fill="rgba(59, 130, 246, 0.05)"  /><rect x="80" y="48" width="12" height="12" rx="2" fill="rgba(59, 130, 246, 0.05)"  /><rect x="80" y="64" width="12" height="12" rx="2" fill="rgba(59, 130, 246, 0.05)"  /><rect x="80" y="80" width="12" height="12" rx="2" fill="rgba(59, 130, 246, 0.05)"  /><rect x="80" y="96" width="12" height="12" rx="2" fill="rgba(59, 130, 246, 0.05)"  /><rect x="96" y="0" width="12" height="12" rx="2" fill="rgba(59, 130, 246, 0.05)"  /><rect x="96" y="16" width="12" height="12" rx="2" fill="rgba(59, 130, 246, 0.05)"  /><rect x="96" y="32" width="12" height="12" rx="2" fill="rgba(59, 130, 246, 0.05)"  /><rect x="96" y="48" width="12" height="12" rx="2" fill="rgba(59, 130, 246, 0.05)"  /><rect x="96" y="64" width="12" height="12" rx="2" fill="rgba(59, 130, 246, 0.05)"  /><rect x="96" y="80" width="12" height="12" rx="2" fill="rgba(59, 130, 246, 0.05)"  /><rect x="96" y="96" width="12" height="12" rx="2" fill="rgba(59, 130, 246, 0.05)"  /><rect x="112" y="0" width="12" height="12" rx="2" fill="rgba(59, 130, 246, 0.05)"  /><rect x="112" y="16" width="12" height="12" rx="2" fill="rgba(59, 130, 246, 0.05)"  /><rect x="112" y="32" width="12" height="12" rx="2" fill="rgba(59, 130, 246, 0.9)" style="animation: shimmer 2.645398800202691s infinite" /><rect x="112" y="48" width="12" height="12" rx="2" fill="rgba(59, 130, 246, 0.05)"  /><rect x="112" y="64" width="12" height="12" rx="2" fill="rgba(59, 130, 246, 0.05)"  /><rect x="112" y="80" width="12" height="12" rx="2" fill="rgba(59, 130, 246, 0.05)"  /><rect x="112" y="96" width="12" height="12" rx="2" fill="rgba(59, 130, 246, 0.05)"  /><rect x="128" y="0" width="12" height="12" rx="2" fill="rgba(59, 130, 246, 0.05)"  /><rect x="128" y="16" width="12" height="12" rx="2" fill="rgba(59, 130, 246, 0.05)"  /><rect x="128" y="32" width="12" height="12" rx="2" fill="rgba(59, 130, 246, 0.05)"  /><rect x="128" y="48" width="12" height="12" rx="2" fill="rgba(59, 130, 246, 0.05)"  /><rect x="128" y="64" width="12" height="12" rx="2" fill="rgba(59, 130, 246, 0.05)"  /><rect x="128" y="80" width="12" height="12" rx="2" fill="rgba(59, 130, 246, 0.05)"  /><rect x="128" y="96" width="12" height="12" rx="2" fill="rgba(59, 130, 246, 0.05)"  /><rect x="144" y="0" width="12" height="12" rx="2" fill="rgba(59, 130, 246, 0.05)"  /><rect x="144" y="16" width="12" height="12" rx="2" fill="rgba(59, 130, 246, 0.05)"  /><rect x="144" y="32" width="12" height="12" rx="2" fill="rgba(59, 130, 246, 0.9)" style="animation: shimmer 2.1222607340301862s infinite" /><rect x="144" y="48" width="12" height="12" rx="2" fill="rgba(59, 130, 246, 0.05)"  /><rect x="144" y="64" width="12" height="12" rx="2" fill="rgba(59, 130, 246, 0.05)"  /><rect x="144" y="80" width="12" height="12" rx="2" fill="rgba(59, 130, 246, 0.05)"  /><rect x="144" y="96" width="12" height="12" rx="2" fill="rgba(59, 130, 246, 0.9)" style="animation: shimmer 2.9301615180207237s infinite" /><rect x="160" y="0" width="12" height="12" rx="2" fill="rgba(59, 130, 246, 0.05)"  /><rect x="160" y="16" width="12" height="12" rx="2" fill="rgba(59, 130, 246, 0.05)"  /><rect x="160" y="32" width="12" height="12" rx="2" fill="rgba(59, 130, 246, 0.05)"  /><rect x="160" y="48" width="12" height="12" rx="2" fill="rgba(59, 130, 246, 0.05)"  /><rect x="160" y="64" width="12" height="12" rx="2" fill="rgba(59, 130, 246, 0.05)"  /><rect x="160" y="80" width="12" height="12" rx="2" fill="rgba(59, 130, 246, 0.30000000000000004)"  /><rect x="160" y="96" width="12" height="12" rx="2" fill="rgba(59, 130, 246, 0.05)"  /><rect x="176" y="0" width="12" height="12" rx="2" fill="rgba(59, 130, 246, 0.05)"  /><rect x="176" y="16" width="12" height="12" rx="2" fill="rgba(59, 130, 246, 0.4)"  /><rect x="176" y="32" width="12" height="12" rx="2" fill="rgba(59, 130, 246, 0.05)"  /><rect x="176" y="48" width="12" height="12" rx="2" fill="rgba(59, 130, 246, 0.9)" style="animation: shimmer 2.172022579202041s infinite" /><rect x="176" y="64" width="12" height="12" rx="2" fill="rgba(59, 130, 246, 0.9)" style="animation: shimmer 2.7274946225417196s infinite" /><rect x="176" y="80" width="12" height="12" rx="2" fill="rgba(59, 130, 246, 0.05)"  /><rect x="176" y="96" width="12" height="12" rx="2" fill="rgba(59, 130, 246, 0.05)"  /><rect x="192" y="0" width="12" height="12" rx="2" fill="rgba(59, 130, 246, 0.05)"  /><rect x="192" y="16" width="12" height="12" rx="2" fill="rgba(59, 130, 246, 0.05)"  /><rect x="192" y="32" width="12" height="12" rx="2" fill="rgba(59, 130, 246, 0.05)"  /><rect x="192" y="48" width="12" height="12" rx="2" fill="rgba(59, 130, 246, 0.05)"  /><rect x="192" y="64" width="12" height="12" rx="2" fill="rgba(59, 130, 246, 0.05)"  /><rect x="192" y="80" width="12" height="12" rx="2" fill="rgba(59, 130, 246, 0.05)"  /><rect x="192" y="96" width="12" height="12" rx="2" fill="rgba(59, 130, 246, 0.05)"  /><rect x="208" y="0" width="12" height="12" rx="2" fill="rgba(59, 130, 246, 0.4)"  /><rect x="208" y="16" width="12" height="12" rx="2" fill="rgba(59, 130, 246, 0.30000000000000004)"  /><rect x="208" y="32" width="12" height="12" rx="2" fill="rgba(59, 130, 246, 0.9)" style="animation: shimmer 2.541439094679358s infinite" /><rect x="208" y="48" width="12" height="12" rx="2" fill="rgba(59, 130, 246, 0.05)"  /><rect x="208" y="64" width="12" height="12" rx="2" fill="rgba(59, 130, 246, 0.05)"  /><rect x="208" y="80" width="12" height="12" rx="2" fill="rgba(59, 130, 246, 0.9)" style="animation: shimmer 2.6426867256878412s infinite" /><rect x="208" y="96" width="12" height="12" rx="2" fill="rgba(59, 130, 246, 0.05)"  /><rect x="224" y="0" width="12" height="12" rx="2" fill="rgba(59, 130, 246, 0.05)"  /><rect x="224" y="16" width="12" height="12" rx="2" fill="rgba(59, 130, 246, 0.05)"  /><rect x="224" y="32" width="12" height="12" rx="2" fill="rgba(59, 130, 246, 0.05)"  /><rect x="224" y="48" width="12" height="12" rx="2" fill="rgba(59, 130, 246, 0.7)"  /><rect x="224" y="64" width="12" height="12" rx="2" fill="rgba(59, 130, 246, 0.8)" style="animation: shimmer 2.537331654658916s infinite" /><rect x="224" y="80" width="12" height="12" rx="2" fill="rgba(59, 130, 246, 0.7)"  /><rect x="224" y="96" width="12" height="12" rx="2" fill="rgba(59, 130, 246, 0.05)"  /><rect x="240" y="0" width="12" height="12" rx="2" fill="rgba(59, 130, 246, 0.9)" style="animation: shimmer 2.8891781764736377s infinite" /><rect x="240" y="16" width="12" height="12" rx="2" fill="rgba(59, 130, 246, 0.9)" style="animation: shimmer 2.965664972904244s infinite" /><rect x="240" y="32" width="12" height="12" rx="2" fill="rgba(59, 130, 246, 0.9)" style="animation: shimmer 2.86384511699805s infinite" /><rect x="240" y="48" width="12" height="12" rx="2" fill="rgba(59, 130, 246, 0.8999999999999999)" style="animation: shimmer 2.9367952257568923s infinite" /><rect x="240" y="64" width="12" height="12" rx="2" fill="rgba(59, 130, 246, 0.7)"  /><rect x="240" y="80" width="12" height="12" rx="2" fill="rgba(59, 130, 246, 0.5)"  /><rect x="240" y="96" width="12" height="12" rx="2" fill="rgba(59, 130, 246, 0.8)" style="animation: shimmer 2.139302985096485s infinite" /><rect x="256" y="0" width="12" height="12" rx="2" fill="rgba(59, 130, 246, 0.5)"  /><rect x="256" y="16" width="12" height="12" rx="2" fill="rgba(59, 130, 246, 0.4)"  /><rect x="256" y="32" width="12" height="12" rx="2" fill="rgba(59, 130, 246, 0.6000000000000001)"  /><rect x="256" y="48" width="12" height="12" rx="2" fill="rgba(59, 130, 246, 0.30000000000000004)"  /><rect x="256" y="64" width="12" height="12" rx="2" fill="rgba(59, 130, 246, 0.30000000000000004)"  /><rect x="256" y="80" width="12" height="12" rx="2" fill="rgba(59, 130, 246, 0.5)"  /><rect x="256" y="96" width="12" height="12" rx="2" fill="rgba(59, 130, 246, 0.05)"  /><rect x="272" y="0" width="12" height="12" rx="2" fill="rgba(59, 130, 246, 0.05)"  /><rect x="272" y="16" width="12" height="12" rx="2" fill="rgba(59, 130, 246, 0.05)"  /><rect x="272" y="32" width="12" height="12" rx="2" fill="rgba(59, 130, 246, 0.05)"  /><rect x="272" y="48" width="12" height="12" rx="2" fill="rgba(59, 130, 246, 0.05)"  /><rect x="272" y="64" width="12" height="12" rx="2" fill="rgba(59, 130, 246, 0.5)"  /><rect x="272" y="80" width="12" height="12" rx="2" fill="rgba(59, 130, 246, 0.9)" style="animation: shimmer 2.258551503065375s infinite" /><rect x="272" y="96" width="12" height="12" rx="2" fill="rgba(59, 130, 246, 0.9)" style="animation: shimmer 2.479017628364578s infinite" /><rect x="288" y="0" width="12" height="12" rx="2" fill="rgba(59, 130, 246, 0.8)" style="animation: shimmer 2.064532519510719s infinite" /><rect x="288" y="16" width="12" height="12" rx="2" fill="rgba(59, 130, 246, 0.9)" style="animation: shimmer 2.229557484991055s infinite" /><rect x="288" y="32" width="12" height="12" rx="2" fill="rgba(59, 130, 246, 0.5)"  /><rect x="288" y="48" width="12" height="12" rx="2" fill="rgba(59, 130, 246, 0.8999999999999999)" style="animation: shimmer 2.1740157853859596s infinite" /><rect x="288" y="64" width="12" height="12" rx="2" fill="rgba(59, 130, 246, 0.9)" style="animation: shimmer 2.690641760210541s infinite" /><rect x="288" y="80" width="12" height="12" rx="2" fill="rgba(59, 130, 246, 0.9)" style="animation: shimmer 2.8138056245096608s infinite" /><rect x="288" y="96" width="12" height="12" rx="2" fill="rgba(59, 130, 246, 0.6000000000000001)"  /><rect x="304" y="0" width="12" height="12" rx="2" fill="rgba(59, 130, 246, 0.5)"  /><rect x="304" y="16" width="12" height="12" rx="2" fill="rgba(59, 130, 246, 0.05)"  /><rect x="304" y="32" width="12" height="12" rx="2" fill="rgba(59, 130, 246, 0.4)"  /><rect x="304" y="48" width="12" height="12" rx="2" fill="rgba(59, 130, 246, 0.05)"  /><rect x="304" y="64" width="12" height="12" rx="2" fill="rgba(59, 130, 246, 0.6000000000000001)"  /><rect x="304" y="80" width="12" height="12" rx="2" fill="rgba(59, 130, 246, 0.05)"  /><rect x="304" y="96" width="12" height="12" rx="2" fill="rgba(59, 130, 246, 0.6000000000000001)"  /><rect x="320" y="0" width="12" height="12" rx="2" fill="rgba(59, 130, 246, 0.5)"  /><rect x="320" y="16" width="12" height="12" rx="2" fill="rgba(59, 130, 246, 0.05)"  /><rect x="320" y="32" width="12" height="12" rx="2" fill="rgba(59, 130, 246, 0.8)" style="animation: shimmer 2.139695738296011s infinite" /><rect x="320" y="48" width="12" height="12" rx="2" fill="rgba(59, 130, 246, 0.9)" style="animation: shimmer 2.6910518052737715s infinite" /><rect x="320" y="64" width="12" height="12" rx="2" fill="rgba(59, 130, 246, 0.6000000000000001)"  /><rect x="320" y="80" width="12" height="12" rx="2" fill="rgba(59, 130, 246, 0.05)"  /><rect x="320" y="96" width="12" height="12" rx="2" fill="rgba(59, 130, 246, 0.05)"  /><rect x="336" y="0" width="12" height="12" rx="2" fill="rgba(59, 130, 246, 0.30000000000000004)"  /><rect x="336" y="16" width="12" height="12" rx="2" fill="rgba(59, 130, 246, 0.05)"  /><rect x="336" y="32" width="12" height="12" rx="2" fill="rgba(59, 130, 246, 0.05)"  /><rect x="336" y="48" width="12" height="12" rx="2" fill="rgba(59, 130, 246, 0.05)"  /><rect x="336" y="64" width="12" height="12" rx="2" fill="rgba(59, 130, 246, 0.05)"  /><rect x="336" y="80" width="12" height="12" rx="2" fill="rgba(59, 130, 246, 0.05)"  /><rect x="336" y="96" width="12" height="12" rx="2" fill="rgba(59, 130, 246, 0.05)"  /><rect x="352" y="0" width="12" height="12" rx="2" fill="rgba(59, 130, 246, 0.4)"  /><rect x="352" y="16" width="12" height="12" rx="2" fill="rgba(59, 130, 246, 0.9)" style="animation: shimmer 2.4004973555023676s infinite" /><rect x="352" y="32" width="12" height="12" rx="2" fill="rgba(59, 130, 246, 0.8999999999999999)" style="animation: shimmer 2.278725873738086s infinite" /><rect x="352" y="48" width="12" height="12" rx="2" fill="rgba(59, 130, 246, 0.6000000000000001)"  /><rect x="352" y="64" width="12" height="12" rx="2" fill="rgba(59, 130, 246, 0.4)"  /><rect x="352" y="80" width="12" height="12" rx="2" fill="rgba(59, 130, 246, 0.6000000000000001)"  /><rect x="352" y="96" width="12" height="12" rx="2" fill="rgba(59, 130, 246, 0.30000000000000004)"  /><rect x="368" y="0" width="12" height="12" rx="2" fill="rgba(59, 130, 246, 0.4)"  /><rect x="368" y="16" width="12" height="12" rx="2" fill="rgba(59, 130, 246, 0.9)" style="animation: shimmer 2.0570322926033016s infinite" /><rect x="368" y="32" width="12" height="12" rx="2" fill="rgba(59, 130, 246, 0.9)" style="animation: shimmer 2.430646029906489s infinite" /><rect x="368" y="48" width="12" height="12" rx="2" fill="rgba(59, 130, 246, 0.05)"  /><rect x="368" y="64" width="12" height="12" rx="2" fill="rgba(59, 130, 246, 0.4)"  /><rect x="368" y="80" width="12" height="12" rx="2" fill="rgba(59, 130, 246, 0.8)" style="animation: shimmer 2.6966366261914305s infinite" /><rect x="368" y="96" width="12" height="12" rx="2" fill="rgba(59, 130, 246, 0.30000000000000004)"  /><rect x="384" y="0" width="12" height="12" rx="2" fill="rgba(59, 130, 246, 0.5)"  /><rect x="384" y="16" width="12" height="12" rx="2" fill="rgba(59, 130, 246, 0.9)" style="animation: shimmer 2.0066436166305905s infinite" /><rect x="384" y="32" width="12" height="12" rx="2" fill="rgba(59, 130, 246, 0.9)" style="animation: shimmer 2.727048275438182s infinite" /><rect x="384" y="48" width="12" height="12" rx="2" fill="rgba(59, 130, 246, 0.9)" style="animation: shimmer 2.462691499670812s infinite" /><rect x="384" y="64" width="12" height="12" rx="2" fill="rgba(59, 130, 246, 0.4)"  /><rect x="384" y="80" width="12" height="12" rx="2" fill="rgba(59, 130, 246, 0.9)" style="animation: shimmer 2.7274284025987914s infinite" /><rect x="384" y="96" width="12" height="12" rx="2" fill="rgba(59, 130, 246, 0.9)" style="animation: shimmer 2.6445175859646315s infinite" /><rect x="400" y="0" width="12" height="12" rx="2" fill="rgba(59, 130, 246, 0.9)" style="animation: shimmer 2.65068028015929s infinite" /><rect x="400" y="16" width="12" height="12" rx="2" fill="rgba(59, 130, 246, 0.9)" style="animation: shimmer 2.6289597858574765s infinite" /><rect x="400" y="32" width="12" height="12" rx="2" fill="rgba(59, 130, 246, 0.9)" style="animation: shimmer 2.1909918834981332s infinite" /><rect x="400" y="48" width="12" height="12" rx="2" fill="rgba(59, 130, 246, 0.9)" style="animation: shimmer 2.6103752163746368s infinite" /><rect x="400" y="64" width="12" height="12" rx="2" fill="rgba(59, 130, 246, 0.9)" style="animation: shimmer 2.634065042943646s infinite" /><rect x="400" y="80" width="12" height="12" rx="2" fill="rgba(59, 130, 246, 0.9)" style="animation: shimmer 2.5814525354766125s infinite" /><rect x="400" y="96" width="12" height="12" rx="2" fill="rgba(59, 130, 246, 0.9)" style="animation: shimmer 2.7826965148483356s infinite" /><rect x="416" y="0" width="12" height="12" rx="2" fill="rgba(59, 130, 246, 0.9)" style="animation: shimmer 2.8056683801924716s infinite" /><rect x="416" y="16" width="12" height="12" rx="2" fill="rgba(59, 130, 246, 0.9)" style="animation: shimmer 2.26920393461028s infinite" /><rect x="416" y="32" width="12" height="12" rx="2" fill="rgba(59, 130, 246, 0.8999999999999999)" style="animation: shimmer 2.68070537856367s infinite" /><rect x="416" y="48" width="12" height="12" rx="2" fill="rgba(59, 130, 246, 0.9)" style="animation: shimmer 2.6274885966168586s infinite" /><rect x="416" y="64" width="12" height="12" rx="2" fill="rgba(59, 130, 246, 0.9)" style="animation: shimmer 2.346099900948517s infinite" /><rect x="416" y="80" width="12" height="12" rx="2" fill="rgba(59, 130, 246, 0.9)" style="animation: shimmer 2.9282062613439117s infinite" /><rect x="416" y="96" width="12" height="12" rx="2" fill="rgba(59, 130, 246, 0.4)"  /><rect x="432" y="0" width="12" height="12" rx="2" fill="rgba(59, 130, 246, 0.8999999999999999)" style="animation: shimmer 2.2180607210106533s infinite" /><rect x="432" y="16" width="12" height="12" rx="2" fill="rgba(59, 130, 246, 0.9)" style="animation: shimmer 2.7537263008087254s infinite" /><rect x="432" y="32" width="12" height="12" rx="2" fill="rgba(59, 130, 246, 0.9)" style="animation: shimmer 2.6411917796520594s infinite" /><rect x="432" y="48" width="12" height="12" rx="2" fill="rgba(59, 130, 246, 0.9)" style="animation: shimmer 2.412940791801365s infinite" /><rect x="432" y="64" width="12" height="12" rx="2" fill="rgba(59, 130, 246, 0.9)" style="animation: shimmer 2.279131250752155s infinite" /><rect x="432" y="80" width="12" height="12" rx="2" fill="rgba(59, 130, 246, 0.9)" style="animation: shimmer 2.4495332395266156s infinite" /><rect x="432" y="96" width="12" height="12" rx="2" fill="rgba(59, 130, 246, 0.9)" style="animation: shimmer 2.618706997914584s infinite" /><rect x="448" y="0" width="12" height="12" rx="2" fill="rgba(59, 130, 246, 0.5)"  /><rect x="448" y="16" width="12" height="12" rx="2" fill="rgba(59, 130, 246, 0.05)"  /><rect x="448" y="32" width="12" height="12" rx="2" fill="rgba(59, 130, 246, 0.8)" style="animation: shimmer 2.7859920861581973s infinite" /><rect x="448" y="48" width="12" height="12" rx="2" fill="rgba(59, 130, 246, 0.9)" style="animation: shimmer 2.5687764587379145s infinite" /><rect x="448" y="64" width="12" height="12" rx="2" fill="rgba(59, 130, 246, 0.9)" style="animation: shimmer 2.2729906162867s infinite" /><rect x="448" y="80" width="12" height="12" rx="2" fill="rgba(59, 130, 246, 0.05)"  /><rect x="448" y="96" width="12" height="12" rx="2" fill="rgba(59, 130, 246, 0.05)"  /><rect x="464" y="0" width="12" height="12" rx="2" fill="rgba(59, 130, 246, 0.05)"  /><rect x="464" y="16" width="12" height="12" rx="2" fill="rgba(59, 130, 246, 0.9)" style="animation: shimmer 2.9485081639121096s infinite" /><rect x="464" y="32" width="12" height="12" rx="2" fill="rgba(59, 130, 246, 0.9)" style="animation: shimmer 2.3771604966903483s infinite" /><rect x="464" y="48" width="12" height="12" rx="2" fill="rgba(59, 130, 246, 0.7)"  /><rect x="464" y="64" width="12" height="12" rx="2" fill="rgba(59, 130, 246, 0.9)" style="animation: shimmer 2.500535226270963s infinite" /><rect x="464" y="80" width="12" height="12" rx="2" fill="rgba(59, 130, 246, 0.9)" style="animation: shimmer 2.560655943782179s infinite" /><rect x="464" y="96" width="12" height="12" rx="2" fill="rgba(59, 130, 246, 0.7)"  /><rect x="480" y="0" width="12" height="12" rx="2" fill="rgba(59, 130, 246, 0.05)"  /><rect x="480" y="16" width="12" height="12" rx="2" fill="rgba(59, 130, 246, 0.7)"  /><rect x="480" y="32" width="12" height="12" rx="2" fill="rgba(59, 130, 246, 0.9)" style="animation: shimmer 2.7701758777969765s infinite" /><rect x="480" y="48" width="12" height="12" rx="2" fill="rgba(59, 130, 246, 0.9)" style="animation: shimmer 2.144557042815518s infinite" /><rect x="480" y="64" width="12" height="12" rx="2" fill="rgba(59, 130, 246, 0.05)"  /><rect x="480" y="80" width="12" height="12" rx="2" fill="rgba(59, 130, 246, 0.9)" style="animation: shimmer 2.6578010416619464s infinite" /><rect x="480" y="96" width="12" height="12" rx="2" fill="rgba(59, 130, 246, 0.9)" style="animation: shimmer 2.597828037931675s infinite" /><rect x="496" y="0" width="12" height="12" rx="2" fill="rgba(59, 130, 246, 0.9)" style="animation: shimmer 2.855129982434174s infinite" /><rect x="496" y="16" width="12" height="12" rx="2" fill="rgba(59, 130, 246, 0.6000000000000001)"  /><rect x="496" y="32" width="12" height="12" rx="2" fill="rgba(59, 130, 246, 0.9)" style="animation: shimmer 2.198253989677518s infinite" /><rect x="496" y="48" width="12" height="12" rx="2" fill="rgba(59, 130, 246, 0.7)"  /><rect x="496" y="64" width="12" height="12" rx="2" fill="rgba(59, 130, 246, 0.4)"  /><rect x="496" y="80" width="12" height="12" rx="2" fill="rgba(59, 130, 246, 0.05)"  /><rect x="496" y="96" width="12" height="12" rx="2" fill="rgba(59, 130, 246, 0.9)" style="animation: shimmer 2.560753324180265s infinite" /><rect x="512" y="0" width="12" height="12" rx="2" fill="rgba(59, 130, 246, 0.05)"  /><rect x="512" y="16" width="12" height="12" rx="2" fill="rgba(59, 130, 246, 0.30000000000000004)"  /><rect x="512" y="32" width="12" height="12" rx="2" fill="rgba(59, 130, 246, 0.05)"  /><rect x="512" y="48" width="12" height="12" rx="2" fill="rgba(59, 130, 246, 0.05)"  /><rect x="512" y="64" width="12" height="12" rx="2" fill="rgba(59, 130, 246, 0.05)"  /><rect x="512" y="80" width="12" height="12" rx="2" fill="rgba(59, 130, 246, 0.05)"  /><rect x="512" y="96" width="12" height="12" rx="2" fill="rgba(59, 130, 246, 0.05)"  /><rect x="528" y="0" width="12" height="12" rx="2" fill="rgba(59, 130, 246, 0.7)"  /><rect x="528" y="16" width="12" height="12" rx="2" fill="rgba(59, 130, 246, 0.4)"  /><rect x="528" y="32" width="12" height="12" rx="2" fill="rgba(59, 130, 246, 0.05)"  /><rect x="528" y="48" width="12" height="12" rx="2" fill="rgba(59, 130, 246, 0.30000000000000004)"  /><rect x="528" y="64" width="12" height="12" rx="2" fill="rgba(59, 130, 246, 0.05)"  /><rect x="528" y="80" width="12" height="12" rx="2" fill="rgba(59, 130, 246, 0.05)"  /><rect x="528" y="96" width="12" height="12" rx="2" fill="rgba(59, 130, 246, 0.05)"  /><rect x="544" y="0" width="12" height="12" rx="2" fill="rgba(59, 130, 246, 0.6000000000000001)"  /><rect x="544" y="16" width="12" height="12" rx="2" fill="rgba(59, 130, 246, 0.05)"  /><rect x="544" y="32" width="12" height="12" rx="2" fill="rgba(59, 130, 246, 0.05)"  /><rect x="544" y="48" width="12" height="12" rx="2" fill="rgba(59, 130, 246, 0.05)"  /><rect x="544" y="64" width="12" height="12" rx="2" fill="rgba(59, 130, 246, 0.9)" style="animation: shimmer 2.344042835985385s infinite" /><rect x="544" y="80" width="12" height="12" rx="2" fill="rgba(59, 130, 246, 0.9)" style="animation: shimmer 2.4597713563734014s infinite" /><rect x="544" y="96" width="12" height="12" rx="2" fill="rgba(59, 130, 246, 0.9)" style="animation: shimmer 2.6029343888043694s infinite" /><rect x="560" y="0" width="12" height="12" rx="2" fill="rgba(59, 130, 246, 0.9)" style="animation: shimmer 2.9121323820203227s infinite" /><rect x="560" y="16" width="12" height="12" rx="2" fill="rgba(59, 130, 246, 0.9)" style="animation: shimmer 2.0150216909616114s infinite" /><rect x="560" y="32" width="12" height="12" rx="2" fill="rgba(59, 130, 246, 0.8)" style="animation: shimmer 2.1063351208950163s infinite" /><rect x="560" y="48" width="12" height="12" rx="2" fill="rgba(59, 130, 246, 0.5)"  /><rect x="560" y="64" width="12" height="12" rx="2" fill="rgba(59, 130, 246, 0.9)" style="animation: shimmer 2.7315346730210814s infinite" /><rect x="560" y="80" width="12" height="12" rx="2" fill="rgba(59, 130, 246, 0.9)" style="animation: shimmer 2.4572925062914317s infinite" /><rect x="560" y="96" width="12" height="12" rx="2" fill="rgba(59, 130, 246, 0.9)" style="animation: shimmer 2.0803152088563603s infinite" /><rect x="576" y="0" width="12" height="12" rx="2" fill="rgba(59, 130, 246, 0.05)"  /><rect x="576" y="16" width="12" height="12" rx="2" fill="rgba(59, 130, 246, 0.9)" style="animation: shimmer 2.69446015086159s infinite" /><rect x="576" y="32" width="12" height="12" rx="2" fill="rgba(59, 130, 246, 0.9)" style="animation: shimmer 2.296405884663875s infinite" /><rect x="576" y="48" width="12" height="12" rx="2" fill="rgba(59, 130, 246, 0.9)" style="animation: shimmer 2.002745554101279s infinite" /><rect x="576" y="64" width="12" height="12" rx="2" fill="rgba(59, 130, 246, 0.9)" style="animation: shimmer 2.9414026500761157s infinite" /><rect x="576" y="80" width="12" height="12" rx="2" fill="rgba(59, 130, 246, 0.9)" style="animation: shimmer 2.3116361057394563s infinite" /><rect x="576" y="96" width="12" height="12" rx="2" fill="rgba(59, 130, 246, 0.9)" style="animation: shimmer 2.1722312333158067s infinite" /><rect x="592" y="0" width="12" height="12" rx="2" fill="rgba(59, 130, 246, 0.9)" style="animation: shimmer 2.9725506433660605s infinite" /><rect x="592" y="16" width="12" height="12" rx="2" fill="rgba(59, 130, 246, 0.9)" style="animation: shimmer 2.4807795523083698s infinite" /><rect x="592" y="32" width="12" height="12" rx="2" fill="rgba(59, 130, 246, 0.9)" style="animation: shimmer 2.3660831051725637s infinite" /><rect x="592" y="48" width="12" height="12" rx="2" fill="rgba(59, 130, 246, 0.9)" style="animation: shimmer 2.949146310411623s infinite" /><rect x="592" y="64" width="12" height="12" rx="2" fill="rgba(59, 130, 246, 0.30000000000000004)"  /><rect x="592" y="80" width="12" height="12" rx="2" fill="rgba(59, 130, 246, 0.9)" style="animation: shimmer 2.051895151880804s infinite" /><rect x="592" y="96" width="12" height="12" rx="2" fill="rgba(59, 130, 246, 0.30000000000000004)"  /><rect x="608" y="0" width="12" height="12" rx="2" fill="rgba(59, 130, 246, 0.05)"  /><rect x="608" y="16" width="12" height="12" rx="2" fill="rgba(59, 130, 246, 0.7)"  /><rect x="608" y="32" width="12" height="12" rx="2" fill="rgba(59, 130, 246, 0.9)" style="animation: shimmer 2.69008433889793s infinite" /><rect x="608" y="48" width="12" height="12" rx="2" fill="rgba(59, 130, 246, 0.9)" style="animation: shimmer 2.811372613005646s infinite" /><rect x="608" y="64" width="12" height="12" rx="2" fill="rgba(59, 130, 246, 0.30000000000000004)"  /><rect x="608" y="80" width="12" height="12" rx="2" fill="rgba(59, 130, 246, 0.4)"  /><rect x="608" y="96" width="12" height="12" rx="2" fill="rgba(59, 130, 246, 0.8)" style="animation: shimmer 2.125219752579819s infinite" /><rect x="624" y="0" width="12" height="12" rx="2" fill="rgba(59, 130, 246, 0.9)" style="animation: shimmer 2.5223048869223765s infinite" /><rect x="624" y="16" width="12" height="12" rx="2" fill="rgba(59, 130, 246, 0.9)" style="animation: shimmer 2.314350116547095s infinite" /><rect x="624" y="32" width="12" height="12" rx="2" fill="rgba(59, 130, 246, 0.9)" style="animation: shimmer 2.7224805590943166s infinite" /><rect x="624" y="48" width="12" height="12" rx="2" fill="rgba(59, 130, 246, 0.9)" style="animation: shimmer 2.315275848093946s infinite" /><rect x="624" y="64" width="12" height="12" rx="2" fill="rgba(59, 130, 246, 0.9)" style="animation: shimmer 2.3879277444142106s infinite" /><rect x="624" y="80" width="12" height="12" rx="2" fill="rgba(59, 130, 246, 0.9)" style="animation: shimmer 2.576813528218263s infinite" /><rect x="624" y="96" width="12" height="12" rx="2" fill="rgba(59, 130, 246, 0.9)" style="animation: shimmer 2.4113123727321337s infinite" /><rect x="640" y="0" width="12" height="12" rx="2" fill="rgba(59, 130, 246, 0.9)" style="animation: shimmer 2.4447901120814817s infinite" /><rect x="640" y="16" width="12" height="12" rx="2" fill="rgba(59, 130, 246, 0.9)" style="animation: shimmer 2.2839323974962644s infinite" /><rect x="640" y="32" width="12" height="12" rx="2" fill="rgba(59, 130, 246, 0.05)"  /><rect x="640" y="48" width="12" height="12" rx="2" fill="rgba(59, 130, 246, 0.4)"  /><rect x="640" y="64" width="12" height="12" rx="2" fill="rgba(59, 130, 246, 0.9)" style="animation: shimmer 2.957163037858139s infinite" /><rect x="640" y="80" width="12" height="12" rx="2" fill="rgba(59, 130, 246, 0.9)" style="animation: shimmer 2.2603571233474358s infinite" /><rect x="640" y="96" width="12" height="12" rx="2" fill="rgba(59, 130, 246, 0.8)" style="animation: shimmer 2.792010388643231s infinite" /><rect x="656" y="0" width="12" height="12" rx="2" fill="rgba(59, 130, 246, 0.8999999999999999)" style="animation: shimmer 2.6178652891861853s infinite" /><rect x="656" y="16" width="12" height="12" rx="2" fill="rgba(59, 130, 246, 0.9)" style="animation: shimmer 2.1402505320059655s infinite" /><rect x="656" y="32" width="12" height="12" rx="2" fill="rgba(59, 130, 246, 0.05)"  /><rect x="656" y="48" width="12" height="12" rx="2" fill="rgba(59, 130, 246, 0.8)" style="animation: shimmer 2.732785133946536s infinite" /><rect x="656" y="64" width="12" height="12" rx="2" fill="rgba(59, 130, 246, 0.05)"  /><rect x="656" y="80" width="12" height="12" rx="2" fill="rgba(59, 130, 246, 0.30000000000000004)"  /><rect x="656" y="96" width="12" height="12" rx="2" fill="rgba(59, 130, 246, 0.9)" style="animation: shimmer 2.337801654124571s infinite" /><rect x="672" y="0" width="12" height="12" rx="2" fill="rgba(59, 130, 246, 0.30000000000000004)"  /><rect x="672" y="16" width="12" height="12" rx="2" fill="rgba(59, 130, 246, 0.05)"  /><rect x="672" y="32" width="12" height="12" rx="2" fill="rgba(59, 130, 246, 0.05)"  /><rect x="672" y="48" width="12" height="12" rx="2" fill="rgba(59, 130, 246, 0.05)"  /><rect x="672" y="64" width="12" height="12" rx="2" fill="rgba(59, 130, 246, 0.05)"  /><rect x="672" y="80" width="12" height="12" rx="2" fill="rgba(59, 130, 246, 0.05)"  /><rect x="672" y="96" width="12" height="12" rx="2" fill="rgba(59, 130, 246, 0.05)"  /><rect x="688" y="0" width="12" height="12" rx="2" fill="rgba(59, 130, 246, 0.9)" style="animation: shimmer 2.329574421867706s infinite" /><rect x="688" y="16" width="12" height="12" rx="2" fill="rgba(59, 130, 246, 0.05)"  /><rect x="688" y="32" width="12" height="12" rx="2" fill="rgba(59, 130, 246, 0.05)"  /><rect x="688" y="48" width="12" height="12" rx="2" fill="rgba(59, 130, 246, 0.05)"  /><rect x="688" y="64" width="12" height="12" rx="2" fill="rgba(59, 130, 246, 0.8999999999999999)" style="animation: shimmer 2.026870679688367s infinite" /><rect x="688" y="80" width="12" height="12" rx="2" fill="rgba(59, 130, 246, 0.4)"  /><rect x="688" y="96" width="12" height="12" rx="2" fill="rgba(59, 130, 246, 0.05)"  />
      </g>
    </g>
  
      <g transform="translate(60, 640)">
    <text x="0" y="0" class="font-sans" font-weight="700" font-size="18" fill="#f3f4f6">Top Works</text>
  
      <g transform="translate(0, 30)">
        <rect width="355" height="130" rx="20" fill="rgba(17, 24, 39, 0.7)" stroke="rgba(59, 130, 246, 0.3)" stroke-width="1" />
        <text x="20" y="35" class="font-mono" font-weight="700" font-size="16" fill="#f3f4f6">altus-ui</text>
        <text x="20" y="65" class="font-sans" font-size="13" fill="#9ca3af" width="310">Multi Themed UI component library. Built for performance ...</text>
        <g transform="translate(20, 100)">
          <circle cx="6" cy="-4" r="5" fill="#3178c6" filter="url(#glow)" />
          <text x="18" y="0" class="font-sans" font-size="12" fill="#9ca3af">TypeScript</text>
          <text x="280" y="0" class="font-mono" font-size="12" fill="#06b6d4">★ 3</text>
        </g>
      </g>
    
      <g transform="translate(375, 30)">
        <rect width="355" height="130" rx="20" fill="rgba(17, 24, 39, 0.7)" stroke="rgba(59, 130, 246, 0.3)" stroke-width="1" />
        <text x="20" y="35" class="font-mono" font-weight="700" font-size="16" fill="#f3f4f6">Portel</text>
        <text x="20" y="65" class="font-sans" font-size="13" fill="#9ca3af" width="310">Host you&apos;re very own website inside a minecraft server fo...</text>
        <g transform="translate(20, 100)">
          <circle cx="6" cy="-4" r="5" fill="#b07219" filter="url(#glow)" />
          <text x="18" y="0" class="font-sans" font-size="12" fill="#9ca3af">Java</text>
          <text x="280" y="0" class="font-mono" font-size="12" fill="#06b6d4">★ 2</text>
        </g>
      </g>
    
      <g transform="translate(0, 180)">
        <rect width="355" height="130" rx="20" fill="rgba(17, 24, 39, 0.7)" stroke="rgba(59, 130, 246, 0.3)" stroke-width="1" />
        <text x="20" y="35" class="font-mono" font-weight="700" font-size="16" fill="#f3f4f6">RTP</text>
        <text x="20" y="65" class="font-sans" font-size="13" fill="#9ca3af" width="310">Random Teleport plugin updated for modern Paper servers</text>
        <g transform="translate(20, 100)">
          <circle cx="6" cy="-4" r="5" fill="#b07219" filter="url(#glow)" />
          <text x="18" y="0" class="font-sans" font-size="12" fill="#9ca3af">Java</text>
          <text x="280" y="0" class="font-mono" font-size="12" fill="#06b6d4">★ 1</text>
        </g>
      </g>
    
      <g transform="translate(375, 180)">
        <rect width="355" height="130" rx="20" fill="rgba(17, 24, 39, 0.7)" stroke="rgba(59, 130, 246, 0.3)" stroke-width="1" />
        <text x="20" y="35" class="font-mono" font-weight="700" font-size="16" fill="#f3f4f6">Sublet</text>
        <text x="20" y="65" class="font-sans" font-size="13" fill="#9ca3af" width="310">Create, Manage, Run multiple independent Minecraft sub/mi...</text>
        <g transform="translate(20, 100)">
          <circle cx="6" cy="-4" r="5" fill="#b07219" filter="url(#glow)" />
          <text x="18" y="0" class="font-sans" font-size="12" fill="#9ca3af">Java</text>
          <text x="280" y="0" class="font-mono" font-size="12" fill="#06b6d4">★ 1</text>
        </g>
      </g>
    </g>
      <g transform="translate(60, 1000)">
    <text x="0" y="0" class="font-sans" font-weight="700" font-size="18" fill="#f3f4f6">My Best Tools</text>
    <g transform="translate(0, 30)">
  
      <g transform="translate(0, 0)">
        <rect width="230" height="50" rx="12" fill="rgba(17, 24, 39, 0.7)" stroke="rgba(59, 130, 246, 0.3)" stroke-width="1" />
        <circle cx="25" cy="25" r="8" fill="none" stroke="#dea584" stroke-width="1.5" stroke-dasharray="10 5" opacity="0.6">
          <animateTransform attributeName="transform" type="rotate" from="0 25 25" to="360 25 25" dur="4s" repeatCount="indefinite" />
        </circle>
        <circle cx="25" cy="25" r="3" fill="#dea584" filter="url(#glow)" />
        <text x="45" y="30" class="font-mono" font-weight="700" font-size="13" fill="#f3f4f6" letter-spacing="1px">RUST</text>
      </g>
    
      <g transform="translate(250, 0)">
        <rect width="230" height="50" rx="12" fill="rgba(17, 24, 39, 0.7)" stroke="rgba(59, 130, 246, 0.3)" stroke-width="1" />
        <circle cx="25" cy="25" r="8" fill="none" stroke="#f9e2af" stroke-width="1.5" stroke-dasharray="10 5" opacity="0.6">
          <animateTransform attributeName="transform" type="rotate" from="0 25 25" to="360 25 25" dur="4s" repeatCount="indefinite" />
        </circle>
        <circle cx="25" cy="25" r="3" fill="#f9e2af" filter="url(#glow)" />
        <text x="45" y="30" class="font-mono" font-weight="700" font-size="13" fill="#f3f4f6" letter-spacing="1px">BUN</text>
      </g>
    
      <g transform="translate(500, 0)">
        <rect width="230" height="50" rx="12" fill="rgba(17, 24, 39, 0.7)" stroke="rgba(59, 130, 246, 0.3)" stroke-width="1" />
        <circle cx="25" cy="25" r="8" fill="none" stroke="#24c8db" stroke-width="1.5" stroke-dasharray="10 5" opacity="0.6">
          <animateTransform attributeName="transform" type="rotate" from="0 25 25" to="360 25 25" dur="4s" repeatCount="indefinite" />
        </circle>
        <circle cx="25" cy="25" r="3" fill="#24c8db" filter="url(#glow)" />
        <text x="45" y="30" class="font-mono" font-weight="700" font-size="13" fill="#f3f4f6" letter-spacing="1px">TAURI</text>
      </g>
    
      <g transform="translate(0, 70)">
        <rect width="230" height="50" rx="12" fill="rgba(17, 24, 39, 0.7)" stroke="rgba(59, 130, 246, 0.3)" stroke-width="1" />
        <circle cx="25" cy="25" r="8" fill="none" stroke="#00ADD8" stroke-width="1.5" stroke-dasharray="10 5" opacity="0.6">
          <animateTransform attributeName="transform" type="rotate" from="0 25 25" to="360 25 25" dur="4s" repeatCount="indefinite" />
        </circle>
        <circle cx="25" cy="25" r="3" fill="#00ADD8" filter="url(#glow)" />
        <text x="45" y="30" class="font-mono" font-weight="700" font-size="13" fill="#f3f4f6" letter-spacing="1px">GO</text>
      </g>
    
      <g transform="translate(250, 70)">
        <rect width="230" height="50" rx="12" fill="rgba(17, 24, 39, 0.7)" stroke="rgba(59, 130, 246, 0.3)" stroke-width="1" />
        <circle cx="25" cy="25" r="8" fill="none" stroke="#3178c6" stroke-width="1.5" stroke-dasharray="10 5" opacity="0.6">
          <animateTransform attributeName="transform" type="rotate" from="0 25 25" to="360 25 25" dur="4s" repeatCount="indefinite" />
        </circle>
        <circle cx="25" cy="25" r="3" fill="#3178c6" filter="url(#glow)" />
        <text x="45" y="30" class="font-mono" font-weight="700" font-size="13" fill="#f3f4f6" letter-spacing="1px">TYPESCRIPT</text>
      </g>
    
      <g transform="translate(500, 70)">
        <rect width="230" height="50" rx="12" fill="rgba(17, 24, 39, 0.7)" stroke="rgba(59, 130, 246, 0.3)" stroke-width="1" />
        <circle cx="25" cy="25" r="8" fill="none" stroke="#ffffff" stroke-width="1.5" stroke-dasharray="10 5" opacity="0.6">
          <animateTransform attributeName="transform" type="rotate" from="0 25 25" to="360 25 25" dur="4s" repeatCount="indefinite" />
        </circle>
        <circle cx="25" cy="25" r="3" fill="#ffffff" filter="url(#glow)" />
        <text x="45" y="30" class="font-mono" font-weight="700" font-size="13" fill="#f3f4f6" letter-spacing="1px">NEXT.JS</text>
      </g>
    </g></g>
      
    <g transform="translate(60, 1250)">
      <text class="font-mono" font-size="14" fill="#f3f4f6" opacity="0.7">Discord: v_late</text>
      <text x="180" y="0" class="font-mono" font-size="14" fill="#f3f4f6" opacity="0.7">Insta: jk_nan_</text>
      <text x="480" y="0" class="font-mono" font-size="12" fill="#06b6d4" opacity="0.6">Let's build something together.</text>
    </g>
  
    </svg>
  