
    <svg width="850" height="1350" viewBox="0 0 850 1350" xmlns="http://www.w3.org/2000/svg">
      
    <defs>
      <filter id="glassBlur" x="-20%" y="-20%" width="140%" height="140%">
        <feGaussianBlur in="SourceGraphic" stdDeviation="10" />
      </filter>
      <filter id="glow" x="-20%" y="-20%" width="140%" height="140%">
        <feGaussianBlur stdDeviation="5" result="blur" />
        <feComposite in="SourceGraphic" in2="blur" operator="over" />
      </filter>
      <linearGradient id="glassGrad" x1="0%" y1="0%" x2="100%" y2="100%">
        <stop offset="0%" stop-color="rgba(59, 130, 246, 0.1)" />
        <stop offset="100%" stop-color="rgba(59, 130, 246, 0.02)" />
      </linearGradient>
      <pattern id="grid" width="40" height="40" patternUnits="userSpaceOnUse">
        <path d="M 40 0 L 0 0 0 40" fill="none" stroke="rgba(59, 130, 246, 0.1)" stroke-width="1"/>
      </pattern>
      
      <style>
        @keyframes scanline {
          0% { transform: translateY(-100px); opacity: 0; }
          10% { opacity: 0.5; }
          90% { opacity: 0.5; }
          100% { transform: translateY(1350px); opacity: 0; }
        }
        @keyframes pulse {
          0%, 100% { opacity: 0.4; }
          50% { opacity: 1; }
        }
        @keyframes flicker {
          0%, 19.999%, 22%, 62.999%, 64%, 64.999%, 70%, 100% { opacity: 1; }
          20%, 21.999%, 63%, 63.999%, 65%, 69.999% { opacity: 0.4; }
        }
        @keyframes dataFlow {
          0% { stroke-dashoffset: 100; }
          100% { stroke-dashoffset: 0; }
        }
        @keyframes shimmer {
          0% { fill-opacity: 0.3; }
          50% { fill-opacity: 0.9; }
          100% { fill-opacity: 0.3; }
        }
        .font-mono { font-family: 'JetBrains Mono', 'Fira Code', monospace; }
        .font-sans { font-family: 'Inter', system-ui, sans-serif; }
      </style>
    </defs>
  
      
    <rect width="850" height="1350" fill="#030712" rx="24" />
    <rect width="850" height="1350" fill="url(#grid)" rx="24" />
    <rect width="850" height="100" fill="url(#glassGrad)" style="animation: scanline 8s linear infinite;">
      <animate attributeName="opacity" values="0;0.5;0" dur="8s" repeatCount="indefinite" />
    </rect>
  
      
    <g opacity="0.2" stroke="#3b82f6" stroke-width="1" fill="none">
      <path d="M 790 150 L 790 1200 L 750 1200" stroke-dasharray="5 5" style="animation: dataFlow 10s linear infinite;" />
      <path d="M 60 1200 L 20 1200 L 20 150" stroke-dasharray="5 5" style="animation: dataFlow 10s linear reverse infinite;" />
    </g>
  
      
    <g transform="translate(60, 80)">
      <text class="font-sans" font-weight="900" font-size="72" fill="#f3f4f6" letter-spacing="-3px">Qclid</text>
      <text x="5" y="45" class="font-sans" font-weight="500" font-size="20" fill="#06b6d4" opacity="0.8">always open to collab // building cool things</text>
      <line x1="0" y1="70" x2="730" y2="70" stroke="rgba(59, 130, 246, 0.3)" stroke-width="1" stroke-dasharray="4 4" />
    </g>
  
      <g transform="translate(60, 220)">
      <g transform="translate(0, 0)">
        <rect width="170" height="100" rx="16" fill="rgba(17, 24, 39, 0.7)" stroke="rgba(59, 130, 246, 0.3)" stroke-width="1" />
        <text x="20" y="40" class="font-sans" font-weight="600" font-size="12" fill="#3b82f6" letter-spacing="2px" opacity="0.7">STARS</text>
        <text x="20" y="75" class="font-mono" font-weight="800" font-size="32" fill="#f3f4f6" style="animation: flicker 2s infinite;">8</text>
        <circle cx="145" cy="25" r="3" fill="#06b6d4" style="animation: pulse 2s infinite;" />
      </g>
    
      <g transform="translate(190, 0)">
        <rect width="170" height="100" rx="16" fill="rgba(17, 24, 39, 0.7)" stroke="rgba(59, 130, 246, 0.3)" stroke-width="1" />
        <text x="20" y="40" class="font-sans" font-weight="600" font-size="12" fill="#3b82f6" letter-spacing="2px" opacity="0.7">COMMITS</text>
        <text x="20" y="75" class="font-mono" font-weight="800" font-size="32" fill="#f3f4f6" style="animation: flicker 3s infinite;">1952</text>
        <circle cx="145" cy="25" r="3" fill="#06b6d4" style="animation: pulse 2s infinite;" />
      </g>
    
      <g transform="translate(380, 0)">
        <rect width="170" height="100" rx="16" fill="rgba(17, 24, 39, 0.7)" stroke="rgba(59, 130, 246, 0.3)" stroke-width="1" />
        <text x="20" y="40" class="font-sans" font-weight="600" font-size="12" fill="#3b82f6" letter-spacing="2px" opacity="0.7">PRs</text>
        <text x="20" y="75" class="font-mono" font-weight="800" font-size="32" fill="#f3f4f6" style="animation: flicker 4s infinite;">4</text>
        <circle cx="145" cy="25" r="3" fill="#06b6d4" style="animation: pulse 2s infinite;" />
      </g>
    
      <g transform="translate(570, 0)">
        <rect width="170" height="100" rx="16" fill="rgba(17, 24, 39, 0.7)" stroke="rgba(59, 130, 246, 0.3)" stroke-width="1" />
        <text x="20" y="40" class="font-sans" font-weight="600" font-size="12" fill="#3b82f6" letter-spacing="2px" opacity="0.7">REPOS</text>
        <text x="20" y="75" class="font-mono" font-weight="800" font-size="32" fill="#f3f4f6" style="animation: flicker 5s infinite;">42</text>
        <circle cx="145" cy="25" r="3" fill="#06b6d4" style="animation: pulse 2s infinite;" />
      </g>
    </g>
      
    <g transform="translate(60, 380)">
      <rect width="730" height="200" rx="20" fill="rgba(17, 24, 39, 0.7)" stroke="rgba(59, 130, 246, 0.3)" stroke-width="1" />
      <text x="25" y="35" class="font-sans" font-weight="700" font-size="18" fill="#f3f4f6">My Activity</text>
      <g transform="translate(15, 65)">
        <rect x="0" y="0" width="12" height="12" rx="2" fill="rgba(59, 130, 246, 0.05)"  /><rect x="0" y="16" width="12" height="12" rx="2" fill="rgba(59, 130, 246, 0.4)"  /><rect x="0" y="32" width="12" height="12" rx="2" fill="rgba(59, 130, 246, 0.05)"  /><rect x="0" y="48" width="12" height="12" rx="2" fill="rgba(59, 130, 246, 0.9)" style="animation: shimmer 2.779960308348894s infinite" /><rect x="0" y="64" width="12" height="12" rx="2" fill="rgba(59, 130, 246, 0.9)" style="animation: shimmer 2.553032184676796s infinite" /><rect x="0" y="80" width="12" height="12" rx="2" fill="rgba(59, 130, 246, 0.05)"  /><rect x="0" y="96" width="12" height="12" rx="2" fill="rgba(59, 130, 246, 0.05)"  /><rect x="16" y="0" width="12" height="12" rx="2" fill="rgba(59, 130, 246, 0.05)"  /><rect x="16" y="16" width="12" height="12" rx="2" fill="rgba(59, 130, 246, 0.05)"  /><rect x="16" y="32" width="12" height="12" rx="2" fill="rgba(59, 130, 246, 0.05)"  /><rect x="16" y="48" width="12" height="12" rx="2" fill="rgba(59, 130, 246, 0.05)"  /><rect x="16" y="64" width="12" height="12" rx="2" fill="rgba(59, 130, 246, 0.05)"  /><rect x="16" y="80" width="12" height="12" rx="2" fill="rgba(59, 130, 246, 0.05)"  /><rect x="16" y="96" width="12" height="12" rx="2" fill="rgba(59, 130, 246, 0.05)"  /><rect x="32" y="0" width="12" height="12" rx="2" fill="rgba(59, 130, 246, 0.4)"  /><rect x="32" y="16" width="12" height="12" rx="2" fill="rgba(59, 130, 246, 0.30000000000000004)"  /><rect x="32" y="32" width="12" height="12" rx="2" fill="rgba(59, 130, 246, 0.9)" style="animation: shimmer 2.001471155968924s infinite" /><rect x="32" y="48" width="12" height="12" rx="2" fill="rgba(59, 130, 246, 0.05)"  /><rect x="32" y="64" width="12" height="12" rx="2" fill="rgba(59, 130, 246, 0.05)"  /><rect x="32" y="80" width="12" height="12" rx="2" fill="rgba(59, 130, 246, 0.9)" style="animation: shimmer 2.243011937860284s infinite" /><rect x="32" y="96" width="12" height="12" rx="2" fill="rgba(59, 130, 246, 0.05)"  /><rect x="48" y="0" width="12" height="12" rx="2" fill="rgba(59, 130, 246, 0.05)"  /><rect x="48" y="16" width="12" height="12" rx="2" fill="rgba(59, 130, 246, 0.05)"  /><rect x="48" y="32" width="12" height="12" rx="2" fill="rgba(59, 130, 246, 0.05)"  /><rect x="48" y="48" width="12" height="12" rx="2" fill="rgba(59, 130, 246, 0.6000000000000001)"  /><rect x="48" y="64" width="12" height="12" rx="2" fill="rgba(59, 130, 246, 0.7)"  /><rect x="48" y="80" width="12" height="12" rx="2" fill="rgba(59, 130, 246, 0.7)"  /><rect x="48" y="96" width="12" height="12" rx="2" fill="rgba(59, 130, 246, 0.05)"  /><rect x="64" y="0" width="12" height="12" rx="2" fill="rgba(59, 130, 246, 0.9)" style="animation: shimmer 2.8145108100762175s infinite" /><rect x="64" y="16" width="12" height="12" rx="2" fill="rgba(59, 130, 246, 0.9)" style="animation: shimmer 2.9327547958366216s infinite" /><rect x="64" y="32" width="12" height="12" rx="2" fill="rgba(59, 130, 246, 0.9)" style="animation: shimmer 2.097870434103431s infinite" /><rect x="64" y="48" width="12" height="12" rx="2" fill="rgba(59, 130, 246, 0.8999999999999999)" style="animation: shimmer 2.503785387178502s infinite" /><rect x="64" y="64" width="12" height="12" rx="2" fill="rgba(59, 130, 246, 0.7)"  /><rect x="64" y="80" width="12" height="12" rx="2" fill="rgba(59, 130, 246, 0.5)"  /><rect x="64" y="96" width="12" height="12" rx="2" fill="rgba(59, 130, 246, 0.8)" style="animation: shimmer 2.6951604716596984s infinite" /><rect x="80" y="0" width="12" height="12" rx="2" fill="rgba(59, 130, 246, 0.5)"  /><rect x="80" y="16" width="12" height="12" rx="2" fill="rgba(59, 130, 246, 0.4)"  /><rect x="80" y="32" width="12" height="12" rx="2" fill="rgba(59, 130, 246, 0.6000000000000001)"  /><rect x="80" y="48" width="12" height="12" rx="2" fill="rgba(59, 130, 246, 0.30000000000000004)"  /><rect x="80" y="64" width="12" height="12" rx="2" fill="rgba(59, 130, 246, 0.30000000000000004)"  /><rect x="80" y="80" width="12" height="12" rx="2" fill="rgba(59, 130, 246, 0.5)"  /><rect x="80" y="96" width="12" height="12" rx="2" fill="rgba(59, 130, 246, 0.05)"  /><rect x="96" y="0" width="12" height="12" rx="2" fill="rgba(59, 130, 246, 0.05)"  /><rect x="96" y="16" width="12" height="12" rx="2" fill="rgba(59, 130, 246, 0.05)"  /><rect x="96" y="32" width="12" height="12" rx="2" fill="rgba(59, 130, 246, 0.05)"  /><rect x="96" y="48" width="12" height="12" rx="2" fill="rgba(59, 130, 246, 0.05)"  /><rect x="96" y="64" width="12" height="12" rx="2" fill="rgba(59, 130, 246, 0.5)"  /><rect x="96" y="80" width="12" height="12" rx="2" fill="rgba(59, 130, 246, 0.9)" style="animation: shimmer 2.565672234939956s infinite" /><rect x="96" y="96" width="12" height="12" rx="2" fill="rgba(59, 130, 246, 0.9)" style="animation: shimmer 2.1836471444100467s infinite" /><rect x="112" y="0" width="12" height="12" rx="2" fill="rgba(59, 130, 246, 0.8)" style="animation: shimmer 2.2251433965325726s infinite" /><rect x="112" y="16" width="12" height="12" rx="2" fill="rgba(59, 130, 246, 0.9)" style="animation: shimmer 2.447608510664362s infinite" /><rect x="112" y="32" width="12" height="12" rx="2" fill="rgba(59, 130, 246, 0.5)"  /><rect x="112" y="48" width="12" height="12" rx="2" fill="rgba(59, 130, 246, 0.8999999999999999)" style="animation: shimmer 2.9170680849880055s infinite" /><rect x="112" y="64" width="12" height="12" rx="2" fill="rgba(59, 130, 246, 0.9)" style="animation: shimmer 2.766888502686704s infinite" /><rect x="112" y="80" width="12" height="12" rx="2" fill="rgba(59, 130, 246, 0.9)" style="animation: shimmer 2.777459984408262s infinite" /><rect x="112" y="96" width="12" height="12" rx="2" fill="rgba(59, 130, 246, 0.6000000000000001)"  /><rect x="128" y="0" width="12" height="12" rx="2" fill="rgba(59, 130, 246, 0.5)"  /><rect x="128" y="16" width="12" height="12" rx="2" fill="rgba(59, 130, 246, 0.05)"  /><rect x="128" y="32" width="12" height="12" rx="2" fill="rgba(59, 130, 246, 0.4)"  /><rect x="128" y="48" width="12" height="12" rx="2" fill="rgba(59, 130, 246, 0.05)"  /><rect x="128" y="64" width="12" height="12" rx="2" fill="rgba(59, 130, 246, 0.6000000000000001)"  /><rect x="128" y="80" width="12" height="12" rx="2" fill="rgba(59, 130, 246, 0.05)"  /><rect x="128" y="96" width="12" height="12" rx="2" fill="rgba(59, 130, 246, 0.6000000000000001)"  /><rect x="144" y="0" width="12" height="12" rx="2" fill="rgba(59, 130, 246, 0.5)"  /><rect x="144" y="16" width="12" height="12" rx="2" fill="rgba(59, 130, 246, 0.05)"  /><rect x="144" y="32" width="12" height="12" rx="2" fill="rgba(59, 130, 246, 0.8)" style="animation: shimmer 2.045316592293842s infinite" /><rect x="144" y="48" width="12" height="12" rx="2" fill="rgba(59, 130, 246, 0.9)" style="animation: shimmer 2.3186291456968564s infinite" /><rect x="144" y="64" width="12" height="12" rx="2" fill="rgba(59, 130, 246, 0.6000000000000001)"  /><rect x="144" y="80" width="12" height="12" rx="2" fill="rgba(59, 130, 246, 0.05)"  /><rect x="144" y="96" width="12" height="12" rx="2" fill="rgba(59, 130, 246, 0.05)"  /><rect x="160" y="0" width="12" height="12" rx="2" fill="rgba(59, 130, 246, 0.30000000000000004)"  /><rect x="160" y="16" width="12" height="12" rx="2" fill="rgba(59, 130, 246, 0.05)"  /><rect x="160" y="32" width="12" height="12" rx="2" fill="rgba(59, 130, 246, 0.05)"  /><rect x="160" y="48" width="12" height="12" rx="2" fill="rgba(59, 130, 246, 0.05)"  /><rect x="160" y="64" width="12" height="12" rx="2" fill="rgba(59, 130, 246, 0.05)"  /><rect x="160" y="80" width="12" height="12" rx="2" fill="rgba(59, 130, 246, 0.05)"  /><rect x="160" y="96" width="12" height="12" rx="2" fill="rgba(59, 130, 246, 0.05)"  /><rect x="176" y="0" width="12" height="12" rx="2" fill="rgba(59, 130, 246, 0.4)"  /><rect x="176" y="16" width="12" height="12" rx="2" fill="rgba(59, 130, 246, 0.9)" style="animation: shimmer 2.643138836479662s infinite" /><rect x="176" y="32" width="12" height="12" rx="2" fill="rgba(59, 130, 246, 0.8999999999999999)" style="animation: shimmer 2.3265496084709842s infinite" /><rect x="176" y="48" width="12" height="12" rx="2" fill="rgba(59, 130, 246, 0.6000000000000001)"  /><rect x="176" y="64" width="12" height="12" rx="2" fill="rgba(59, 130, 246, 0.4)"  /><rect x="176" y="80" width="12" height="12" rx="2" fill="rgba(59, 130, 246, 0.6000000000000001)"  /><rect x="176" y="96" width="12" height="12" rx="2" fill="rgba(59, 130, 246, 0.30000000000000004)"  /><rect x="192" y="0" width="12" height="12" rx="2" fill="rgba(59, 130, 246, 0.4)"  /><rect x="192" y="16" width="12" height="12" rx="2" fill="rgba(59, 130, 246, 0.9)" style="animation: shimmer 2.2899102645148224s infinite" /><rect x="192" y="32" width="12" height="12" rx="2" fill="rgba(59, 130, 246, 0.9)" style="animation: shimmer 2.8630072858724223s infinite" /><rect x="192" y="48" width="12" height="12" rx="2" fill="rgba(59, 130, 246, 0.05)"  /><rect x="192" y="64" width="12" height="12" rx="2" fill="rgba(59, 130, 246, 0.4)"  /><rect x="192" y="80" width="12" height="12" rx="2" fill="rgba(59, 130, 246, 0.8)" style="animation: shimmer 2.3876005230697537s infinite" /><rect x="192" y="96" width="12" height="12" rx="2" fill="rgba(59, 130, 246, 0.30000000000000004)"  /><rect x="208" y="0" width="12" height="12" rx="2" fill="rgba(59, 130, 246, 0.5)"  /><rect x="208" y="16" width="12" height="12" rx="2" fill="rgba(59, 130, 246, 0.9)" style="animation: shimmer 2.4815361045393804s infinite" /><rect x="208" y="32" width="12" height="12" rx="2" fill="rgba(59, 130, 246, 0.9)" style="animation: shimmer 2.30939794164132s infinite" /><rect x="208" y="48" width="12" height="12" rx="2" fill="rgba(59, 130, 246, 0.9)" style="animation: shimmer 2.7166472242742925s infinite" /><rect x="208" y="64" width="12" height="12" rx="2" fill="rgba(59, 130, 246, 0.4)"  /><rect x="208" y="80" width="12" height="12" rx="2" fill="rgba(59, 130, 246, 0.9)" style="animation: shimmer 2.482359966053157s infinite" /><rect x="208" y="96" width="12" height="12" rx="2" fill="rgba(59, 130, 246, 0.9)" style="animation: shimmer 2.40123648379662s infinite" /><rect x="224" y="0" width="12" height="12" rx="2" fill="rgba(59, 130, 246, 0.9)" style="animation: shimmer 2.7499948059556485s infinite" /><rect x="224" y="16" width="12" height="12" rx="2" fill="rgba(59, 130, 246, 0.9)" style="animation: shimmer 2.2637208671615583s infinite" /><rect x="224" y="32" width="12" height="12" rx="2" fill="rgba(59, 130, 246, 0.9)" style="animation: shimmer 2.0499886080457608s infinite" /><rect x="224" y="48" width="12" height="12" rx="2" fill="rgba(59, 130, 246, 0.9)" style="animation: shimmer 2.6881472939958937s infinite" /><rect x="224" y="64" width="12" height="12" rx="2" fill="rgba(59, 130, 246, 0.9)" style="animation: shimmer 2.3285203403711368s infinite" /><rect x="224" y="80" width="12" height="12" rx="2" fill="rgba(59, 130, 246, 0.9)" style="animation: shimmer 2.9921295552948544s infinite" /><rect x="224" y="96" width="12" height="12" rx="2" fill="rgba(59, 130, 246, 0.9)" style="animation: shimmer 2.2992723986134287s infinite" /><rect x="240" y="0" width="12" height="12" rx="2" fill="rgba(59, 130, 246, 0.9)" style="animation: shimmer 2.909646938145801s infinite" /><rect x="240" y="16" width="12" height="12" rx="2" fill="rgba(59, 130, 246, 0.9)" style="animation: shimmer 2.9021176555774995s infinite" /><rect x="240" y="32" width="12" height="12" rx="2" fill="rgba(59, 130, 246, 0.8999999999999999)" style="animation: shimmer 2.540297690950201s infinite" /><rect x="240" y="48" width="12" height="12" rx="2" fill="rgba(59, 130, 246, 0.9)" style="animation: shimmer 2.257132117454004s infinite" /><rect x="240" y="64" width="12" height="12" rx="2" fill="rgba(59, 130, 246, 0.9)" style="animation: shimmer 2.1222640624213165s infinite" /><rect x="240" y="80" width="12" height="12" rx="2" fill="rgba(59, 130, 246, 0.9)" style="animation: shimmer 2.5621435005695297s infinite" /><rect x="240" y="96" width="12" height="12" rx="2" fill="rgba(59, 130, 246, 0.4)"  /><rect x="256" y="0" width="12" height="12" rx="2" fill="rgba(59, 130, 246, 0.8999999999999999)" style="animation: shimmer 2.0161316631692743s infinite" /><rect x="256" y="16" width="12" height="12" rx="2" fill="rgba(59, 130, 246, 0.9)" style="animation: shimmer 2.9197077822488042s infinite" /><rect x="256" y="32" width="12" height="12" rx="2" fill="rgba(59, 130, 246, 0.9)" style="animation: shimmer 2.6704636332315173s infinite" /><rect x="256" y="48" width="12" height="12" rx="2" fill="rgba(59, 130, 246, 0.9)" style="animation: shimmer 2.564537993650088s infinite" /><rect x="256" y="64" width="12" height="12" rx="2" fill="rgba(59, 130, 246, 0.9)" style="animation: shimmer 2.4154826339353006s infinite" /><rect x="256" y="80" width="12" height="12" rx="2" fill="rgba(59, 130, 246, 0.9)" style="animation: shimmer 2.7851136870169837s infinite" /><rect x="256" y="96" width="12" height="12" rx="2" fill="rgba(59, 130, 246, 0.9)" style="animation: shimmer 2.3109450427735805s infinite" /><rect x="272" y="0" width="12" height="12" rx="2" fill="rgba(59, 130, 246, 0.5)"  /><rect x="272" y="16" width="12" height="12" rx="2" fill="rgba(59, 130, 246, 0.05)"  /><rect x="272" y="32" width="12" height="12" rx="2" fill="rgba(59, 130, 246, 0.8)" style="animation: shimmer 2.4686901725186745s infinite" /><rect x="272" y="48" width="12" height="12" rx="2" fill="rgba(59, 130, 246, 0.9)" style="animation: shimmer 2.9578539646457265s infinite" /><rect x="272" y="64" width="12" height="12" rx="2" fill="rgba(59, 130, 246, 0.9)" style="animation: shimmer 2.3623114747385907s infinite" /><rect x="272" y="80" width="12" height="12" rx="2" fill="rgba(59, 130, 246, 0.05)"  /><rect x="272" y="96" width="12" height="12" rx="2" fill="rgba(59, 130, 246, 0.05)"  /><rect x="288" y="0" width="12" height="12" rx="2" fill="rgba(59, 130, 246, 0.05)"  /><rect x="288" y="16" width="12" height="12" rx="2" fill="rgba(59, 130, 246, 0.9)" style="animation: shimmer 2.7167960109647646s infinite" /><rect x="288" y="32" width="12" height="12" rx="2" fill="rgba(59, 130, 246, 0.9)" style="animation: shimmer 2.417931003640316s infinite" /><rect x="288" y="48" width="12" height="12" rx="2" fill="rgba(59, 130, 246, 0.7)"  /><rect x="288" y="64" width="12" height="12" rx="2" fill="rgba(59, 130, 246, 0.9)" style="animation: shimmer 2.954730826930321s infinite" /><rect x="288" y="80" width="12" height="12" rx="2" fill="rgba(59, 130, 246, 0.9)" style="animation: shimmer 2.159537634814825s infinite" /><rect x="288" y="96" width="12" height="12" rx="2" fill="rgba(59, 130, 246, 0.7)"  /><rect x="304" y="0" width="12" height="12" rx="2" fill="rgba(59, 130, 246, 0.05)"  /><rect x="304" y="16" width="12" height="12" rx="2" fill="rgba(59, 130, 246, 0.7)"  /><rect x="304" y="32" width="12" height="12" rx="2" fill="rgba(59, 130, 246, 0.9)" style="animation: shimmer 2.733814538507103s infinite" /><rect x="304" y="48" width="12" height="12" rx="2" fill="rgba(59, 130, 246, 0.9)" style="animation: shimmer 2.8834977841094847s infinite" /><rect x="304" y="64" width="12" height="12" rx="2" fill="rgba(59, 130, 246, 0.05)"  /><rect x="304" y="80" width="12" height="12" rx="2" fill="rgba(59, 130, 246, 0.9)" style="animation: shimmer 2.6696261134735866s infinite" /><rect x="304" y="96" width="12" height="12" rx="2" fill="rgba(59, 130, 246, 0.9)" style="animation: shimmer 2.544673209677354s infinite" /><rect x="320" y="0" width="12" height="12" rx="2" fill="rgba(59, 130, 246, 0.9)" style="animation: shimmer 2.7739152967816008s infinite" /><rect x="320" y="16" width="12" height="12" rx="2" fill="rgba(59, 130, 246, 0.6000000000000001)"  /><rect x="320" y="32" width="12" height="12" rx="2" fill="rgba(59, 130, 246, 0.9)" style="animation: shimmer 2.2469261626129633s infinite" /><rect x="320" y="48" width="12" height="12" rx="2" fill="rgba(59, 130, 246, 0.7)"  /><rect x="320" y="64" width="12" height="12" rx="2" fill="rgba(59, 130, 246, 0.4)"  /><rect x="320" y="80" width="12" height="12" rx="2" fill="rgba(59, 130, 246, 0.05)"  /><rect x="320" y="96" width="12" height="12" rx="2" fill="rgba(59, 130, 246, 0.9)" style="animation: shimmer 2.4329852703249175s infinite" /><rect x="336" y="0" width="12" height="12" rx="2" fill="rgba(59, 130, 246, 0.05)"  /><rect x="336" y="16" width="12" height="12" rx="2" fill="rgba(59, 130, 246, 0.30000000000000004)"  /><rect x="336" y="32" width="12" height="12" rx="2" fill="rgba(59, 130, 246, 0.05)"  /><rect x="336" y="48" width="12" height="12" rx="2" fill="rgba(59, 130, 246, 0.05)"  /><rect x="336" y="64" width="12" height="12" rx="2" fill="rgba(59, 130, 246, 0.05)"  /><rect x="336" y="80" width="12" height="12" rx="2" fill="rgba(59, 130, 246, 0.05)"  /><rect x="336" y="96" width="12" height="12" rx="2" fill="rgba(59, 130, 246, 0.05)"  /><rect x="352" y="0" width="12" height="12" rx="2" fill="rgba(59, 130, 246, 0.7)"  /><rect x="352" y="16" width="12" height="12" rx="2" fill="rgba(59, 130, 246, 0.4)"  /><rect x="352" y="32" width="12" height="12" rx="2" fill="rgba(59, 130, 246, 0.05)"  /><rect x="352" y="48" width="12" height="12" rx="2" fill="rgba(59, 130, 246, 0.30000000000000004)"  /><rect x="352" y="64" width="12" height="12" rx="2" fill="rgba(59, 130, 246, 0.05)"  /><rect x="352" y="80" width="12" height="12" rx="2" fill="rgba(59, 130, 246, 0.05)"  /><rect x="352" y="96" width="12" height="12" rx="2" fill="rgba(59, 130, 246, 0.05)"  /><rect x="368" y="0" width="12" height="12" rx="2" fill="rgba(59, 130, 246, 0.6000000000000001)"  /><rect x="368" y="16" width="12" height="12" rx="2" fill="rgba(59, 130, 246, 0.05)"  /><rect x="368" y="32" width="12" height="12" rx="2" fill="rgba(59, 130, 246, 0.05)"  /><rect x="368" y="48" width="12" height="12" rx="2" fill="rgba(59, 130, 246, 0.05)"  /><rect x="368" y="64" width="12" height="12" rx="2" fill="rgba(59, 130, 246, 0.9)" style="animation: shimmer 2.390077654731267s infinite" /><rect x="368" y="80" width="12" height="12" rx="2" fill="rgba(59, 130, 246, 0.9)" style="animation: shimmer 2.1642227362135156s infinite" /><rect x="368" y="96" width="12" height="12" rx="2" fill="rgba(59, 130, 246, 0.9)" style="animation: shimmer 2.2490503756599054s infinite" /><rect x="384" y="0" width="12" height="12" rx="2" fill="rgba(59, 130, 246, 0.9)" style="animation: shimmer 2.9148012971103308s infinite" /><rect x="384" y="16" width="12" height="12" rx="2" fill="rgba(59, 130, 246, 0.9)" style="animation: shimmer 2.887259893238066s infinite" /><rect x="384" y="32" width="12" height="12" rx="2" fill="rgba(59, 130, 246, 0.8)" style="animation: shimmer 2.764119369336007s infinite" /><rect x="384" y="48" width="12" height="12" rx="2" fill="rgba(59, 130, 246, 0.5)"  /><rect x="384" y="64" width="12" height="12" rx="2" fill="rgba(59, 130, 246, 0.9)" style="animation: shimmer 2.925699964951984s infinite" /><rect x="384" y="80" width="12" height="12" rx="2" fill="rgba(59, 130, 246, 0.9)" style="animation: shimmer 2.3204702236733s infinite" /><rect x="384" y="96" width="12" height="12" rx="2" fill="rgba(59, 130, 246, 0.9)" style="animation: shimmer 2.514321761196809s infinite" /><rect x="400" y="0" width="12" height="12" rx="2" fill="rgba(59, 130, 246, 0.05)"  /><rect x="400" y="16" width="12" height="12" rx="2" fill="rgba(59, 130, 246, 0.9)" style="animation: shimmer 2.145324415520756s infinite" /><rect x="400" y="32" width="12" height="12" rx="2" fill="rgba(59, 130, 246, 0.9)" style="animation: shimmer 2.7650528402986834s infinite" /><rect x="400" y="48" width="12" height="12" rx="2" fill="rgba(59, 130, 246, 0.9)" style="animation: shimmer 2.5604984984092347s infinite" /><rect x="400" y="64" width="12" height="12" rx="2" fill="rgba(59, 130, 246, 0.9)" style="animation: shimmer 2.407199554224558s infinite" /><rect x="400" y="80" width="12" height="12" rx="2" fill="rgba(59, 130, 246, 0.9)" style="animation: shimmer 2.026655785656701s infinite" /><rect x="400" y="96" width="12" height="12" rx="2" fill="rgba(59, 130, 246, 0.9)" style="animation: shimmer 2.3113012595504023s infinite" /><rect x="416" y="0" width="12" height="12" rx="2" fill="rgba(59, 130, 246, 0.9)" style="animation: shimmer 2.461824917697239s infinite" /><rect x="416" y="16" width="12" height="12" rx="2" fill="rgba(59, 130, 246, 0.9)" style="animation: shimmer 2.4100885971946906s infinite" /><rect x="416" y="32" width="12" height="12" rx="2" fill="rgba(59, 130, 246, 0.9)" style="animation: shimmer 2.2758786191312175s infinite" /><rect x="416" y="48" width="12" height="12" rx="2" fill="rgba(59, 130, 246, 0.9)" style="animation: shimmer 2.3744771906210937s infinite" /><rect x="416" y="64" width="12" height="12" rx="2" fill="rgba(59, 130, 246, 0.30000000000000004)"  /><rect x="416" y="80" width="12" height="12" rx="2" fill="rgba(59, 130, 246, 0.9)" style="animation: shimmer 2.7506621108607003s infinite" /><rect x="416" y="96" width="12" height="12" rx="2" fill="rgba(59, 130, 246, 0.30000000000000004)"  /><rect x="432" y="0" width="12" height="12" rx="2" fill="rgba(59, 130, 246, 0.05)"  /><rect x="432" y="16" width="12" height="12" rx="2" fill="rgba(59, 130, 246, 0.7)"  /><rect x="432" y="32" width="12" height="12" rx="2" fill="rgba(59, 130, 246, 0.9)" style="animation: shimmer 2.5241220557512563s infinite" /><rect x="432" y="48" width="12" height="12" rx="2" fill="rgba(59, 130, 246, 0.9)" style="animation: shimmer 2.589389813167985s infinite" /><rect x="432" y="64" width="12" height="12" rx="2" fill="rgba(59, 130, 246, 0.30000000000000004)"  /><rect x="432" y="80" width="12" height="12" rx="2" fill="rgba(59, 130, 246, 0.4)"  /><rect x="432" y="96" width="12" height="12" rx="2" fill="rgba(59, 130, 246, 0.8)" style="animation: shimmer 2.5312726080476633s infinite" /><rect x="448" y="0" width="12" height="12" rx="2" fill="rgba(59, 130, 246, 0.9)" style="animation: shimmer 2.9254513823608668s infinite" /><rect x="448" y="16" width="12" height="12" rx="2" fill="rgba(59, 130, 246, 0.9)" style="animation: shimmer 2.0420598871662206s infinite" /><rect x="448" y="32" width="12" height="12" rx="2" fill="rgba(59, 130, 246, 0.9)" style="animation: shimmer 2.2549072689489336s infinite" /><rect x="448" y="48" width="12" height="12" rx="2" fill="rgba(59, 130, 246, 0.9)" style="animation: shimmer 2.3074014235183062s infinite" /><rect x="448" y="64" width="12" height="12" rx="2" fill="rgba(59, 130, 246, 0.9)" style="animation: shimmer 2.2807852523898795s infinite" /><rect x="448" y="80" width="12" height="12" rx="2" fill="rgba(59, 130, 246, 0.9)" style="animation: shimmer 2.8799096357357086s infinite" /><rect x="448" y="96" width="12" height="12" rx="2" fill="rgba(59, 130, 246, 0.9)" style="animation: shimmer 2.4345446772266945s infinite" /><rect x="464" y="0" width="12" height="12" rx="2" fill="rgba(59, 130, 246, 0.9)" style="animation: shimmer 2.556986139320222s infinite" /><rect x="464" y="16" width="12" height="12" rx="2" fill="rgba(59, 130, 246, 0.9)" style="animation: shimmer 2.037754215438471s infinite" /><rect x="464" y="32" width="12" height="12" rx="2" fill="rgba(59, 130, 246, 0.05)"  /><rect x="464" y="48" width="12" height="12" rx="2" fill="rgba(59, 130, 246, 0.4)"  /><rect x="464" y="64" width="12" height="12" rx="2" fill="rgba(59, 130, 246, 0.9)" style="animation: shimmer 2.3754359199701147s infinite" /><rect x="464" y="80" width="12" height="12" rx="2" fill="rgba(59, 130, 246, 0.9)" style="animation: shimmer 2.52735689893622s infinite" /><rect x="464" y="96" width="12" height="12" rx="2" fill="rgba(59, 130, 246, 0.8)" style="animation: shimmer 2.3979241900893173s infinite" /><rect x="480" y="0" width="12" height="12" rx="2" fill="rgba(59, 130, 246, 0.8999999999999999)" style="animation: shimmer 2.6082269252938417s infinite" /><rect x="480" y="16" width="12" height="12" rx="2" fill="rgba(59, 130, 246, 0.9)" style="animation: shimmer 2.260393919907862s infinite" /><rect x="480" y="32" width="12" height="12" rx="2" fill="rgba(59, 130, 246, 0.05)"  /><rect x="480" y="48" width="12" height="12" rx="2" fill="rgba(59, 130, 246, 0.8)" style="animation: shimmer 2.9054856905849187s infinite" /><rect x="480" y="64" width="12" height="12" rx="2" fill="rgba(59, 130, 246, 0.05)"  /><rect x="480" y="80" width="12" height="12" rx="2" fill="rgba(59, 130, 246, 0.30000000000000004)"  /><rect x="480" y="96" width="12" height="12" rx="2" fill="rgba(59, 130, 246, 0.9)" style="animation: shimmer 2.070975785527059s infinite" /><rect x="496" y="0" width="12" height="12" rx="2" fill="rgba(59, 130, 246, 0.30000000000000004)"  /><rect x="496" y="16" width="12" height="12" rx="2" fill="rgba(59, 130, 246, 0.05)"  /><rect x="496" y="32" width="12" height="12" rx="2" fill="rgba(59, 130, 246, 0.05)"  /><rect x="496" y="48" width="12" height="12" rx="2" fill="rgba(59, 130, 246, 0.05)"  /><rect x="496" y="64" width="12" height="12" rx="2" fill="rgba(59, 130, 246, 0.05)"  /><rect x="496" y="80" width="12" height="12" rx="2" fill="rgba(59, 130, 246, 0.05)"  /><rect x="496" y="96" width="12" height="12" rx="2" fill="rgba(59, 130, 246, 0.05)"  /><rect x="512" y="0" width="12" height="12" rx="2" fill="rgba(59, 130, 246, 0.9)" style="animation: shimmer 2.66761022465367s infinite" /><rect x="512" y="16" width="12" height="12" rx="2" fill="rgba(59, 130, 246, 0.05)"  /><rect x="512" y="32" width="12" height="12" rx="2" fill="rgba(59, 130, 246, 0.05)"  /><rect x="512" y="48" width="12" height="12" rx="2" fill="rgba(59, 130, 246, 0.05)"  /><rect x="512" y="64" width="12" height="12" rx="2" fill="rgba(59, 130, 246, 0.8999999999999999)" style="animation: shimmer 2.624116790188116s infinite" /><rect x="512" y="80" width="12" height="12" rx="2" fill="rgba(59, 130, 246, 0.4)"  /><rect x="512" y="96" width="12" height="12" rx="2" fill="rgba(59, 130, 246, 0.05)"  /><rect x="528" y="0" width="12" height="12" rx="2" fill="rgba(59, 130, 246, 0.05)"  /><rect x="528" y="16" width="12" height="12" rx="2" fill="rgba(59, 130, 246, 0.05)"  /><rect x="528" y="32" width="12" height="12" rx="2" fill="rgba(59, 130, 246, 0.05)"  /><rect x="528" y="48" width="12" height="12" rx="2" fill="rgba(59, 130, 246, 0.05)"  /><rect x="528" y="64" width="12" height="12" rx="2" fill="rgba(59, 130, 246, 0.05)"  /><rect x="528" y="80" width="12" height="12" rx="2" fill="rgba(59, 130, 246, 0.05)"  /><rect x="528" y="96" width="12" height="12" rx="2" fill="rgba(59, 130, 246, 0.05)"  /><rect x="544" y="0" width="12" height="12" rx="2" fill="rgba(59, 130, 246, 0.05)"  /><rect x="544" y="16" width="12" height="12" rx="2" fill="rgba(59, 130, 246, 0.05)"  /><rect x="544" y="32" width="12" height="12" rx="2" fill="rgba(59, 130, 246, 0.05)"  /><rect x="544" y="48" width="12" height="12" rx="2" fill="rgba(59, 130, 246, 0.05)"  /><rect x="544" y="64" width="12" height="12" rx="2" fill="rgba(59, 130, 246, 0.05)"  /><rect x="544" y="80" width="12" height="12" rx="2" fill="rgba(59, 130, 246, 0.05)"  /><rect x="544" y="96" width="12" height="12" rx="2" fill="rgba(59, 130, 246, 0.05)"  /><rect x="560" y="0" width="12" height="12" rx="2" fill="rgba(59, 130, 246, 0.05)"  /><rect x="560" y="16" width="12" height="12" rx="2" fill="rgba(59, 130, 246, 0.05)"  /><rect x="560" y="32" width="12" height="12" rx="2" fill="rgba(59, 130, 246, 0.05)"  /><rect x="560" y="48" width="12" height="12" rx="2" fill="rgba(59, 130, 246, 0.05)"  /><rect x="560" y="64" width="12" height="12" rx="2" fill="rgba(59, 130, 246, 0.05)"  /><rect x="560" y="80" width="12" height="12" rx="2" fill="rgba(59, 130, 246, 0.05)"  /><rect x="560" y="96" width="12" height="12" rx="2" fill="rgba(59, 130, 246, 0.05)"  /><rect x="576" y="0" width="12" height="12" rx="2" fill="rgba(59, 130, 246, 0.05)"  /><rect x="576" y="16" width="12" height="12" rx="2" fill="rgba(59, 130, 246, 0.05)"  /><rect x="576" y="32" width="12" height="12" rx="2" fill="rgba(59, 130, 246, 0.05)"  /><rect x="576" y="48" width="12" height="12" rx="2" fill="rgba(59, 130, 246, 0.05)"  /><rect x="576" y="64" width="12" height="12" rx="2" fill="rgba(59, 130, 246, 0.05)"  /><rect x="576" y="80" width="12" height="12" rx="2" fill="rgba(59, 130, 246, 0.05)"  /><rect x="576" y="96" width="12" height="12" rx="2" fill="rgba(59, 130, 246, 0.05)"  /><rect x="592" y="0" width="12" height="12" rx="2" fill="rgba(59, 130, 246, 0.30000000000000004)"  /><rect x="592" y="16" width="12" height="12" rx="2" fill="rgba(59, 130, 246, 0.30000000000000004)"  /><rect x="592" y="32" width="12" height="12" rx="2" fill="rgba(59, 130, 246, 0.05)"  /><rect x="592" y="48" width="12" height="12" rx="2" fill="rgba(59, 130, 246, 0.05)"  /><rect x="592" y="64" width="12" height="12" rx="2" fill="rgba(59, 130, 246, 0.05)"  /><rect x="592" y="80" width="12" height="12" rx="2" fill="rgba(59, 130, 246, 0.05)"  /><rect x="592" y="96" width="12" height="12" rx="2" fill="rgba(59, 130, 246, 0.6000000000000001)"  /><rect x="608" y="0" width="12" height="12" rx="2" fill="rgba(59, 130, 246, 0.05)"  /><rect x="608" y="16" width="12" height="12" rx="2" fill="rgba(59, 130, 246, 0.05)"  /><rect x="608" y="32" width="12" height="12" rx="2" fill="rgba(59, 130, 246, 0.05)"  /><rect x="608" y="48" width="12" height="12" rx="2" fill="rgba(59, 130, 246, 0.05)"  /><rect x="608" y="64" width="12" height="12" rx="2" fill="rgba(59, 130, 246, 0.05)"  /><rect x="608" y="80" width="12" height="12" rx="2" fill="rgba(59, 130, 246, 0.05)"  /><rect x="608" y="96" width="12" height="12" rx="2" fill="rgba(59, 130, 246, 0.05)"  /><rect x="624" y="0" width="12" height="12" rx="2" fill="rgba(59, 130, 246, 0.05)"  /><rect x="624" y="16" width="12" height="12" rx="2" fill="rgba(59, 130, 246, 0.05)"  /><rect x="624" y="32" width="12" height="12" rx="2" fill="rgba(59, 130, 246, 0.05)"  /><rect x="624" y="48" width="12" height="12" rx="2" fill="rgba(59, 130, 246, 0.05)"  /><rect x="624" y="64" width="12" height="12" rx="2" fill="rgba(59, 130, 246, 0.05)"  /><rect x="624" y="80" width="12" height="12" rx="2" fill="rgba(59, 130, 246, 0.05)"  /><rect x="624" y="96" width="12" height="12" rx="2" fill="rgba(59, 130, 246, 0.05)"  /><rect x="640" y="0" width="12" height="12" rx="2" fill="rgba(59, 130, 246, 0.9)" style="animation: shimmer 2.2421166749789925s infinite" /><rect x="640" y="16" width="12" height="12" rx="2" fill="rgba(59, 130, 246, 0.5)"  /><rect x="640" y="32" width="12" height="12" rx="2" fill="rgba(59, 130, 246, 0.6000000000000001)"  /><rect x="640" y="48" width="12" height="12" rx="2" fill="rgba(59, 130, 246, 0.05)"  /><rect x="640" y="64" width="12" height="12" rx="2" fill="rgba(59, 130, 246, 0.7)"  /><rect x="640" y="80" width="12" height="12" rx="2" fill="rgba(59, 130, 246, 0.05)"  /><rect x="640" y="96" width="12" height="12" rx="2" fill="rgba(59, 130, 246, 0.05)"  /><rect x="656" y="0" width="12" height="12" rx="2" fill="rgba(59, 130, 246, 0.05)"  /><rect x="656" y="16" width="12" height="12" rx="2" fill="rgba(59, 130, 246, 0.05)"  /><rect x="656" y="32" width="12" height="12" rx="2" fill="rgba(59, 130, 246, 0.05)"  /><rect x="656" y="48" width="12" height="12" rx="2" fill="rgba(59, 130, 246, 0.05)"  /><rect x="656" y="64" width="12" height="12" rx="2" fill="rgba(59, 130, 246, 0.9)" style="animation: shimmer 2.536629441614716s infinite" /><rect x="656" y="80" width="12" height="12" rx="2" fill="rgba(59, 130, 246, 0.05)"  /><rect x="656" y="96" width="12" height="12" rx="2" fill="rgba(59, 130, 246, 0.05)"  /><rect x="672" y="0" width="12" height="12" rx="2" fill="rgba(59, 130, 246, 0.05)"  /><rect x="672" y="16" width="12" height="12" rx="2" fill="rgba(59, 130, 246, 0.05)"  /><rect x="672" y="32" width="12" height="12" rx="2" fill="rgba(59, 130, 246, 0.05)"  /><rect x="672" y="48" width="12" height="12" rx="2" fill="rgba(59, 130, 246, 0.05)"  /><rect x="672" y="64" width="12" height="12" rx="2" fill="rgba(59, 130, 246, 0.05)"  /><rect x="672" y="80" width="12" height="12" rx="2" fill="rgba(59, 130, 246, 0.05)"  /><rect x="672" y="96" width="12" height="12" rx="2" fill="rgba(59, 130, 246, 0.05)"  /><rect x="688" y="0" width="12" height="12" rx="2" fill="rgba(59, 130, 246, 0.9)" style="animation: shimmer 2.157708368382205s infinite" /><rect x="688" y="16" width="12" height="12" rx="2" fill="rgba(59, 130, 246, 0.05)"  /><rect x="688" y="32" width="12" height="12" rx="2" fill="rgba(59, 130, 246, 0.05)"  /><rect x="688" y="48" width="12" height="12" rx="2" fill="rgba(59, 130, 246, 0.30000000000000004)"  />
      </g>
    </g>
  
      <g transform="translate(60, 640)">
    <text x="0" y="0" class="font-sans" font-weight="700" font-size="18" fill="#f3f4f6">Top Works</text>
  
      <g transform="translate(0, 30)">
        <rect width="355" height="130" rx="20" fill="rgba(17, 24, 39, 0.7)" stroke="rgba(59, 130, 246, 0.3)" stroke-width="1" />
        <text x="20" y="35" class="font-mono" font-weight="700" font-size="16" fill="#f3f4f6">altus-ui</text>
        <text x="20" y="65" class="font-sans" font-size="13" fill="#9ca3af" width="310">Multi Themed UI component library. Built for performance ...</text>
        <g transform="translate(20, 100)">
          <circle cx="6" cy="-4" r="5" fill="#3178c6" filter="url(#glow)" />
          <text x="18" y="0" class="font-sans" font-size="12" fill="#9ca3af">TypeScript</text>
          <text x="280" y="0" class="font-mono" font-size="12" fill="#06b6d4">★ 3</text>
        </g>
      </g>
    
      <g transform="translate(375, 30)">
        <rect width="355" height="130" rx="20" fill="rgba(17, 24, 39, 0.7)" stroke="rgba(59, 130, 246, 0.3)" stroke-width="1" />
        <text x="20" y="35" class="font-mono" font-weight="700" font-size="16" fill="#f3f4f6">Portel</text>
        <text x="20" y="65" class="font-sans" font-size="13" fill="#9ca3af" width="310">Host you&apos;re very own website inside a minecraft server fo...</text>
        <g transform="translate(20, 100)">
          <circle cx="6" cy="-4" r="5" fill="#b07219" filter="url(#glow)" />
          <text x="18" y="0" class="font-sans" font-size="12" fill="#9ca3af">Java</text>
          <text x="280" y="0" class="font-mono" font-size="12" fill="#06b6d4">★ 3</text>
        </g>
      </g>
    
      <g transform="translate(0, 180)">
        <rect width="355" height="130" rx="20" fill="rgba(17, 24, 39, 0.7)" stroke="rgba(59, 130, 246, 0.3)" stroke-width="1" />
        <text x="20" y="35" class="font-mono" font-weight="700" font-size="16" fill="#f3f4f6">RTP</text>
        <text x="20" y="65" class="font-sans" font-size="13" fill="#9ca3af" width="310">Random Teleport plugin updated for modern Paper servers</text>
        <g transform="translate(20, 100)">
          <circle cx="6" cy="-4" r="5" fill="#b07219" filter="url(#glow)" />
          <text x="18" y="0" class="font-sans" font-size="12" fill="#9ca3af">Java</text>
          <text x="280" y="0" class="font-mono" font-size="12" fill="#06b6d4">★ 1</text>
        </g>
      </g>
    
      <g transform="translate(375, 180)">
        <rect width="355" height="130" rx="20" fill="rgba(17, 24, 39, 0.7)" stroke="rgba(59, 130, 246, 0.3)" stroke-width="1" />
        <text x="20" y="35" class="font-mono" font-weight="700" font-size="16" fill="#f3f4f6">Sublet</text>
        <text x="20" y="65" class="font-sans" font-size="13" fill="#9ca3af" width="310">Create, Manage, Run multiple independent Minecraft sub/mi...</text>
        <g transform="translate(20, 100)">
          <circle cx="6" cy="-4" r="5" fill="#b07219" filter="url(#glow)" />
          <text x="18" y="0" class="font-sans" font-size="12" fill="#9ca3af">Java</text>
          <text x="280" y="0" class="font-mono" font-size="12" fill="#06b6d4">★ 1</text>
        </g>
      </g>
    </g>
      <g transform="translate(60, 1000)">
    <text x="0" y="0" class="font-sans" font-weight="700" font-size="18" fill="#f3f4f6">My Best Tools</text>
    <g transform="translate(0, 30)">
  
      <g transform="translate(0, 0)">
        <rect width="230" height="50" rx="12" fill="rgba(17, 24, 39, 0.7)" stroke="rgba(59, 130, 246, 0.3)" stroke-width="1" />
        <circle cx="25" cy="25" r="8" fill="none" stroke="#dea584" stroke-width="1.5" stroke-dasharray="10 5" opacity="0.6">
          <animateTransform attributeName="transform" type="rotate" from="0 25 25" to="360 25 25" dur="4s" repeatCount="indefinite" />
        </circle>
        <circle cx="25" cy="25" r="3" fill="#dea584" filter="url(#glow)" />
        <text x="45" y="30" class="font-mono" font-weight="700" font-size="13" fill="#f3f4f6" letter-spacing="1px">RUST</text>
      </g>
    
      <g transform="translate(250, 0)">
        <rect width="230" height="50" rx="12" fill="rgba(17, 24, 39, 0.7)" stroke="rgba(59, 130, 246, 0.3)" stroke-width="1" />
        <circle cx="25" cy="25" r="8" fill="none" stroke="#f9e2af" stroke-width="1.5" stroke-dasharray="10 5" opacity="0.6">
          <animateTransform attributeName="transform" type="rotate" from="0 25 25" to="360 25 25" dur="4s" repeatCount="indefinite" />
        </circle>
        <circle cx="25" cy="25" r="3" fill="#f9e2af" filter="url(#glow)" />
        <text x="45" y="30" class="font-mono" font-weight="700" font-size="13" fill="#f3f4f6" letter-spacing="1px">BUN</text>
      </g>
    
      <g transform="translate(500, 0)">
        <rect width="230" height="50" rx="12" fill="rgba(17, 24, 39, 0.7)" stroke="rgba(59, 130, 246, 0.3)" stroke-width="1" />
        <circle cx="25" cy="25" r="8" fill="none" stroke="#24c8db" stroke-width="1.5" stroke-dasharray="10 5" opacity="0.6">
          <animateTransform attributeName="transform" type="rotate" from="0 25 25" to="360 25 25" dur="4s" repeatCount="indefinite" />
        </circle>
        <circle cx="25" cy="25" r="3" fill="#24c8db" filter="url(#glow)" />
        <text x="45" y="30" class="font-mono" font-weight="700" font-size="13" fill="#f3f4f6" letter-spacing="1px">TAURI</text>
      </g>
    
      <g transform="translate(0, 70)">
        <rect width="230" height="50" rx="12" fill="rgba(17, 24, 39, 0.7)" stroke="rgba(59, 130, 246, 0.3)" stroke-width="1" />
        <circle cx="25" cy="25" r="8" fill="none" stroke="#00ADD8" stroke-width="1.5" stroke-dasharray="10 5" opacity="0.6">
          <animateTransform attributeName="transform" type="rotate" from="0 25 25" to="360 25 25" dur="4s" repeatCount="indefinite" />
        </circle>
        <circle cx="25" cy="25" r="3" fill="#00ADD8" filter="url(#glow)" />
        <text x="45" y="30" class="font-mono" font-weight="700" font-size="13" fill="#f3f4f6" letter-spacing="1px">GO</text>
      </g>
    
      <g transform="translate(250, 70)">
        <rect width="230" height="50" rx="12" fill="rgba(17, 24, 39, 0.7)" stroke="rgba(59, 130, 246, 0.3)" stroke-width="1" />
        <circle cx="25" cy="25" r="8" fill="none" stroke="#3178c6" stroke-width="1.5" stroke-dasharray="10 5" opacity="0.6">
          <animateTransform attributeName="transform" type="rotate" from="0 25 25" to="360 25 25" dur="4s" repeatCount="indefinite" />
        </circle>
        <circle cx="25" cy="25" r="3" fill="#3178c6" filter="url(#glow)" />
        <text x="45" y="30" class="font-mono" font-weight="700" font-size="13" fill="#f3f4f6" letter-spacing="1px">TYPESCRIPT</text>
      </g>
    
      <g transform="translate(500, 70)">
        <rect width="230" height="50" rx="12" fill="rgba(17, 24, 39, 0.7)" stroke="rgba(59, 130, 246, 0.3)" stroke-width="1" />
        <circle cx="25" cy="25" r="8" fill="none" stroke="#ffffff" stroke-width="1.5" stroke-dasharray="10 5" opacity="0.6">
          <animateTransform attributeName="transform" type="rotate" from="0 25 25" to="360 25 25" dur="4s" repeatCount="indefinite" />
        </circle>
        <circle cx="25" cy="25" r="3" fill="#ffffff" filter="url(#glow)" />
        <text x="45" y="30" class="font-mono" font-weight="700" font-size="13" fill="#f3f4f6" letter-spacing="1px">NEXT.JS</text>
      </g>
    </g></g>
      
    <g transform="translate(60, 1250)">
      <text class="font-mono" font-size="14" fill="#f3f4f6" opacity="0.7">Discord: v_late</text>
      <text x="180" y="0" class="font-mono" font-size="14" fill="#f3f4f6" opacity="0.7">Insta: jk_nan_</text>
      <text x="480" y="0" class="font-mono" font-size="12" fill="#06b6d4" opacity="0.6">Let's build something together.</text>
    </g>
  
    </svg>
  