
    <svg width="850" height="1350" viewBox="0 0 850 1350" xmlns="http://www.w3.org/2000/svg">
      
    <defs>
      <filter id="glassBlur" x="-20%" y="-20%" width="140%" height="140%">
        <feGaussianBlur in="SourceGraphic" stdDeviation="10" />
      </filter>
      <filter id="glow" x="-20%" y="-20%" width="140%" height="140%">
        <feGaussianBlur stdDeviation="5" result="blur" />
        <feComposite in="SourceGraphic" in2="blur" operator="over" />
      </filter>
      <linearGradient id="glassGrad" x1="0%" y1="0%" x2="100%" y2="100%">
        <stop offset="0%" stop-color="rgba(59, 130, 246, 0.1)" />
        <stop offset="100%" stop-color="rgba(59, 130, 246, 0.02)" />
      </linearGradient>
      <pattern id="grid" width="40" height="40" patternUnits="userSpaceOnUse">
        <path d="M 40 0 L 0 0 0 40" fill="none" stroke="rgba(59, 130, 246, 0.1)" stroke-width="1"/>
      </pattern>
      
      <style>
        @keyframes scanline {
          0% { transform: translateY(-100px); opacity: 0; }
          10% { opacity: 0.5; }
          90% { opacity: 0.5; }
          100% { transform: translateY(1350px); opacity: 0; }
        }
        @keyframes pulse {
          0%, 100% { opacity: 0.4; }
          50% { opacity: 1; }
        }
        @keyframes flicker {
          0%, 19.999%, 22%, 62.999%, 64%, 64.999%, 70%, 100% { opacity: 1; }
          20%, 21.999%, 63%, 63.999%, 65%, 69.999% { opacity: 0.4; }
        }
        @keyframes dataFlow {
          0% { stroke-dashoffset: 100; }
          100% { stroke-dashoffset: 0; }
        }
        @keyframes shimmer {
          0% { fill-opacity: 0.3; }
          50% { fill-opacity: 0.9; }
          100% { fill-opacity: 0.3; }
        }
        .font-mono { font-family: 'JetBrains Mono', 'Fira Code', monospace; }
        .font-sans { font-family: 'Inter', system-ui, sans-serif; }
      </style>
    </defs>
  
      
    <rect width="850" height="1350" fill="#030712" rx="24" />
    <rect width="850" height="1350" fill="url(#grid)" rx="24" />
    <rect width="850" height="100" fill="url(#glassGrad)" style="animation: scanline 8s linear infinite;">
      <animate attributeName="opacity" values="0;0.5;0" dur="8s" repeatCount="indefinite" />
    </rect>
  
      
    <g opacity="0.2" stroke="#3b82f6" stroke-width="1" fill="none">
      <path d="M 790 150 L 790 1200 L 750 1200" stroke-dasharray="5 5" style="animation: dataFlow 10s linear infinite;" />
      <path d="M 60 1200 L 20 1200 L 20 150" stroke-dasharray="5 5" style="animation: dataFlow 10s linear reverse infinite;" />
    </g>
  
      
    <g transform="translate(60, 80)">
      <text class="font-sans" font-weight="900" font-size="72" fill="#f3f4f6" letter-spacing="-3px">Qclid</text>
      <text x="5" y="45" class="font-sans" font-weight="500" font-size="20" fill="#06b6d4" opacity="0.8">always open to collab // building cool things</text>
      <line x1="0" y1="70" x2="730" y2="70" stroke="rgba(59, 130, 246, 0.3)" stroke-width="1" stroke-dasharray="4 4" />
    </g>
  
      <g transform="translate(60, 220)">
      <g transform="translate(0, 0)">
        <rect width="170" height="100" rx="16" fill="rgba(17, 24, 39, 0.7)" stroke="rgba(59, 130, 246, 0.3)" stroke-width="1" />
        <text x="20" y="40" class="font-sans" font-weight="600" font-size="12" fill="#3b82f6" letter-spacing="2px" opacity="0.7">STARS</text>
        <text x="20" y="75" class="font-mono" font-weight="800" font-size="32" fill="#f3f4f6" style="animation: flicker 2s infinite;">8</text>
        <circle cx="145" cy="25" r="3" fill="#06b6d4" style="animation: pulse 2s infinite;" />
      </g>
    
      <g transform="translate(190, 0)">
        <rect width="170" height="100" rx="16" fill="rgba(17, 24, 39, 0.7)" stroke="rgba(59, 130, 246, 0.3)" stroke-width="1" />
        <text x="20" y="40" class="font-sans" font-weight="600" font-size="12" fill="#3b82f6" letter-spacing="2px" opacity="0.7">COMMITS</text>
        <text x="20" y="75" class="font-mono" font-weight="800" font-size="32" fill="#f3f4f6" style="animation: flicker 3s infinite;">1970</text>
        <circle cx="145" cy="25" r="3" fill="#06b6d4" style="animation: pulse 2s infinite;" />
      </g>
    
      <g transform="translate(380, 0)">
        <rect width="170" height="100" rx="16" fill="rgba(17, 24, 39, 0.7)" stroke="rgba(59, 130, 246, 0.3)" stroke-width="1" />
        <text x="20" y="40" class="font-sans" font-weight="600" font-size="12" fill="#3b82f6" letter-spacing="2px" opacity="0.7">PRs</text>
        <text x="20" y="75" class="font-mono" font-weight="800" font-size="32" fill="#f3f4f6" style="animation: flicker 4s infinite;">4</text>
        <circle cx="145" cy="25" r="3" fill="#06b6d4" style="animation: pulse 2s infinite;" />
      </g>
    
      <g transform="translate(570, 0)">
        <rect width="170" height="100" rx="16" fill="rgba(17, 24, 39, 0.7)" stroke="rgba(59, 130, 246, 0.3)" stroke-width="1" />
        <text x="20" y="40" class="font-sans" font-weight="600" font-size="12" fill="#3b82f6" letter-spacing="2px" opacity="0.7">REPOS</text>
        <text x="20" y="75" class="font-mono" font-weight="800" font-size="32" fill="#f3f4f6" style="animation: flicker 5s infinite;">43</text>
        <circle cx="145" cy="25" r="3" fill="#06b6d4" style="animation: pulse 2s infinite;" />
      </g>
    </g>
      
    <g transform="translate(60, 380)">
      <rect width="730" height="200" rx="20" fill="rgba(17, 24, 39, 0.7)" stroke="rgba(59, 130, 246, 0.3)" stroke-width="1" />
      <text x="25" y="35" class="font-sans" font-weight="700" font-size="18" fill="#f3f4f6">My Activity</text>
      <g transform="translate(15, 65)">
        <rect x="0" y="0" width="12" height="12" rx="2" fill="rgba(59, 130, 246, 0.4)"  /><rect x="0" y="16" width="12" height="12" rx="2" fill="rgba(59, 130, 246, 0.30000000000000004)"  /><rect x="0" y="32" width="12" height="12" rx="2" fill="rgba(59, 130, 246, 0.9)" style="animation: shimmer 2.076535807800209s infinite" /><rect x="0" y="48" width="12" height="12" rx="2" fill="rgba(59, 130, 246, 0.05)"  /><rect x="0" y="64" width="12" height="12" rx="2" fill="rgba(59, 130, 246, 0.05)"  /><rect x="0" y="80" width="12" height="12" rx="2" fill="rgba(59, 130, 246, 0.9)" style="animation: shimmer 2.6394907273158887s infinite" /><rect x="0" y="96" width="12" height="12" rx="2" fill="rgba(59, 130, 246, 0.05)"  /><rect x="16" y="0" width="12" height="12" rx="2" fill="rgba(59, 130, 246, 0.05)"  /><rect x="16" y="16" width="12" height="12" rx="2" fill="rgba(59, 130, 246, 0.05)"  /><rect x="16" y="32" width="12" height="12" rx="2" fill="rgba(59, 130, 246, 0.05)"  /><rect x="16" y="48" width="12" height="12" rx="2" fill="rgba(59, 130, 246, 0.6000000000000001)"  /><rect x="16" y="64" width="12" height="12" rx="2" fill="rgba(59, 130, 246, 0.7)"  /><rect x="16" y="80" width="12" height="12" rx="2" fill="rgba(59, 130, 246, 0.7)"  /><rect x="16" y="96" width="12" height="12" rx="2" fill="rgba(59, 130, 246, 0.05)"  /><rect x="32" y="0" width="12" height="12" rx="2" fill="rgba(59, 130, 246, 0.9)" style="animation: shimmer 2.2110297237612735s infinite" /><rect x="32" y="16" width="12" height="12" rx="2" fill="rgba(59, 130, 246, 0.9)" style="animation: shimmer 2.4756867732714456s infinite" /><rect x="32" y="32" width="12" height="12" rx="2" fill="rgba(59, 130, 246, 0.9)" style="animation: shimmer 2.6472959302752597s infinite" /><rect x="32" y="48" width="12" height="12" rx="2" fill="rgba(59, 130, 246, 0.8999999999999999)" style="animation: shimmer 2.0462728236289944s infinite" /><rect x="32" y="64" width="12" height="12" rx="2" fill="rgba(59, 130, 246, 0.7)"  /><rect x="32" y="80" width="12" height="12" rx="2" fill="rgba(59, 130, 246, 0.5)"  /><rect x="32" y="96" width="12" height="12" rx="2" fill="rgba(59, 130, 246, 0.8)" style="animation: shimmer 2.6074257169759583s infinite" /><rect x="48" y="0" width="12" height="12" rx="2" fill="rgba(59, 130, 246, 0.5)"  /><rect x="48" y="16" width="12" height="12" rx="2" fill="rgba(59, 130, 246, 0.4)"  /><rect x="48" y="32" width="12" height="12" rx="2" fill="rgba(59, 130, 246, 0.6000000000000001)"  /><rect x="48" y="48" width="12" height="12" rx="2" fill="rgba(59, 130, 246, 0.30000000000000004)"  /><rect x="48" y="64" width="12" height="12" rx="2" fill="rgba(59, 130, 246, 0.30000000000000004)"  /><rect x="48" y="80" width="12" height="12" rx="2" fill="rgba(59, 130, 246, 0.5)"  /><rect x="48" y="96" width="12" height="12" rx="2" fill="rgba(59, 130, 246, 0.05)"  /><rect x="64" y="0" width="12" height="12" rx="2" fill="rgba(59, 130, 246, 0.05)"  /><rect x="64" y="16" width="12" height="12" rx="2" fill="rgba(59, 130, 246, 0.05)"  /><rect x="64" y="32" width="12" height="12" rx="2" fill="rgba(59, 130, 246, 0.05)"  /><rect x="64" y="48" width="12" height="12" rx="2" fill="rgba(59, 130, 246, 0.05)"  /><rect x="64" y="64" width="12" height="12" rx="2" fill="rgba(59, 130, 246, 0.5)"  /><rect x="64" y="80" width="12" height="12" rx="2" fill="rgba(59, 130, 246, 0.9)" style="animation: shimmer 2.1359553872813724s infinite" /><rect x="64" y="96" width="12" height="12" rx="2" fill="rgba(59, 130, 246, 0.9)" style="animation: shimmer 2.8005007670356346s infinite" /><rect x="80" y="0" width="12" height="12" rx="2" fill="rgba(59, 130, 246, 0.8)" style="animation: shimmer 2.107441110117934s infinite" /><rect x="80" y="16" width="12" height="12" rx="2" fill="rgba(59, 130, 246, 0.9)" style="animation: shimmer 2.939658365091514s infinite" /><rect x="80" y="32" width="12" height="12" rx="2" fill="rgba(59, 130, 246, 0.5)"  /><rect x="80" y="48" width="12" height="12" rx="2" fill="rgba(59, 130, 246, 0.8999999999999999)" style="animation: shimmer 2.4620023904166026s infinite" /><rect x="80" y="64" width="12" height="12" rx="2" fill="rgba(59, 130, 246, 0.9)" style="animation: shimmer 2.674170428213686s infinite" /><rect x="80" y="80" width="12" height="12" rx="2" fill="rgba(59, 130, 246, 0.9)" style="animation: shimmer 2.145133642055927s infinite" /><rect x="80" y="96" width="12" height="12" rx="2" fill="rgba(59, 130, 246, 0.6000000000000001)"  /><rect x="96" y="0" width="12" height="12" rx="2" fill="rgba(59, 130, 246, 0.5)"  /><rect x="96" y="16" width="12" height="12" rx="2" fill="rgba(59, 130, 246, 0.05)"  /><rect x="96" y="32" width="12" height="12" rx="2" fill="rgba(59, 130, 246, 0.4)"  /><rect x="96" y="48" width="12" height="12" rx="2" fill="rgba(59, 130, 246, 0.05)"  /><rect x="96" y="64" width="12" height="12" rx="2" fill="rgba(59, 130, 246, 0.6000000000000001)"  /><rect x="96" y="80" width="12" height="12" rx="2" fill="rgba(59, 130, 246, 0.05)"  /><rect x="96" y="96" width="12" height="12" rx="2" fill="rgba(59, 130, 246, 0.6000000000000001)"  /><rect x="112" y="0" width="12" height="12" rx="2" fill="rgba(59, 130, 246, 0.5)"  /><rect x="112" y="16" width="12" height="12" rx="2" fill="rgba(59, 130, 246, 0.05)"  /><rect x="112" y="32" width="12" height="12" rx="2" fill="rgba(59, 130, 246, 0.8)" style="animation: shimmer 2.903670000956516s infinite" /><rect x="112" y="48" width="12" height="12" rx="2" fill="rgba(59, 130, 246, 0.9)" style="animation: shimmer 2.461105667104886s infinite" /><rect x="112" y="64" width="12" height="12" rx="2" fill="rgba(59, 130, 246, 0.6000000000000001)"  /><rect x="112" y="80" width="12" height="12" rx="2" fill="rgba(59, 130, 246, 0.05)"  /><rect x="112" y="96" width="12" height="12" rx="2" fill="rgba(59, 130, 246, 0.05)"  /><rect x="128" y="0" width="12" height="12" rx="2" fill="rgba(59, 130, 246, 0.30000000000000004)"  /><rect x="128" y="16" width="12" height="12" rx="2" fill="rgba(59, 130, 246, 0.05)"  /><rect x="128" y="32" width="12" height="12" rx="2" fill="rgba(59, 130, 246, 0.05)"  /><rect x="128" y="48" width="12" height="12" rx="2" fill="rgba(59, 130, 246, 0.05)"  /><rect x="128" y="64" width="12" height="12" rx="2" fill="rgba(59, 130, 246, 0.05)"  /><rect x="128" y="80" width="12" height="12" rx="2" fill="rgba(59, 130, 246, 0.05)"  /><rect x="128" y="96" width="12" height="12" rx="2" fill="rgba(59, 130, 246, 0.05)"  /><rect x="144" y="0" width="12" height="12" rx="2" fill="rgba(59, 130, 246, 0.4)"  /><rect x="144" y="16" width="12" height="12" rx="2" fill="rgba(59, 130, 246, 0.9)" style="animation: shimmer 2.0808210905233984s infinite" /><rect x="144" y="32" width="12" height="12" rx="2" fill="rgba(59, 130, 246, 0.8999999999999999)" style="animation: shimmer 2.6749865436860905s infinite" /><rect x="144" y="48" width="12" height="12" rx="2" fill="rgba(59, 130, 246, 0.6000000000000001)"  /><rect x="144" y="64" width="12" height="12" rx="2" fill="rgba(59, 130, 246, 0.4)"  /><rect x="144" y="80" width="12" height="12" rx="2" fill="rgba(59, 130, 246, 0.6000000000000001)"  /><rect x="144" y="96" width="12" height="12" rx="2" fill="rgba(59, 130, 246, 0.30000000000000004)"  /><rect x="160" y="0" width="12" height="12" rx="2" fill="rgba(59, 130, 246, 0.4)"  /><rect x="160" y="16" width="12" height="12" rx="2" fill="rgba(59, 130, 246, 0.9)" style="animation: shimmer 2.2610836491636213s infinite" /><rect x="160" y="32" width="12" height="12" rx="2" fill="rgba(59, 130, 246, 0.9)" style="animation: shimmer 2.9817780869467327s infinite" /><rect x="160" y="48" width="12" height="12" rx="2" fill="rgba(59, 130, 246, 0.05)"  /><rect x="160" y="64" width="12" height="12" rx="2" fill="rgba(59, 130, 246, 0.4)"  /><rect x="160" y="80" width="12" height="12" rx="2" fill="rgba(59, 130, 246, 0.8)" style="animation: shimmer 2.2907321299305328s infinite" /><rect x="160" y="96" width="12" height="12" rx="2" fill="rgba(59, 130, 246, 0.30000000000000004)"  /><rect x="176" y="0" width="12" height="12" rx="2" fill="rgba(59, 130, 246, 0.5)"  /><rect x="176" y="16" width="12" height="12" rx="2" fill="rgba(59, 130, 246, 0.9)" style="animation: shimmer 2.895087469449124s infinite" /><rect x="176" y="32" width="12" height="12" rx="2" fill="rgba(59, 130, 246, 0.9)" style="animation: shimmer 2.4834297722141008s infinite" /><rect x="176" y="48" width="12" height="12" rx="2" fill="rgba(59, 130, 246, 0.9)" style="animation: shimmer 2.4867747622366814s infinite" /><rect x="176" y="64" width="12" height="12" rx="2" fill="rgba(59, 130, 246, 0.4)"  /><rect x="176" y="80" width="12" height="12" rx="2" fill="rgba(59, 130, 246, 0.9)" style="animation: shimmer 2.8733405068052287s infinite" /><rect x="176" y="96" width="12" height="12" rx="2" fill="rgba(59, 130, 246, 0.9)" style="animation: shimmer 2.716874677137424s infinite" /><rect x="192" y="0" width="12" height="12" rx="2" fill="rgba(59, 130, 246, 0.9)" style="animation: shimmer 2.742474998428935s infinite" /><rect x="192" y="16" width="12" height="12" rx="2" fill="rgba(59, 130, 246, 0.9)" style="animation: shimmer 2.395308268604511s infinite" /><rect x="192" y="32" width="12" height="12" rx="2" fill="rgba(59, 130, 246, 0.9)" style="animation: shimmer 2.9777820584715093s infinite" /><rect x="192" y="48" width="12" height="12" rx="2" fill="rgba(59, 130, 246, 0.9)" style="animation: shimmer 2.175906933353869s infinite" /><rect x="192" y="64" width="12" height="12" rx="2" fill="rgba(59, 130, 246, 0.9)" style="animation: shimmer 2.5999120682406662s infinite" /><rect x="192" y="80" width="12" height="12" rx="2" fill="rgba(59, 130, 246, 0.9)" style="animation: shimmer 2.7355330345833084s infinite" /><rect x="192" y="96" width="12" height="12" rx="2" fill="rgba(59, 130, 246, 0.9)" style="animation: shimmer 2.9986008896806315s infinite" /><rect x="208" y="0" width="12" height="12" rx="2" fill="rgba(59, 130, 246, 0.9)" style="animation: shimmer 2.966708469861217s infinite" /><rect x="208" y="16" width="12" height="12" rx="2" fill="rgba(59, 130, 246, 0.9)" style="animation: shimmer 2.600637368927485s infinite" /><rect x="208" y="32" width="12" height="12" rx="2" fill="rgba(59, 130, 246, 0.8999999999999999)" style="animation: shimmer 2.985361833719107s infinite" /><rect x="208" y="48" width="12" height="12" rx="2" fill="rgba(59, 130, 246, 0.9)" style="animation: shimmer 2.949229385666397s infinite" /><rect x="208" y="64" width="12" height="12" rx="2" fill="rgba(59, 130, 246, 0.9)" style="animation: shimmer 2.7954807212174018s infinite" /><rect x="208" y="80" width="12" height="12" rx="2" fill="rgba(59, 130, 246, 0.9)" style="animation: shimmer 2.0743319761903165s infinite" /><rect x="208" y="96" width="12" height="12" rx="2" fill="rgba(59, 130, 246, 0.4)"  /><rect x="224" y="0" width="12" height="12" rx="2" fill="rgba(59, 130, 246, 0.8999999999999999)" style="animation: shimmer 2.2410910849224566s infinite" /><rect x="224" y="16" width="12" height="12" rx="2" fill="rgba(59, 130, 246, 0.9)" style="animation: shimmer 2.224614238884092s infinite" /><rect x="224" y="32" width="12" height="12" rx="2" fill="rgba(59, 130, 246, 0.9)" style="animation: shimmer 2.834163734320786s infinite" /><rect x="224" y="48" width="12" height="12" rx="2" fill="rgba(59, 130, 246, 0.9)" style="animation: shimmer 2.4165404126286063s infinite" /><rect x="224" y="64" width="12" height="12" rx="2" fill="rgba(59, 130, 246, 0.9)" style="animation: shimmer 2.0058238993385276s infinite" /><rect x="224" y="80" width="12" height="12" rx="2" fill="rgba(59, 130, 246, 0.9)" style="animation: shimmer 2.3504752785994003s infinite" /><rect x="224" y="96" width="12" height="12" rx="2" fill="rgba(59, 130, 246, 0.9)" style="animation: shimmer 2.943974449667586s infinite" /><rect x="240" y="0" width="12" height="12" rx="2" fill="rgba(59, 130, 246, 0.5)"  /><rect x="240" y="16" width="12" height="12" rx="2" fill="rgba(59, 130, 246, 0.05)"  /><rect x="240" y="32" width="12" height="12" rx="2" fill="rgba(59, 130, 246, 0.8)" style="animation: shimmer 2.8252318280588096s infinite" /><rect x="240" y="48" width="12" height="12" rx="2" fill="rgba(59, 130, 246, 0.9)" style="animation: shimmer 2.2518209165309333s infinite" /><rect x="240" y="64" width="12" height="12" rx="2" fill="rgba(59, 130, 246, 0.9)" style="animation: shimmer 2.6077455055943664s infinite" /><rect x="240" y="80" width="12" height="12" rx="2" fill="rgba(59, 130, 246, 0.05)"  /><rect x="240" y="96" width="12" height="12" rx="2" fill="rgba(59, 130, 246, 0.05)"  /><rect x="256" y="0" width="12" height="12" rx="2" fill="rgba(59, 130, 246, 0.05)"  /><rect x="256" y="16" width="12" height="12" rx="2" fill="rgba(59, 130, 246, 0.9)" style="animation: shimmer 2.4366096902370753s infinite" /><rect x="256" y="32" width="12" height="12" rx="2" fill="rgba(59, 130, 246, 0.9)" style="animation: shimmer 2.64722154121618s infinite" /><rect x="256" y="48" width="12" height="12" rx="2" fill="rgba(59, 130, 246, 0.7)"  /><rect x="256" y="64" width="12" height="12" rx="2" fill="rgba(59, 130, 246, 0.9)" style="animation: shimmer 2.8790099677690444s infinite" /><rect x="256" y="80" width="12" height="12" rx="2" fill="rgba(59, 130, 246, 0.9)" style="animation: shimmer 2.1891840803433364s infinite" /><rect x="256" y="96" width="12" height="12" rx="2" fill="rgba(59, 130, 246, 0.7)"  /><rect x="272" y="0" width="12" height="12" rx="2" fill="rgba(59, 130, 246, 0.05)"  /><rect x="272" y="16" width="12" height="12" rx="2" fill="rgba(59, 130, 246, 0.7)"  /><rect x="272" y="32" width="12" height="12" rx="2" fill="rgba(59, 130, 246, 0.9)" style="animation: shimmer 2.3920396127611925s infinite" /><rect x="272" y="48" width="12" height="12" rx="2" fill="rgba(59, 130, 246, 0.9)" style="animation: shimmer 2.7972196843627666s infinite" /><rect x="272" y="64" width="12" height="12" rx="2" fill="rgba(59, 130, 246, 0.05)"  /><rect x="272" y="80" width="12" height="12" rx="2" fill="rgba(59, 130, 246, 0.9)" style="animation: shimmer 2.601256978395256s infinite" /><rect x="272" y="96" width="12" height="12" rx="2" fill="rgba(59, 130, 246, 0.9)" style="animation: shimmer 2.1097872667254762s infinite" /><rect x="288" y="0" width="12" height="12" rx="2" fill="rgba(59, 130, 246, 0.9)" style="animation: shimmer 2.406757920072424s infinite" /><rect x="288" y="16" width="12" height="12" rx="2" fill="rgba(59, 130, 246, 0.6000000000000001)"  /><rect x="288" y="32" width="12" height="12" rx="2" fill="rgba(59, 130, 246, 0.9)" style="animation: shimmer 2.133708075139494s infinite" /><rect x="288" y="48" width="12" height="12" rx="2" fill="rgba(59, 130, 246, 0.7)"  /><rect x="288" y="64" width="12" height="12" rx="2" fill="rgba(59, 130, 246, 0.4)"  /><rect x="288" y="80" width="12" height="12" rx="2" fill="rgba(59, 130, 246, 0.05)"  /><rect x="288" y="96" width="12" height="12" rx="2" fill="rgba(59, 130, 246, 0.9)" style="animation: shimmer 2.973275522689753s infinite" /><rect x="304" y="0" width="12" height="12" rx="2" fill="rgba(59, 130, 246, 0.05)"  /><rect x="304" y="16" width="12" height="12" rx="2" fill="rgba(59, 130, 246, 0.30000000000000004)"  /><rect x="304" y="32" width="12" height="12" rx="2" fill="rgba(59, 130, 246, 0.05)"  /><rect x="304" y="48" width="12" height="12" rx="2" fill="rgba(59, 130, 246, 0.05)"  /><rect x="304" y="64" width="12" height="12" rx="2" fill="rgba(59, 130, 246, 0.05)"  /><rect x="304" y="80" width="12" height="12" rx="2" fill="rgba(59, 130, 246, 0.05)"  /><rect x="304" y="96" width="12" height="12" rx="2" fill="rgba(59, 130, 246, 0.05)"  /><rect x="320" y="0" width="12" height="12" rx="2" fill="rgba(59, 130, 246, 0.7)"  /><rect x="320" y="16" width="12" height="12" rx="2" fill="rgba(59, 130, 246, 0.4)"  /><rect x="320" y="32" width="12" height="12" rx="2" fill="rgba(59, 130, 246, 0.05)"  /><rect x="320" y="48" width="12" height="12" rx="2" fill="rgba(59, 130, 246, 0.30000000000000004)"  /><rect x="320" y="64" width="12" height="12" rx="2" fill="rgba(59, 130, 246, 0.05)"  /><rect x="320" y="80" width="12" height="12" rx="2" fill="rgba(59, 130, 246, 0.05)"  /><rect x="320" y="96" width="12" height="12" rx="2" fill="rgba(59, 130, 246, 0.05)"  /><rect x="336" y="0" width="12" height="12" rx="2" fill="rgba(59, 130, 246, 0.6000000000000001)"  /><rect x="336" y="16" width="12" height="12" rx="2" fill="rgba(59, 130, 246, 0.05)"  /><rect x="336" y="32" width="12" height="12" rx="2" fill="rgba(59, 130, 246, 0.05)"  /><rect x="336" y="48" width="12" height="12" rx="2" fill="rgba(59, 130, 246, 0.05)"  /><rect x="336" y="64" width="12" height="12" rx="2" fill="rgba(59, 130, 246, 0.9)" style="animation: shimmer 2.4523206686554486s infinite" /><rect x="336" y="80" width="12" height="12" rx="2" fill="rgba(59, 130, 246, 0.9)" style="animation: shimmer 2.315676328339605s infinite" /><rect x="336" y="96" width="12" height="12" rx="2" fill="rgba(59, 130, 246, 0.9)" style="animation: shimmer 2.6500208889237884s infinite" /><rect x="352" y="0" width="12" height="12" rx="2" fill="rgba(59, 130, 246, 0.9)" style="animation: shimmer 2.421113803246967s infinite" /><rect x="352" y="16" width="12" height="12" rx="2" fill="rgba(59, 130, 246, 0.9)" style="animation: shimmer 2.3101392102153913s infinite" /><rect x="352" y="32" width="12" height="12" rx="2" fill="rgba(59, 130, 246, 0.8)" style="animation: shimmer 2.279050576069372s infinite" /><rect x="352" y="48" width="12" height="12" rx="2" fill="rgba(59, 130, 246, 0.5)"  /><rect x="352" y="64" width="12" height="12" rx="2" fill="rgba(59, 130, 246, 0.9)" style="animation: shimmer 2.2097138001951278s infinite" /><rect x="352" y="80" width="12" height="12" rx="2" fill="rgba(59, 130, 246, 0.9)" style="animation: shimmer 2.0456949386650027s infinite" /><rect x="352" y="96" width="12" height="12" rx="2" fill="rgba(59, 130, 246, 0.9)" style="animation: shimmer 2.1379574155120626s infinite" /><rect x="368" y="0" width="12" height="12" rx="2" fill="rgba(59, 130, 246, 0.05)"  /><rect x="368" y="16" width="12" height="12" rx="2" fill="rgba(59, 130, 246, 0.9)" style="animation: shimmer 2.4162110567003734s infinite" /><rect x="368" y="32" width="12" height="12" rx="2" fill="rgba(59, 130, 246, 0.9)" style="animation: shimmer 2.9253905524220842s infinite" /><rect x="368" y="48" width="12" height="12" rx="2" fill="rgba(59, 130, 246, 0.9)" style="animation: shimmer 2.9099337870144457s infinite" /><rect x="368" y="64" width="12" height="12" rx="2" fill="rgba(59, 130, 246, 0.9)" style="animation: shimmer 2.5789984683710054s infinite" /><rect x="368" y="80" width="12" height="12" rx="2" fill="rgba(59, 130, 246, 0.9)" style="animation: shimmer 2.0751547346696495s infinite" /><rect x="368" y="96" width="12" height="12" rx="2" fill="rgba(59, 130, 246, 0.9)" style="animation: shimmer 2.231698569056535s infinite" /><rect x="384" y="0" width="12" height="12" rx="2" fill="rgba(59, 130, 246, 0.9)" style="animation: shimmer 2.0076973784016263s infinite" /><rect x="384" y="16" width="12" height="12" rx="2" fill="rgba(59, 130, 246, 0.9)" style="animation: shimmer 2.3182935610739404s infinite" /><rect x="384" y="32" width="12" height="12" rx="2" fill="rgba(59, 130, 246, 0.9)" style="animation: shimmer 2.4215670202928488s infinite" /><rect x="384" y="48" width="12" height="12" rx="2" fill="rgba(59, 130, 246, 0.9)" style="animation: shimmer 2.1219242715039006s infinite" /><rect x="384" y="64" width="12" height="12" rx="2" fill="rgba(59, 130, 246, 0.30000000000000004)"  /><rect x="384" y="80" width="12" height="12" rx="2" fill="rgba(59, 130, 246, 0.9)" style="animation: shimmer 2.2220254669149178s infinite" /><rect x="384" y="96" width="12" height="12" rx="2" fill="rgba(59, 130, 246, 0.30000000000000004)"  /><rect x="400" y="0" width="12" height="12" rx="2" fill="rgba(59, 130, 246, 0.05)"  /><rect x="400" y="16" width="12" height="12" rx="2" fill="rgba(59, 130, 246, 0.7)"  /><rect x="400" y="32" width="12" height="12" rx="2" fill="rgba(59, 130, 246, 0.9)" style="animation: shimmer 2.7116942176095318s infinite" /><rect x="400" y="48" width="12" height="12" rx="2" fill="rgba(59, 130, 246, 0.9)" style="animation: shimmer 2.815839435282673s infinite" /><rect x="400" y="64" width="12" height="12" rx="2" fill="rgba(59, 130, 246, 0.30000000000000004)"  /><rect x="400" y="80" width="12" height="12" rx="2" fill="rgba(59, 130, 246, 0.4)"  /><rect x="400" y="96" width="12" height="12" rx="2" fill="rgba(59, 130, 246, 0.8)" style="animation: shimmer 2.4342158002634617s infinite" /><rect x="416" y="0" width="12" height="12" rx="2" fill="rgba(59, 130, 246, 0.9)" style="animation: shimmer 2.312368365236267s infinite" /><rect x="416" y="16" width="12" height="12" rx="2" fill="rgba(59, 130, 246, 0.9)" style="animation: shimmer 2.0020426038290795s infinite" /><rect x="416" y="32" width="12" height="12" rx="2" fill="rgba(59, 130, 246, 0.9)" style="animation: shimmer 2.907933354146303s infinite" /><rect x="416" y="48" width="12" height="12" rx="2" fill="rgba(59, 130, 246, 0.9)" style="animation: shimmer 2.537696265864627s infinite" /><rect x="416" y="64" width="12" height="12" rx="2" fill="rgba(59, 130, 246, 0.9)" style="animation: shimmer 2.626860584521059s infinite" /><rect x="416" y="80" width="12" height="12" rx="2" fill="rgba(59, 130, 246, 0.9)" style="animation: shimmer 2.6511664369789716s infinite" /><rect x="416" y="96" width="12" height="12" rx="2" fill="rgba(59, 130, 246, 0.9)" style="animation: shimmer 2.9994766024041692s infinite" /><rect x="432" y="0" width="12" height="12" rx="2" fill="rgba(59, 130, 246, 0.9)" style="animation: shimmer 2.329593459561342s infinite" /><rect x="432" y="16" width="12" height="12" rx="2" fill="rgba(59, 130, 246, 0.9)" style="animation: shimmer 2.7619907342868553s infinite" /><rect x="432" y="32" width="12" height="12" rx="2" fill="rgba(59, 130, 246, 0.05)"  /><rect x="432" y="48" width="12" height="12" rx="2" fill="rgba(59, 130, 246, 0.4)"  /><rect x="432" y="64" width="12" height="12" rx="2" fill="rgba(59, 130, 246, 0.9)" style="animation: shimmer 2.1443140869616117s infinite" /><rect x="432" y="80" width="12" height="12" rx="2" fill="rgba(59, 130, 246, 0.9)" style="animation: shimmer 2.579004695929493s infinite" /><rect x="432" y="96" width="12" height="12" rx="2" fill="rgba(59, 130, 246, 0.8)" style="animation: shimmer 2.993400208466532s infinite" /><rect x="448" y="0" width="12" height="12" rx="2" fill="rgba(59, 130, 246, 0.8999999999999999)" style="animation: shimmer 2.987383932935243s infinite" /><rect x="448" y="16" width="12" height="12" rx="2" fill="rgba(59, 130, 246, 0.9)" style="animation: shimmer 2.056259529886623s infinite" /><rect x="448" y="32" width="12" height="12" rx="2" fill="rgba(59, 130, 246, 0.05)"  /><rect x="448" y="48" width="12" height="12" rx="2" fill="rgba(59, 130, 246, 0.8)" style="animation: shimmer 2.2987749964640245s infinite" /><rect x="448" y="64" width="12" height="12" rx="2" fill="rgba(59, 130, 246, 0.05)"  /><rect x="448" y="80" width="12" height="12" rx="2" fill="rgba(59, 130, 246, 0.30000000000000004)"  /><rect x="448" y="96" width="12" height="12" rx="2" fill="rgba(59, 130, 246, 0.9)" style="animation: shimmer 2.119759691289104s infinite" /><rect x="464" y="0" width="12" height="12" rx="2" fill="rgba(59, 130, 246, 0.30000000000000004)"  /><rect x="464" y="16" width="12" height="12" rx="2" fill="rgba(59, 130, 246, 0.05)"  /><rect x="464" y="32" width="12" height="12" rx="2" fill="rgba(59, 130, 246, 0.05)"  /><rect x="464" y="48" width="12" height="12" rx="2" fill="rgba(59, 130, 246, 0.05)"  /><rect x="464" y="64" width="12" height="12" rx="2" fill="rgba(59, 130, 246, 0.05)"  /><rect x="464" y="80" width="12" height="12" rx="2" fill="rgba(59, 130, 246, 0.05)"  /><rect x="464" y="96" width="12" height="12" rx="2" fill="rgba(59, 130, 246, 0.05)"  /><rect x="480" y="0" width="12" height="12" rx="2" fill="rgba(59, 130, 246, 0.9)" style="animation: shimmer 2.2438478700716877s infinite" /><rect x="480" y="16" width="12" height="12" rx="2" fill="rgba(59, 130, 246, 0.05)"  /><rect x="480" y="32" width="12" height="12" rx="2" fill="rgba(59, 130, 246, 0.05)"  /><rect x="480" y="48" width="12" height="12" rx="2" fill="rgba(59, 130, 246, 0.05)"  /><rect x="480" y="64" width="12" height="12" rx="2" fill="rgba(59, 130, 246, 0.8999999999999999)" style="animation: shimmer 2.0118484818223394s infinite" /><rect x="480" y="80" width="12" height="12" rx="2" fill="rgba(59, 130, 246, 0.4)"  /><rect x="480" y="96" width="12" height="12" rx="2" fill="rgba(59, 130, 246, 0.05)"  /><rect x="496" y="0" width="12" height="12" rx="2" fill="rgba(59, 130, 246, 0.05)"  /><rect x="496" y="16" width="12" height="12" rx="2" fill="rgba(59, 130, 246, 0.05)"  /><rect x="496" y="32" width="12" height="12" rx="2" fill="rgba(59, 130, 246, 0.05)"  /><rect x="496" y="48" width="12" height="12" rx="2" fill="rgba(59, 130, 246, 0.05)"  /><rect x="496" y="64" width="12" height="12" rx="2" fill="rgba(59, 130, 246, 0.05)"  /><rect x="496" y="80" width="12" height="12" rx="2" fill="rgba(59, 130, 246, 0.05)"  /><rect x="496" y="96" width="12" height="12" rx="2" fill="rgba(59, 130, 246, 0.05)"  /><rect x="512" y="0" width="12" height="12" rx="2" fill="rgba(59, 130, 246, 0.05)"  /><rect x="512" y="16" width="12" height="12" rx="2" fill="rgba(59, 130, 246, 0.05)"  /><rect x="512" y="32" width="12" height="12" rx="2" fill="rgba(59, 130, 246, 0.05)"  /><rect x="512" y="48" width="12" height="12" rx="2" fill="rgba(59, 130, 246, 0.05)"  /><rect x="512" y="64" width="12" height="12" rx="2" fill="rgba(59, 130, 246, 0.05)"  /><rect x="512" y="80" width="12" height="12" rx="2" fill="rgba(59, 130, 246, 0.05)"  /><rect x="512" y="96" width="12" height="12" rx="2" fill="rgba(59, 130, 246, 0.05)"  /><rect x="528" y="0" width="12" height="12" rx="2" fill="rgba(59, 130, 246, 0.05)"  /><rect x="528" y="16" width="12" height="12" rx="2" fill="rgba(59, 130, 246, 0.05)"  /><rect x="528" y="32" width="12" height="12" rx="2" fill="rgba(59, 130, 246, 0.05)"  /><rect x="528" y="48" width="12" height="12" rx="2" fill="rgba(59, 130, 246, 0.05)"  /><rect x="528" y="64" width="12" height="12" rx="2" fill="rgba(59, 130, 246, 0.05)"  /><rect x="528" y="80" width="12" height="12" rx="2" fill="rgba(59, 130, 246, 0.05)"  /><rect x="528" y="96" width="12" height="12" rx="2" fill="rgba(59, 130, 246, 0.05)"  /><rect x="544" y="0" width="12" height="12" rx="2" fill="rgba(59, 130, 246, 0.05)"  /><rect x="544" y="16" width="12" height="12" rx="2" fill="rgba(59, 130, 246, 0.05)"  /><rect x="544" y="32" width="12" height="12" rx="2" fill="rgba(59, 130, 246, 0.05)"  /><rect x="544" y="48" width="12" height="12" rx="2" fill="rgba(59, 130, 246, 0.05)"  /><rect x="544" y="64" width="12" height="12" rx="2" fill="rgba(59, 130, 246, 0.05)"  /><rect x="544" y="80" width="12" height="12" rx="2" fill="rgba(59, 130, 246, 0.05)"  /><rect x="544" y="96" width="12" height="12" rx="2" fill="rgba(59, 130, 246, 0.05)"  /><rect x="560" y="0" width="12" height="12" rx="2" fill="rgba(59, 130, 246, 0.30000000000000004)"  /><rect x="560" y="16" width="12" height="12" rx="2" fill="rgba(59, 130, 246, 0.30000000000000004)"  /><rect x="560" y="32" width="12" height="12" rx="2" fill="rgba(59, 130, 246, 0.05)"  /><rect x="560" y="48" width="12" height="12" rx="2" fill="rgba(59, 130, 246, 0.05)"  /><rect x="560" y="64" width="12" height="12" rx="2" fill="rgba(59, 130, 246, 0.05)"  /><rect x="560" y="80" width="12" height="12" rx="2" fill="rgba(59, 130, 246, 0.05)"  /><rect x="560" y="96" width="12" height="12" rx="2" fill="rgba(59, 130, 246, 0.6000000000000001)"  /><rect x="576" y="0" width="12" height="12" rx="2" fill="rgba(59, 130, 246, 0.05)"  /><rect x="576" y="16" width="12" height="12" rx="2" fill="rgba(59, 130, 246, 0.05)"  /><rect x="576" y="32" width="12" height="12" rx="2" fill="rgba(59, 130, 246, 0.05)"  /><rect x="576" y="48" width="12" height="12" rx="2" fill="rgba(59, 130, 246, 0.05)"  /><rect x="576" y="64" width="12" height="12" rx="2" fill="rgba(59, 130, 246, 0.05)"  /><rect x="576" y="80" width="12" height="12" rx="2" fill="rgba(59, 130, 246, 0.05)"  /><rect x="576" y="96" width="12" height="12" rx="2" fill="rgba(59, 130, 246, 0.05)"  /><rect x="592" y="0" width="12" height="12" rx="2" fill="rgba(59, 130, 246, 0.05)"  /><rect x="592" y="16" width="12" height="12" rx="2" fill="rgba(59, 130, 246, 0.05)"  /><rect x="592" y="32" width="12" height="12" rx="2" fill="rgba(59, 130, 246, 0.05)"  /><rect x="592" y="48" width="12" height="12" rx="2" fill="rgba(59, 130, 246, 0.05)"  /><rect x="592" y="64" width="12" height="12" rx="2" fill="rgba(59, 130, 246, 0.05)"  /><rect x="592" y="80" width="12" height="12" rx="2" fill="rgba(59, 130, 246, 0.05)"  /><rect x="592" y="96" width="12" height="12" rx="2" fill="rgba(59, 130, 246, 0.05)"  /><rect x="608" y="0" width="12" height="12" rx="2" fill="rgba(59, 130, 246, 0.9)" style="animation: shimmer 2.5735049343072776s infinite" /><rect x="608" y="16" width="12" height="12" rx="2" fill="rgba(59, 130, 246, 0.5)"  /><rect x="608" y="32" width="12" height="12" rx="2" fill="rgba(59, 130, 246, 0.6000000000000001)"  /><rect x="608" y="48" width="12" height="12" rx="2" fill="rgba(59, 130, 246, 0.05)"  /><rect x="608" y="64" width="12" height="12" rx="2" fill="rgba(59, 130, 246, 0.7)"  /><rect x="608" y="80" width="12" height="12" rx="2" fill="rgba(59, 130, 246, 0.05)"  /><rect x="608" y="96" width="12" height="12" rx="2" fill="rgba(59, 130, 246, 0.05)"  /><rect x="624" y="0" width="12" height="12" rx="2" fill="rgba(59, 130, 246, 0.05)"  /><rect x="624" y="16" width="12" height="12" rx="2" fill="rgba(59, 130, 246, 0.05)"  /><rect x="624" y="32" width="12" height="12" rx="2" fill="rgba(59, 130, 246, 0.05)"  /><rect x="624" y="48" width="12" height="12" rx="2" fill="rgba(59, 130, 246, 0.05)"  /><rect x="624" y="64" width="12" height="12" rx="2" fill="rgba(59, 130, 246, 0.9)" style="animation: shimmer 2.8265488487270995s infinite" /><rect x="624" y="80" width="12" height="12" rx="2" fill="rgba(59, 130, 246, 0.05)"  /><rect x="624" y="96" width="12" height="12" rx="2" fill="rgba(59, 130, 246, 0.05)"  /><rect x="640" y="0" width="12" height="12" rx="2" fill="rgba(59, 130, 246, 0.05)"  /><rect x="640" y="16" width="12" height="12" rx="2" fill="rgba(59, 130, 246, 0.05)"  /><rect x="640" y="32" width="12" height="12" rx="2" fill="rgba(59, 130, 246, 0.05)"  /><rect x="640" y="48" width="12" height="12" rx="2" fill="rgba(59, 130, 246, 0.05)"  /><rect x="640" y="64" width="12" height="12" rx="2" fill="rgba(59, 130, 246, 0.05)"  /><rect x="640" y="80" width="12" height="12" rx="2" fill="rgba(59, 130, 246, 0.05)"  /><rect x="640" y="96" width="12" height="12" rx="2" fill="rgba(59, 130, 246, 0.05)"  /><rect x="656" y="0" width="12" height="12" rx="2" fill="rgba(59, 130, 246, 0.9)" style="animation: shimmer 2.8330864062948065s infinite" /><rect x="656" y="16" width="12" height="12" rx="2" fill="rgba(59, 130, 246, 0.05)"  /><rect x="656" y="32" width="12" height="12" rx="2" fill="rgba(59, 130, 246, 0.05)"  /><rect x="656" y="48" width="12" height="12" rx="2" fill="rgba(59, 130, 246, 0.30000000000000004)"  /><rect x="656" y="64" width="12" height="12" rx="2" fill="rgba(59, 130, 246, 0.05)"  /><rect x="656" y="80" width="12" height="12" rx="2" fill="rgba(59, 130, 246, 0.05)"  /><rect x="656" y="96" width="12" height="12" rx="2" fill="rgba(59, 130, 246, 0.05)"  /><rect x="672" y="0" width="12" height="12" rx="2" fill="rgba(59, 130, 246, 0.05)"  /><rect x="672" y="16" width="12" height="12" rx="2" fill="rgba(59, 130, 246, 0.7)"  /><rect x="672" y="32" width="12" height="12" rx="2" fill="rgba(59, 130, 246, 0.05)"  /><rect x="672" y="48" width="12" height="12" rx="2" fill="rgba(59, 130, 246, 0.05)"  /><rect x="672" y="64" width="12" height="12" rx="2" fill="rgba(59, 130, 246, 0.7)"  /><rect x="672" y="80" width="12" height="12" rx="2" fill="rgba(59, 130, 246, 0.4)"  /><rect x="672" y="96" width="12" height="12" rx="2" fill="rgba(59, 130, 246, 0.9)" style="animation: shimmer 2.724220593539923s infinite" /><rect x="688" y="0" width="12" height="12" rx="2" fill="rgba(59, 130, 246, 0.05)"  />
      </g>
    </g>
  
      <g transform="translate(60, 640)">
    <text x="0" y="0" class="font-sans" font-weight="700" font-size="18" fill="#f3f4f6">Top Works</text>
  
      <g transform="translate(0, 30)">
        <rect width="355" height="130" rx="20" fill="rgba(17, 24, 39, 0.7)" stroke="rgba(59, 130, 246, 0.3)" stroke-width="1" />
        <text x="20" y="35" class="font-mono" font-weight="700" font-size="16" fill="#f3f4f6">altus-ui</text>
        <text x="20" y="65" class="font-sans" font-size="13" fill="#9ca3af" width="310">Multi Themed UI component library. Built for performance ...</text>
        <g transform="translate(20, 100)">
          <circle cx="6" cy="-4" r="5" fill="#3178c6" filter="url(#glow)" />
          <text x="18" y="0" class="font-sans" font-size="12" fill="#9ca3af">TypeScript</text>
          <text x="280" y="0" class="font-mono" font-size="12" fill="#06b6d4">★ 3</text>
        </g>
      </g>
    
      <g transform="translate(375, 30)">
        <rect width="355" height="130" rx="20" fill="rgba(17, 24, 39, 0.7)" stroke="rgba(59, 130, 246, 0.3)" stroke-width="1" />
        <text x="20" y="35" class="font-mono" font-weight="700" font-size="16" fill="#f3f4f6">Portel</text>
        <text x="20" y="65" class="font-sans" font-size="13" fill="#9ca3af" width="310">Host you&apos;re very own website inside a minecraft server fo...</text>
        <g transform="translate(20, 100)">
          <circle cx="6" cy="-4" r="5" fill="#b07219" filter="url(#glow)" />
          <text x="18" y="0" class="font-sans" font-size="12" fill="#9ca3af">Java</text>
          <text x="280" y="0" class="font-mono" font-size="12" fill="#06b6d4">★ 3</text>
        </g>
      </g>
    
      <g transform="translate(0, 180)">
        <rect width="355" height="130" rx="20" fill="rgba(17, 24, 39, 0.7)" stroke="rgba(59, 130, 246, 0.3)" stroke-width="1" />
        <text x="20" y="35" class="font-mono" font-weight="700" font-size="16" fill="#f3f4f6">RTP</text>
        <text x="20" y="65" class="font-sans" font-size="13" fill="#9ca3af" width="310">Random Teleport plugin updated for modern Paper servers</text>
        <g transform="translate(20, 100)">
          <circle cx="6" cy="-4" r="5" fill="#b07219" filter="url(#glow)" />
          <text x="18" y="0" class="font-sans" font-size="12" fill="#9ca3af">Java</text>
          <text x="280" y="0" class="font-mono" font-size="12" fill="#06b6d4">★ 1</text>
        </g>
      </g>
    
      <g transform="translate(375, 180)">
        <rect width="355" height="130" rx="20" fill="rgba(17, 24, 39, 0.7)" stroke="rgba(59, 130, 246, 0.3)" stroke-width="1" />
        <text x="20" y="35" class="font-mono" font-weight="700" font-size="16" fill="#f3f4f6">Sublet</text>
        <text x="20" y="65" class="font-sans" font-size="13" fill="#9ca3af" width="310">Create, Manage, Run multiple independent Minecraft sub/mi...</text>
        <g transform="translate(20, 100)">
          <circle cx="6" cy="-4" r="5" fill="#b07219" filter="url(#glow)" />
          <text x="18" y="0" class="font-sans" font-size="12" fill="#9ca3af">Java</text>
          <text x="280" y="0" class="font-mono" font-size="12" fill="#06b6d4">★ 1</text>
        </g>
      </g>
    </g>
      <g transform="translate(60, 1000)">
    <text x="0" y="0" class="font-sans" font-weight="700" font-size="18" fill="#f3f4f6">My Best Tools</text>
    <g transform="translate(0, 30)">
  
      <g transform="translate(0, 0)">
        <rect width="230" height="50" rx="12" fill="rgba(17, 24, 39, 0.7)" stroke="rgba(59, 130, 246, 0.3)" stroke-width="1" />
        <circle cx="25" cy="25" r="8" fill="none" stroke="#dea584" stroke-width="1.5" stroke-dasharray="10 5" opacity="0.6">
          <animateTransform attributeName="transform" type="rotate" from="0 25 25" to="360 25 25" dur="4s" repeatCount="indefinite" />
        </circle>
        <circle cx="25" cy="25" r="3" fill="#dea584" filter="url(#glow)" />
        <text x="45" y="30" class="font-mono" font-weight="700" font-size="13" fill="#f3f4f6" letter-spacing="1px">RUST</text>
      </g>
    
      <g transform="translate(250, 0)">
        <rect width="230" height="50" rx="12" fill="rgba(17, 24, 39, 0.7)" stroke="rgba(59, 130, 246, 0.3)" stroke-width="1" />
        <circle cx="25" cy="25" r="8" fill="none" stroke="#f9e2af" stroke-width="1.5" stroke-dasharray="10 5" opacity="0.6">
          <animateTransform attributeName="transform" type="rotate" from="0 25 25" to="360 25 25" dur="4s" repeatCount="indefinite" />
        </circle>
        <circle cx="25" cy="25" r="3" fill="#f9e2af" filter="url(#glow)" />
        <text x="45" y="30" class="font-mono" font-weight="700" font-size="13" fill="#f3f4f6" letter-spacing="1px">BUN</text>
      </g>
    
      <g transform="translate(500, 0)">
        <rect width="230" height="50" rx="12" fill="rgba(17, 24, 39, 0.7)" stroke="rgba(59, 130, 246, 0.3)" stroke-width="1" />
        <circle cx="25" cy="25" r="8" fill="none" stroke="#24c8db" stroke-width="1.5" stroke-dasharray="10 5" opacity="0.6">
          <animateTransform attributeName="transform" type="rotate" from="0 25 25" to="360 25 25" dur="4s" repeatCount="indefinite" />
        </circle>
        <circle cx="25" cy="25" r="3" fill="#24c8db" filter="url(#glow)" />
        <text x="45" y="30" class="font-mono" font-weight="700" font-size="13" fill="#f3f4f6" letter-spacing="1px">TAURI</text>
      </g>
    
      <g transform="translate(0, 70)">
        <rect width="230" height="50" rx="12" fill="rgba(17, 24, 39, 0.7)" stroke="rgba(59, 130, 246, 0.3)" stroke-width="1" />
        <circle cx="25" cy="25" r="8" fill="none" stroke="#00ADD8" stroke-width="1.5" stroke-dasharray="10 5" opacity="0.6">
          <animateTransform attributeName="transform" type="rotate" from="0 25 25" to="360 25 25" dur="4s" repeatCount="indefinite" />
        </circle>
        <circle cx="25" cy="25" r="3" fill="#00ADD8" filter="url(#glow)" />
        <text x="45" y="30" class="font-mono" font-weight="700" font-size="13" fill="#f3f4f6" letter-spacing="1px">GO</text>
      </g>
    
      <g transform="translate(250, 70)">
        <rect width="230" height="50" rx="12" fill="rgba(17, 24, 39, 0.7)" stroke="rgba(59, 130, 246, 0.3)" stroke-width="1" />
        <circle cx="25" cy="25" r="8" fill="none" stroke="#3178c6" stroke-width="1.5" stroke-dasharray="10 5" opacity="0.6">
          <animateTransform attributeName="transform" type="rotate" from="0 25 25" to="360 25 25" dur="4s" repeatCount="indefinite" />
        </circle>
        <circle cx="25" cy="25" r="3" fill="#3178c6" filter="url(#glow)" />
        <text x="45" y="30" class="font-mono" font-weight="700" font-size="13" fill="#f3f4f6" letter-spacing="1px">TYPESCRIPT</text>
      </g>
    
      <g transform="translate(500, 70)">
        <rect width="230" height="50" rx="12" fill="rgba(17, 24, 39, 0.7)" stroke="rgba(59, 130, 246, 0.3)" stroke-width="1" />
        <circle cx="25" cy="25" r="8" fill="none" stroke="#ffffff" stroke-width="1.5" stroke-dasharray="10 5" opacity="0.6">
          <animateTransform attributeName="transform" type="rotate" from="0 25 25" to="360 25 25" dur="4s" repeatCount="indefinite" />
        </circle>
        <circle cx="25" cy="25" r="3" fill="#ffffff" filter="url(#glow)" />
        <text x="45" y="30" class="font-mono" font-weight="700" font-size="13" fill="#f3f4f6" letter-spacing="1px">NEXT.JS</text>
      </g>
    </g></g>
      
    <g transform="translate(60, 1250)">
      <text class="font-mono" font-size="14" fill="#f3f4f6" opacity="0.7">Discord: v_late</text>
      <text x="180" y="0" class="font-mono" font-size="14" fill="#f3f4f6" opacity="0.7">Insta: jk_nan_</text>
      <text x="480" y="0" class="font-mono" font-size="12" fill="#06b6d4" opacity="0.6">Let's build something together.</text>
    </g>
  
    </svg>
  