
    <svg width="850" height="1350" viewBox="0 0 850 1350" xmlns="http://www.w3.org/2000/svg">
      
    <defs>
      <filter id="glassBlur" x="-20%" y="-20%" width="140%" height="140%">
        <feGaussianBlur in="SourceGraphic" stdDeviation="10" />
      </filter>
      <filter id="glow" x="-20%" y="-20%" width="140%" height="140%">
        <feGaussianBlur stdDeviation="5" result="blur" />
        <feComposite in="SourceGraphic" in2="blur" operator="over" />
      </filter>
      <linearGradient id="glassGrad" x1="0%" y1="0%" x2="100%" y2="100%">
        <stop offset="0%" stop-color="rgba(59, 130, 246, 0.1)" />
        <stop offset="100%" stop-color="rgba(59, 130, 246, 0.02)" />
      </linearGradient>
      <pattern id="grid" width="40" height="40" patternUnits="userSpaceOnUse">
        <path d="M 40 0 L 0 0 0 40" fill="none" stroke="rgba(59, 130, 246, 0.1)" stroke-width="1"/>
      </pattern>
      
      <style>
        @keyframes scanline {
          0% { transform: translateY(-100px); opacity: 0; }
          10% { opacity: 0.5; }
          90% { opacity: 0.5; }
          100% { transform: translateY(1350px); opacity: 0; }
        }
        @keyframes pulse {
          0%, 100% { opacity: 0.4; }
          50% { opacity: 1; }
        }
        @keyframes flicker {
          0%, 19.999%, 22%, 62.999%, 64%, 64.999%, 70%, 100% { opacity: 1; }
          20%, 21.999%, 63%, 63.999%, 65%, 69.999% { opacity: 0.4; }
        }
        @keyframes dataFlow {
          0% { stroke-dashoffset: 100; }
          100% { stroke-dashoffset: 0; }
        }
        @keyframes shimmer {
          0% { fill-opacity: 0.3; }
          50% { fill-opacity: 0.9; }
          100% { fill-opacity: 0.3; }
        }
        .font-mono { font-family: 'JetBrains Mono', 'Fira Code', monospace; }
        .font-sans { font-family: 'Inter', system-ui, sans-serif; }
      </style>
    </defs>
  
      
    <rect width="850" height="1350" fill="#030712" rx="24" />
    <rect width="850" height="1350" fill="url(#grid)" rx="24" />
    <rect width="850" height="100" fill="url(#glassGrad)" style="animation: scanline 8s linear infinite;">
      <animate attributeName="opacity" values="0;0.5;0" dur="8s" repeatCount="indefinite" />
    </rect>
  
      
    <g opacity="0.2" stroke="#3b82f6" stroke-width="1" fill="none">
      <path d="M 790 150 L 790 1200 L 750 1200" stroke-dasharray="5 5" style="animation: dataFlow 10s linear infinite;" />
      <path d="M 60 1200 L 20 1200 L 20 150" stroke-dasharray="5 5" style="animation: dataFlow 10s linear reverse infinite;" />
    </g>
  
      
    <g transform="translate(60, 80)">
      <text class="font-sans" font-weight="900" font-size="72" fill="#f3f4f6" letter-spacing="-3px">Qclid</text>
      <text x="5" y="45" class="font-sans" font-weight="500" font-size="20" fill="#06b6d4" opacity="0.8">always open to collab // building cool things</text>
      <line x1="0" y1="70" x2="730" y2="70" stroke="rgba(59, 130, 246, 0.3)" stroke-width="1" stroke-dasharray="4 4" />
    </g>
  
      <g transform="translate(60, 220)">
      <g transform="translate(0, 0)">
        <rect width="170" height="100" rx="16" fill="rgba(17, 24, 39, 0.7)" stroke="rgba(59, 130, 246, 0.3)" stroke-width="1" />
        <text x="20" y="40" class="font-sans" font-weight="600" font-size="12" fill="#3b82f6" letter-spacing="2px" opacity="0.7">STARS</text>
        <text x="20" y="75" class="font-mono" font-weight="800" font-size="32" fill="#f3f4f6" style="animation: flicker 2s infinite;">8</text>
        <circle cx="145" cy="25" r="3" fill="#06b6d4" style="animation: pulse 2s infinite;" />
      </g>
    
      <g transform="translate(190, 0)">
        <rect width="170" height="100" rx="16" fill="rgba(17, 24, 39, 0.7)" stroke="rgba(59, 130, 246, 0.3)" stroke-width="1" />
        <text x="20" y="40" class="font-sans" font-weight="600" font-size="12" fill="#3b82f6" letter-spacing="2px" opacity="0.7">COMMITS</text>
        <text x="20" y="75" class="font-mono" font-weight="800" font-size="32" fill="#f3f4f6" style="animation: flicker 3s infinite;">1909</text>
        <circle cx="145" cy="25" r="3" fill="#06b6d4" style="animation: pulse 2s infinite;" />
      </g>
    
      <g transform="translate(380, 0)">
        <rect width="170" height="100" rx="16" fill="rgba(17, 24, 39, 0.7)" stroke="rgba(59, 130, 246, 0.3)" stroke-width="1" />
        <text x="20" y="40" class="font-sans" font-weight="600" font-size="12" fill="#3b82f6" letter-spacing="2px" opacity="0.7">PRs</text>
        <text x="20" y="75" class="font-mono" font-weight="800" font-size="32" fill="#f3f4f6" style="animation: flicker 4s infinite;">3</text>
        <circle cx="145" cy="25" r="3" fill="#06b6d4" style="animation: pulse 2s infinite;" />
      </g>
    
      <g transform="translate(570, 0)">
        <rect width="170" height="100" rx="16" fill="rgba(17, 24, 39, 0.7)" stroke="rgba(59, 130, 246, 0.3)" stroke-width="1" />
        <text x="20" y="40" class="font-sans" font-weight="600" font-size="12" fill="#3b82f6" letter-spacing="2px" opacity="0.7">REPOS</text>
        <text x="20" y="75" class="font-mono" font-weight="800" font-size="32" fill="#f3f4f6" style="animation: flicker 5s infinite;">39</text>
        <circle cx="145" cy="25" r="3" fill="#06b6d4" style="animation: pulse 2s infinite;" />
      </g>
    </g>
      
    <g transform="translate(60, 380)">
      <rect width="730" height="200" rx="20" fill="rgba(17, 24, 39, 0.7)" stroke="rgba(59, 130, 246, 0.3)" stroke-width="1" />
      <text x="25" y="35" class="font-sans" font-weight="700" font-size="18" fill="#f3f4f6">My Activity</text>
      <g transform="translate(15, 65)">
        <rect x="0" y="0" width="12" height="12" rx="2" fill="rgba(59, 130, 246, 0.05)"  /><rect x="0" y="16" width="12" height="12" rx="2" fill="rgba(59, 130, 246, 0.05)"  /><rect x="0" y="32" width="12" height="12" rx="2" fill="rgba(59, 130, 246, 0.05)"  /><rect x="0" y="48" width="12" height="12" rx="2" fill="rgba(59, 130, 246, 0.05)"  /><rect x="0" y="64" width="12" height="12" rx="2" fill="rgba(59, 130, 246, 0.05)"  /><rect x="0" y="80" width="12" height="12" rx="2" fill="rgba(59, 130, 246, 0.05)"  /><rect x="0" y="96" width="12" height="12" rx="2" fill="rgba(59, 130, 246, 0.05)"  /><rect x="16" y="0" width="12" height="12" rx="2" fill="rgba(59, 130, 246, 0.30000000000000004)"  /><rect x="16" y="16" width="12" height="12" rx="2" fill="rgba(59, 130, 246, 0.05)"  /><rect x="16" y="32" width="12" height="12" rx="2" fill="rgba(59, 130, 246, 0.05)"  /><rect x="16" y="48" width="12" height="12" rx="2" fill="rgba(59, 130, 246, 0.05)"  /><rect x="16" y="64" width="12" height="12" rx="2" fill="rgba(59, 130, 246, 0.05)"  /><rect x="16" y="80" width="12" height="12" rx="2" fill="rgba(59, 130, 246, 0.05)"  /><rect x="16" y="96" width="12" height="12" rx="2" fill="rgba(59, 130, 246, 0.05)"  /><rect x="32" y="0" width="12" height="12" rx="2" fill="rgba(59, 130, 246, 0.05)"  /><rect x="32" y="16" width="12" height="12" rx="2" fill="rgba(59, 130, 246, 0.05)"  /><rect x="32" y="32" width="12" height="12" rx="2" fill="rgba(59, 130, 246, 0.05)"  /><rect x="32" y="48" width="12" height="12" rx="2" fill="rgba(59, 130, 246, 0.05)"  /><rect x="32" y="64" width="12" height="12" rx="2" fill="rgba(59, 130, 246, 0.05)"  /><rect x="32" y="80" width="12" height="12" rx="2" fill="rgba(59, 130, 246, 0.05)"  /><rect x="32" y="96" width="12" height="12" rx="2" fill="rgba(59, 130, 246, 0.05)"  /><rect x="48" y="0" width="12" height="12" rx="2" fill="rgba(59, 130, 246, 0.05)"  /><rect x="48" y="16" width="12" height="12" rx="2" fill="rgba(59, 130, 246, 0.05)"  /><rect x="48" y="32" width="12" height="12" rx="2" fill="rgba(59, 130, 246, 0.05)"  /><rect x="48" y="48" width="12" height="12" rx="2" fill="rgba(59, 130, 246, 0.05)"  /><rect x="48" y="64" width="12" height="12" rx="2" fill="rgba(59, 130, 246, 0.05)"  /><rect x="48" y="80" width="12" height="12" rx="2" fill="rgba(59, 130, 246, 0.05)"  /><rect x="48" y="96" width="12" height="12" rx="2" fill="rgba(59, 130, 246, 0.05)"  /><rect x="64" y="0" width="12" height="12" rx="2" fill="rgba(59, 130, 246, 0.05)"  /><rect x="64" y="16" width="12" height="12" rx="2" fill="rgba(59, 130, 246, 0.05)"  /><rect x="64" y="32" width="12" height="12" rx="2" fill="rgba(59, 130, 246, 0.9)" style="animation: shimmer 2.013395161585515s infinite" /><rect x="64" y="48" width="12" height="12" rx="2" fill="rgba(59, 130, 246, 0.05)"  /><rect x="64" y="64" width="12" height="12" rx="2" fill="rgba(59, 130, 246, 0.05)"  /><rect x="64" y="80" width="12" height="12" rx="2" fill="rgba(59, 130, 246, 0.05)"  /><rect x="64" y="96" width="12" height="12" rx="2" fill="rgba(59, 130, 246, 0.05)"  /><rect x="80" y="0" width="12" height="12" rx="2" fill="rgba(59, 130, 246, 0.05)"  /><rect x="80" y="16" width="12" height="12" rx="2" fill="rgba(59, 130, 246, 0.05)"  /><rect x="80" y="32" width="12" height="12" rx="2" fill="rgba(59, 130, 246, 0.05)"  /><rect x="80" y="48" width="12" height="12" rx="2" fill="rgba(59, 130, 246, 0.05)"  /><rect x="80" y="64" width="12" height="12" rx="2" fill="rgba(59, 130, 246, 0.05)"  /><rect x="80" y="80" width="12" height="12" rx="2" fill="rgba(59, 130, 246, 0.05)"  /><rect x="80" y="96" width="12" height="12" rx="2" fill="rgba(59, 130, 246, 0.05)"  /><rect x="96" y="0" width="12" height="12" rx="2" fill="rgba(59, 130, 246, 0.05)"  /><rect x="96" y="16" width="12" height="12" rx="2" fill="rgba(59, 130, 246, 0.05)"  /><rect x="96" y="32" width="12" height="12" rx="2" fill="rgba(59, 130, 246, 0.9)" style="animation: shimmer 2.747767494899206s infinite" /><rect x="96" y="48" width="12" height="12" rx="2" fill="rgba(59, 130, 246, 0.05)"  /><rect x="96" y="64" width="12" height="12" rx="2" fill="rgba(59, 130, 246, 0.05)"  /><rect x="96" y="80" width="12" height="12" rx="2" fill="rgba(59, 130, 246, 0.05)"  /><rect x="96" y="96" width="12" height="12" rx="2" fill="rgba(59, 130, 246, 0.9)" style="animation: shimmer 2.483796972326374s infinite" /><rect x="112" y="0" width="12" height="12" rx="2" fill="rgba(59, 130, 246, 0.05)"  /><rect x="112" y="16" width="12" height="12" rx="2" fill="rgba(59, 130, 246, 0.05)"  /><rect x="112" y="32" width="12" height="12" rx="2" fill="rgba(59, 130, 246, 0.05)"  /><rect x="112" y="48" width="12" height="12" rx="2" fill="rgba(59, 130, 246, 0.05)"  /><rect x="112" y="64" width="12" height="12" rx="2" fill="rgba(59, 130, 246, 0.05)"  /><rect x="112" y="80" width="12" height="12" rx="2" fill="rgba(59, 130, 246, 0.30000000000000004)"  /><rect x="112" y="96" width="12" height="12" rx="2" fill="rgba(59, 130, 246, 0.05)"  /><rect x="128" y="0" width="12" height="12" rx="2" fill="rgba(59, 130, 246, 0.05)"  /><rect x="128" y="16" width="12" height="12" rx="2" fill="rgba(59, 130, 246, 0.4)"  /><rect x="128" y="32" width="12" height="12" rx="2" fill="rgba(59, 130, 246, 0.05)"  /><rect x="128" y="48" width="12" height="12" rx="2" fill="rgba(59, 130, 246, 0.9)" style="animation: shimmer 2.1260431350185467s infinite" /><rect x="128" y="64" width="12" height="12" rx="2" fill="rgba(59, 130, 246, 0.9)" style="animation: shimmer 2.4913152332790705s infinite" /><rect x="128" y="80" width="12" height="12" rx="2" fill="rgba(59, 130, 246, 0.05)"  /><rect x="128" y="96" width="12" height="12" rx="2" fill="rgba(59, 130, 246, 0.05)"  /><rect x="144" y="0" width="12" height="12" rx="2" fill="rgba(59, 130, 246, 0.05)"  /><rect x="144" y="16" width="12" height="12" rx="2" fill="rgba(59, 130, 246, 0.05)"  /><rect x="144" y="32" width="12" height="12" rx="2" fill="rgba(59, 130, 246, 0.05)"  /><rect x="144" y="48" width="12" height="12" rx="2" fill="rgba(59, 130, 246, 0.05)"  /><rect x="144" y="64" width="12" height="12" rx="2" fill="rgba(59, 130, 246, 0.05)"  /><rect x="144" y="80" width="12" height="12" rx="2" fill="rgba(59, 130, 246, 0.05)"  /><rect x="144" y="96" width="12" height="12" rx="2" fill="rgba(59, 130, 246, 0.05)"  /><rect x="160" y="0" width="12" height="12" rx="2" fill="rgba(59, 130, 246, 0.4)"  /><rect x="160" y="16" width="12" height="12" rx="2" fill="rgba(59, 130, 246, 0.30000000000000004)"  /><rect x="160" y="32" width="12" height="12" rx="2" fill="rgba(59, 130, 246, 0.9)" style="animation: shimmer 2.9353355714080074s infinite" /><rect x="160" y="48" width="12" height="12" rx="2" fill="rgba(59, 130, 246, 0.05)"  /><rect x="160" y="64" width="12" height="12" rx="2" fill="rgba(59, 130, 246, 0.05)"  /><rect x="160" y="80" width="12" height="12" rx="2" fill="rgba(59, 130, 246, 0.9)" style="animation: shimmer 2.7895131031798184s infinite" /><rect x="160" y="96" width="12" height="12" rx="2" fill="rgba(59, 130, 246, 0.05)"  /><rect x="176" y="0" width="12" height="12" rx="2" fill="rgba(59, 130, 246, 0.05)"  /><rect x="176" y="16" width="12" height="12" rx="2" fill="rgba(59, 130, 246, 0.05)"  /><rect x="176" y="32" width="12" height="12" rx="2" fill="rgba(59, 130, 246, 0.05)"  /><rect x="176" y="48" width="12" height="12" rx="2" fill="rgba(59, 130, 246, 0.7)"  /><rect x="176" y="64" width="12" height="12" rx="2" fill="rgba(59, 130, 246, 0.8)" style="animation: shimmer 2.0685381860063017s infinite" /><rect x="176" y="80" width="12" height="12" rx="2" fill="rgba(59, 130, 246, 0.7)"  /><rect x="176" y="96" width="12" height="12" rx="2" fill="rgba(59, 130, 246, 0.05)"  /><rect x="192" y="0" width="12" height="12" rx="2" fill="rgba(59, 130, 246, 0.9)" style="animation: shimmer 2.462949315559303s infinite" /><rect x="192" y="16" width="12" height="12" rx="2" fill="rgba(59, 130, 246, 0.9)" style="animation: shimmer 2.358570259081031s infinite" /><rect x="192" y="32" width="12" height="12" rx="2" fill="rgba(59, 130, 246, 0.9)" style="animation: shimmer 2.3424777726379475s infinite" /><rect x="192" y="48" width="12" height="12" rx="2" fill="rgba(59, 130, 246, 0.8999999999999999)" style="animation: shimmer 2.446744994255173s infinite" /><rect x="192" y="64" width="12" height="12" rx="2" fill="rgba(59, 130, 246, 0.7)"  /><rect x="192" y="80" width="12" height="12" rx="2" fill="rgba(59, 130, 246, 0.5)"  /><rect x="192" y="96" width="12" height="12" rx="2" fill="rgba(59, 130, 246, 0.8)" style="animation: shimmer 2.33098566584216s infinite" /><rect x="208" y="0" width="12" height="12" rx="2" fill="rgba(59, 130, 246, 0.5)"  /><rect x="208" y="16" width="12" height="12" rx="2" fill="rgba(59, 130, 246, 0.4)"  /><rect x="208" y="32" width="12" height="12" rx="2" fill="rgba(59, 130, 246, 0.6000000000000001)"  /><rect x="208" y="48" width="12" height="12" rx="2" fill="rgba(59, 130, 246, 0.30000000000000004)"  /><rect x="208" y="64" width="12" height="12" rx="2" fill="rgba(59, 130, 246, 0.30000000000000004)"  /><rect x="208" y="80" width="12" height="12" rx="2" fill="rgba(59, 130, 246, 0.5)"  /><rect x="208" y="96" width="12" height="12" rx="2" fill="rgba(59, 130, 246, 0.05)"  /><rect x="224" y="0" width="12" height="12" rx="2" fill="rgba(59, 130, 246, 0.05)"  /><rect x="224" y="16" width="12" height="12" rx="2" fill="rgba(59, 130, 246, 0.05)"  /><rect x="224" y="32" width="12" height="12" rx="2" fill="rgba(59, 130, 246, 0.05)"  /><rect x="224" y="48" width="12" height="12" rx="2" fill="rgba(59, 130, 246, 0.05)"  /><rect x="224" y="64" width="12" height="12" rx="2" fill="rgba(59, 130, 246, 0.5)"  /><rect x="224" y="80" width="12" height="12" rx="2" fill="rgba(59, 130, 246, 0.9)" style="animation: shimmer 2.2614989701706927s infinite" /><rect x="224" y="96" width="12" height="12" rx="2" fill="rgba(59, 130, 246, 0.9)" style="animation: shimmer 2.921216906027306s infinite" /><rect x="240" y="0" width="12" height="12" rx="2" fill="rgba(59, 130, 246, 0.8)" style="animation: shimmer 2.4576402746218036s infinite" /><rect x="240" y="16" width="12" height="12" rx="2" fill="rgba(59, 130, 246, 0.9)" style="animation: shimmer 2.027265257065026s infinite" /><rect x="240" y="32" width="12" height="12" rx="2" fill="rgba(59, 130, 246, 0.5)"  /><rect x="240" y="48" width="12" height="12" rx="2" fill="rgba(59, 130, 246, 0.8999999999999999)" style="animation: shimmer 2.693458047226625s infinite" /><rect x="240" y="64" width="12" height="12" rx="2" fill="rgba(59, 130, 246, 0.9)" style="animation: shimmer 2.224318124574067s infinite" /><rect x="240" y="80" width="12" height="12" rx="2" fill="rgba(59, 130, 246, 0.9)" style="animation: shimmer 2.73428168023734s infinite" /><rect x="240" y="96" width="12" height="12" rx="2" fill="rgba(59, 130, 246, 0.6000000000000001)"  /><rect x="256" y="0" width="12" height="12" rx="2" fill="rgba(59, 130, 246, 0.5)"  /><rect x="256" y="16" width="12" height="12" rx="2" fill="rgba(59, 130, 246, 0.05)"  /><rect x="256" y="32" width="12" height="12" rx="2" fill="rgba(59, 130, 246, 0.4)"  /><rect x="256" y="48" width="12" height="12" rx="2" fill="rgba(59, 130, 246, 0.05)"  /><rect x="256" y="64" width="12" height="12" rx="2" fill="rgba(59, 130, 246, 0.6000000000000001)"  /><rect x="256" y="80" width="12" height="12" rx="2" fill="rgba(59, 130, 246, 0.05)"  /><rect x="256" y="96" width="12" height="12" rx="2" fill="rgba(59, 130, 246, 0.6000000000000001)"  /><rect x="272" y="0" width="12" height="12" rx="2" fill="rgba(59, 130, 246, 0.5)"  /><rect x="272" y="16" width="12" height="12" rx="2" fill="rgba(59, 130, 246, 0.05)"  /><rect x="272" y="32" width="12" height="12" rx="2" fill="rgba(59, 130, 246, 0.8)" style="animation: shimmer 2.707777742183885s infinite" /><rect x="272" y="48" width="12" height="12" rx="2" fill="rgba(59, 130, 246, 0.9)" style="animation: shimmer 2.267034035972692s infinite" /><rect x="272" y="64" width="12" height="12" rx="2" fill="rgba(59, 130, 246, 0.6000000000000001)"  /><rect x="272" y="80" width="12" height="12" rx="2" fill="rgba(59, 130, 246, 0.05)"  /><rect x="272" y="96" width="12" height="12" rx="2" fill="rgba(59, 130, 246, 0.05)"  /><rect x="288" y="0" width="12" height="12" rx="2" fill="rgba(59, 130, 246, 0.30000000000000004)"  /><rect x="288" y="16" width="12" height="12" rx="2" fill="rgba(59, 130, 246, 0.05)"  /><rect x="288" y="32" width="12" height="12" rx="2" fill="rgba(59, 130, 246, 0.05)"  /><rect x="288" y="48" width="12" height="12" rx="2" fill="rgba(59, 130, 246, 0.05)"  /><rect x="288" y="64" width="12" height="12" rx="2" fill="rgba(59, 130, 246, 0.05)"  /><rect x="288" y="80" width="12" height="12" rx="2" fill="rgba(59, 130, 246, 0.05)"  /><rect x="288" y="96" width="12" height="12" rx="2" fill="rgba(59, 130, 246, 0.05)"  /><rect x="304" y="0" width="12" height="12" rx="2" fill="rgba(59, 130, 246, 0.4)"  /><rect x="304" y="16" width="12" height="12" rx="2" fill="rgba(59, 130, 246, 0.9)" style="animation: shimmer 2.3379000593779655s infinite" /><rect x="304" y="32" width="12" height="12" rx="2" fill="rgba(59, 130, 246, 0.8999999999999999)" style="animation: shimmer 2.422290970160044s infinite" /><rect x="304" y="48" width="12" height="12" rx="2" fill="rgba(59, 130, 246, 0.6000000000000001)"  /><rect x="304" y="64" width="12" height="12" rx="2" fill="rgba(59, 130, 246, 0.4)"  /><rect x="304" y="80" width="12" height="12" rx="2" fill="rgba(59, 130, 246, 0.6000000000000001)"  /><rect x="304" y="96" width="12" height="12" rx="2" fill="rgba(59, 130, 246, 0.30000000000000004)"  /><rect x="320" y="0" width="12" height="12" rx="2" fill="rgba(59, 130, 246, 0.4)"  /><rect x="320" y="16" width="12" height="12" rx="2" fill="rgba(59, 130, 246, 0.9)" style="animation: shimmer 2.976703823343256s infinite" /><rect x="320" y="32" width="12" height="12" rx="2" fill="rgba(59, 130, 246, 0.9)" style="animation: shimmer 2.1387974318922445s infinite" /><rect x="320" y="48" width="12" height="12" rx="2" fill="rgba(59, 130, 246, 0.05)"  /><rect x="320" y="64" width="12" height="12" rx="2" fill="rgba(59, 130, 246, 0.4)"  /><rect x="320" y="80" width="12" height="12" rx="2" fill="rgba(59, 130, 246, 0.8)" style="animation: shimmer 2.6548824461488953s infinite" /><rect x="320" y="96" width="12" height="12" rx="2" fill="rgba(59, 130, 246, 0.30000000000000004)"  /><rect x="336" y="0" width="12" height="12" rx="2" fill="rgba(59, 130, 246, 0.5)"  /><rect x="336" y="16" width="12" height="12" rx="2" fill="rgba(59, 130, 246, 0.9)" style="animation: shimmer 2.7747961580224665s infinite" /><rect x="336" y="32" width="12" height="12" rx="2" fill="rgba(59, 130, 246, 0.9)" style="animation: shimmer 2.004639524517837s infinite" /><rect x="336" y="48" width="12" height="12" rx="2" fill="rgba(59, 130, 246, 0.9)" style="animation: shimmer 2.9887785420599737s infinite" /><rect x="336" y="64" width="12" height="12" rx="2" fill="rgba(59, 130, 246, 0.4)"  /><rect x="336" y="80" width="12" height="12" rx="2" fill="rgba(59, 130, 246, 0.9)" style="animation: shimmer 2.836681932486189s infinite" /><rect x="336" y="96" width="12" height="12" rx="2" fill="rgba(59, 130, 246, 0.9)" style="animation: shimmer 2.4495308511632294s infinite" /><rect x="352" y="0" width="12" height="12" rx="2" fill="rgba(59, 130, 246, 0.9)" style="animation: shimmer 2.858572008224248s infinite" /><rect x="352" y="16" width="12" height="12" rx="2" fill="rgba(59, 130, 246, 0.9)" style="animation: shimmer 2.379371091225267s infinite" /><rect x="352" y="32" width="12" height="12" rx="2" fill="rgba(59, 130, 246, 0.9)" style="animation: shimmer 2.548271254240394s infinite" /><rect x="352" y="48" width="12" height="12" rx="2" fill="rgba(59, 130, 246, 0.9)" style="animation: shimmer 2.7654017636363446s infinite" /><rect x="352" y="64" width="12" height="12" rx="2" fill="rgba(59, 130, 246, 0.9)" style="animation: shimmer 2.579847491839879s infinite" /><rect x="352" y="80" width="12" height="12" rx="2" fill="rgba(59, 130, 246, 0.9)" style="animation: shimmer 2.2068876687090597s infinite" /><rect x="352" y="96" width="12" height="12" rx="2" fill="rgba(59, 130, 246, 0.9)" style="animation: shimmer 2.8044326266556237s infinite" /><rect x="368" y="0" width="12" height="12" rx="2" fill="rgba(59, 130, 246, 0.9)" style="animation: shimmer 2.1553564172211868s infinite" /><rect x="368" y="16" width="12" height="12" rx="2" fill="rgba(59, 130, 246, 0.9)" style="animation: shimmer 2.307517894941914s infinite" /><rect x="368" y="32" width="12" height="12" rx="2" fill="rgba(59, 130, 246, 0.8999999999999999)" style="animation: shimmer 2.4479837392052315s infinite" /><rect x="368" y="48" width="12" height="12" rx="2" fill="rgba(59, 130, 246, 0.9)" style="animation: shimmer 2.0885865552035123s infinite" /><rect x="368" y="64" width="12" height="12" rx="2" fill="rgba(59, 130, 246, 0.9)" style="animation: shimmer 2.5931210296304945s infinite" /><rect x="368" y="80" width="12" height="12" rx="2" fill="rgba(59, 130, 246, 0.9)" style="animation: shimmer 2.8611648456252787s infinite" /><rect x="368" y="96" width="12" height="12" rx="2" fill="rgba(59, 130, 246, 0.4)"  /><rect x="384" y="0" width="12" height="12" rx="2" fill="rgba(59, 130, 246, 0.8999999999999999)" style="animation: shimmer 2.1919639678085736s infinite" /><rect x="384" y="16" width="12" height="12" rx="2" fill="rgba(59, 130, 246, 0.9)" style="animation: shimmer 2.1570645251985754s infinite" /><rect x="384" y="32" width="12" height="12" rx="2" fill="rgba(59, 130, 246, 0.9)" style="animation: shimmer 2.5348617590054667s infinite" /><rect x="384" y="48" width="12" height="12" rx="2" fill="rgba(59, 130, 246, 0.9)" style="animation: shimmer 2.693581618811297s infinite" /><rect x="384" y="64" width="12" height="12" rx="2" fill="rgba(59, 130, 246, 0.9)" style="animation: shimmer 2.797451666372964s infinite" /><rect x="384" y="80" width="12" height="12" rx="2" fill="rgba(59, 130, 246, 0.9)" style="animation: shimmer 2.405535876448741s infinite" /><rect x="384" y="96" width="12" height="12" rx="2" fill="rgba(59, 130, 246, 0.9)" style="animation: shimmer 2.996363433818613s infinite" /><rect x="400" y="0" width="12" height="12" rx="2" fill="rgba(59, 130, 246, 0.5)"  /><rect x="400" y="16" width="12" height="12" rx="2" fill="rgba(59, 130, 246, 0.05)"  /><rect x="400" y="32" width="12" height="12" rx="2" fill="rgba(59, 130, 246, 0.8)" style="animation: shimmer 2.109500436216816s infinite" /><rect x="400" y="48" width="12" height="12" rx="2" fill="rgba(59, 130, 246, 0.9)" style="animation: shimmer 2.377362818373499s infinite" /><rect x="400" y="64" width="12" height="12" rx="2" fill="rgba(59, 130, 246, 0.9)" style="animation: shimmer 2.0433820313099504s infinite" /><rect x="400" y="80" width="12" height="12" rx="2" fill="rgba(59, 130, 246, 0.05)"  /><rect x="400" y="96" width="12" height="12" rx="2" fill="rgba(59, 130, 246, 0.05)"  /><rect x="416" y="0" width="12" height="12" rx="2" fill="rgba(59, 130, 246, 0.05)"  /><rect x="416" y="16" width="12" height="12" rx="2" fill="rgba(59, 130, 246, 0.9)" style="animation: shimmer 2.912991330211997s infinite" /><rect x="416" y="32" width="12" height="12" rx="2" fill="rgba(59, 130, 246, 0.9)" style="animation: shimmer 2.5903116223911606s infinite" /><rect x="416" y="48" width="12" height="12" rx="2" fill="rgba(59, 130, 246, 0.7)"  /><rect x="416" y="64" width="12" height="12" rx="2" fill="rgba(59, 130, 246, 0.9)" style="animation: shimmer 2.5553681326186783s infinite" /><rect x="416" y="80" width="12" height="12" rx="2" fill="rgba(59, 130, 246, 0.9)" style="animation: shimmer 2.292154945462647s infinite" /><rect x="416" y="96" width="12" height="12" rx="2" fill="rgba(59, 130, 246, 0.7)"  /><rect x="432" y="0" width="12" height="12" rx="2" fill="rgba(59, 130, 246, 0.05)"  /><rect x="432" y="16" width="12" height="12" rx="2" fill="rgba(59, 130, 246, 0.7)"  /><rect x="432" y="32" width="12" height="12" rx="2" fill="rgba(59, 130, 246, 0.9)" style="animation: shimmer 2.295409891994611s infinite" /><rect x="432" y="48" width="12" height="12" rx="2" fill="rgba(59, 130, 246, 0.9)" style="animation: shimmer 2.3135785209973254s infinite" /><rect x="432" y="64" width="12" height="12" rx="2" fill="rgba(59, 130, 246, 0.05)"  /><rect x="432" y="80" width="12" height="12" rx="2" fill="rgba(59, 130, 246, 0.9)" style="animation: shimmer 2.74228661991359s infinite" /><rect x="432" y="96" width="12" height="12" rx="2" fill="rgba(59, 130, 246, 0.9)" style="animation: shimmer 2.6563976201434962s infinite" /><rect x="448" y="0" width="12" height="12" rx="2" fill="rgba(59, 130, 246, 0.9)" style="animation: shimmer 2.360866576841994s infinite" /><rect x="448" y="16" width="12" height="12" rx="2" fill="rgba(59, 130, 246, 0.6000000000000001)"  /><rect x="448" y="32" width="12" height="12" rx="2" fill="rgba(59, 130, 246, 0.9)" style="animation: shimmer 2.1313965819472287s infinite" /><rect x="448" y="48" width="12" height="12" rx="2" fill="rgba(59, 130, 246, 0.7)"  /><rect x="448" y="64" width="12" height="12" rx="2" fill="rgba(59, 130, 246, 0.4)"  /><rect x="448" y="80" width="12" height="12" rx="2" fill="rgba(59, 130, 246, 0.05)"  /><rect x="448" y="96" width="12" height="12" rx="2" fill="rgba(59, 130, 246, 0.9)" style="animation: shimmer 2.009726743131838s infinite" /><rect x="464" y="0" width="12" height="12" rx="2" fill="rgba(59, 130, 246, 0.05)"  /><rect x="464" y="16" width="12" height="12" rx="2" fill="rgba(59, 130, 246, 0.30000000000000004)"  /><rect x="464" y="32" width="12" height="12" rx="2" fill="rgba(59, 130, 246, 0.05)"  /><rect x="464" y="48" width="12" height="12" rx="2" fill="rgba(59, 130, 246, 0.05)"  /><rect x="464" y="64" width="12" height="12" rx="2" fill="rgba(59, 130, 246, 0.05)"  /><rect x="464" y="80" width="12" height="12" rx="2" fill="rgba(59, 130, 246, 0.05)"  /><rect x="464" y="96" width="12" height="12" rx="2" fill="rgba(59, 130, 246, 0.05)"  /><rect x="480" y="0" width="12" height="12" rx="2" fill="rgba(59, 130, 246, 0.7)"  /><rect x="480" y="16" width="12" height="12" rx="2" fill="rgba(59, 130, 246, 0.4)"  /><rect x="480" y="32" width="12" height="12" rx="2" fill="rgba(59, 130, 246, 0.05)"  /><rect x="480" y="48" width="12" height="12" rx="2" fill="rgba(59, 130, 246, 0.30000000000000004)"  /><rect x="480" y="64" width="12" height="12" rx="2" fill="rgba(59, 130, 246, 0.05)"  /><rect x="480" y="80" width="12" height="12" rx="2" fill="rgba(59, 130, 246, 0.05)"  /><rect x="480" y="96" width="12" height="12" rx="2" fill="rgba(59, 130, 246, 0.05)"  /><rect x="496" y="0" width="12" height="12" rx="2" fill="rgba(59, 130, 246, 0.6000000000000001)"  /><rect x="496" y="16" width="12" height="12" rx="2" fill="rgba(59, 130, 246, 0.05)"  /><rect x="496" y="32" width="12" height="12" rx="2" fill="rgba(59, 130, 246, 0.05)"  /><rect x="496" y="48" width="12" height="12" rx="2" fill="rgba(59, 130, 246, 0.05)"  /><rect x="496" y="64" width="12" height="12" rx="2" fill="rgba(59, 130, 246, 0.9)" style="animation: shimmer 2.4255342476741797s infinite" /><rect x="496" y="80" width="12" height="12" rx="2" fill="rgba(59, 130, 246, 0.9)" style="animation: shimmer 2.5639981466596344s infinite" /><rect x="496" y="96" width="12" height="12" rx="2" fill="rgba(59, 130, 246, 0.9)" style="animation: shimmer 2.13047341733117s infinite" /><rect x="512" y="0" width="12" height="12" rx="2" fill="rgba(59, 130, 246, 0.9)" style="animation: shimmer 2.9291584303068s infinite" /><rect x="512" y="16" width="12" height="12" rx="2" fill="rgba(59, 130, 246, 0.9)" style="animation: shimmer 2.201942759837679s infinite" /><rect x="512" y="32" width="12" height="12" rx="2" fill="rgba(59, 130, 246, 0.8)" style="animation: shimmer 2.116503587509796s infinite" /><rect x="512" y="48" width="12" height="12" rx="2" fill="rgba(59, 130, 246, 0.5)"  /><rect x="512" y="64" width="12" height="12" rx="2" fill="rgba(59, 130, 246, 0.9)" style="animation: shimmer 2.7493908007304078s infinite" /><rect x="512" y="80" width="12" height="12" rx="2" fill="rgba(59, 130, 246, 0.9)" style="animation: shimmer 2.709217240896716s infinite" /><rect x="512" y="96" width="12" height="12" rx="2" fill="rgba(59, 130, 246, 0.9)" style="animation: shimmer 2.1237888550124393s infinite" /><rect x="528" y="0" width="12" height="12" rx="2" fill="rgba(59, 130, 246, 0.05)"  /><rect x="528" y="16" width="12" height="12" rx="2" fill="rgba(59, 130, 246, 0.9)" style="animation: shimmer 2.9810194407207717s infinite" /><rect x="528" y="32" width="12" height="12" rx="2" fill="rgba(59, 130, 246, 0.9)" style="animation: shimmer 2.6697224971189883s infinite" /><rect x="528" y="48" width="12" height="12" rx="2" fill="rgba(59, 130, 246, 0.9)" style="animation: shimmer 2.2220101073374137s infinite" /><rect x="528" y="64" width="12" height="12" rx="2" fill="rgba(59, 130, 246, 0.9)" style="animation: shimmer 2.042872572896478s infinite" /><rect x="528" y="80" width="12" height="12" rx="2" fill="rgba(59, 130, 246, 0.9)" style="animation: shimmer 2.0947169924402473s infinite" /><rect x="528" y="96" width="12" height="12" rx="2" fill="rgba(59, 130, 246, 0.9)" style="animation: shimmer 2.726159971714683s infinite" /><rect x="544" y="0" width="12" height="12" rx="2" fill="rgba(59, 130, 246, 0.9)" style="animation: shimmer 2.3423839456095727s infinite" /><rect x="544" y="16" width="12" height="12" rx="2" fill="rgba(59, 130, 246, 0.9)" style="animation: shimmer 2.466554191991535s infinite" /><rect x="544" y="32" width="12" height="12" rx="2" fill="rgba(59, 130, 246, 0.9)" style="animation: shimmer 2.297635120080778s infinite" /><rect x="544" y="48" width="12" height="12" rx="2" fill="rgba(59, 130, 246, 0.9)" style="animation: shimmer 2.118122774436149s infinite" /><rect x="544" y="64" width="12" height="12" rx="2" fill="rgba(59, 130, 246, 0.30000000000000004)"  /><rect x="544" y="80" width="12" height="12" rx="2" fill="rgba(59, 130, 246, 0.9)" style="animation: shimmer 2.7236520042037573s infinite" /><rect x="544" y="96" width="12" height="12" rx="2" fill="rgba(59, 130, 246, 0.30000000000000004)"  /><rect x="560" y="0" width="12" height="12" rx="2" fill="rgba(59, 130, 246, 0.05)"  /><rect x="560" y="16" width="12" height="12" rx="2" fill="rgba(59, 130, 246, 0.7)"  /><rect x="560" y="32" width="12" height="12" rx="2" fill="rgba(59, 130, 246, 0.9)" style="animation: shimmer 2.744743069624877s infinite" /><rect x="560" y="48" width="12" height="12" rx="2" fill="rgba(59, 130, 246, 0.9)" style="animation: shimmer 2.027541155647465s infinite" /><rect x="560" y="64" width="12" height="12" rx="2" fill="rgba(59, 130, 246, 0.30000000000000004)"  /><rect x="560" y="80" width="12" height="12" rx="2" fill="rgba(59, 130, 246, 0.4)"  /><rect x="560" y="96" width="12" height="12" rx="2" fill="rgba(59, 130, 246, 0.8)" style="animation: shimmer 2.986742998195476s infinite" /><rect x="576" y="0" width="12" height="12" rx="2" fill="rgba(59, 130, 246, 0.9)" style="animation: shimmer 2.926048940616411s infinite" /><rect x="576" y="16" width="12" height="12" rx="2" fill="rgba(59, 130, 246, 0.9)" style="animation: shimmer 2.1591800054710495s infinite" /><rect x="576" y="32" width="12" height="12" rx="2" fill="rgba(59, 130, 246, 0.9)" style="animation: shimmer 2.8055804423020083s infinite" /><rect x="576" y="48" width="12" height="12" rx="2" fill="rgba(59, 130, 246, 0.9)" style="animation: shimmer 2.5007723116026406s infinite" /><rect x="576" y="64" width="12" height="12" rx="2" fill="rgba(59, 130, 246, 0.9)" style="animation: shimmer 2.1593582633222637s infinite" /><rect x="576" y="80" width="12" height="12" rx="2" fill="rgba(59, 130, 246, 0.9)" style="animation: shimmer 2.0351839368534854s infinite" /><rect x="576" y="96" width="12" height="12" rx="2" fill="rgba(59, 130, 246, 0.9)" style="animation: shimmer 2.8685571199694615s infinite" /><rect x="592" y="0" width="12" height="12" rx="2" fill="rgba(59, 130, 246, 0.9)" style="animation: shimmer 2.5918155218900543s infinite" /><rect x="592" y="16" width="12" height="12" rx="2" fill="rgba(59, 130, 246, 0.9)" style="animation: shimmer 2.449321403583828s infinite" /><rect x="592" y="32" width="12" height="12" rx="2" fill="rgba(59, 130, 246, 0.05)"  /><rect x="592" y="48" width="12" height="12" rx="2" fill="rgba(59, 130, 246, 0.4)"  /><rect x="592" y="64" width="12" height="12" rx="2" fill="rgba(59, 130, 246, 0.9)" style="animation: shimmer 2.2726197754086743s infinite" /><rect x="592" y="80" width="12" height="12" rx="2" fill="rgba(59, 130, 246, 0.9)" style="animation: shimmer 2.2080887905356734s infinite" /><rect x="592" y="96" width="12" height="12" rx="2" fill="rgba(59, 130, 246, 0.8)" style="animation: shimmer 2.490549945414647s infinite" /><rect x="608" y="0" width="12" height="12" rx="2" fill="rgba(59, 130, 246, 0.8999999999999999)" style="animation: shimmer 2.9452261515787317s infinite" /><rect x="608" y="16" width="12" height="12" rx="2" fill="rgba(59, 130, 246, 0.9)" style="animation: shimmer 2.1485051009009704s infinite" /><rect x="608" y="32" width="12" height="12" rx="2" fill="rgba(59, 130, 246, 0.05)"  /><rect x="608" y="48" width="12" height="12" rx="2" fill="rgba(59, 130, 246, 0.8)" style="animation: shimmer 2.8525223247827984s infinite" /><rect x="608" y="64" width="12" height="12" rx="2" fill="rgba(59, 130, 246, 0.05)"  /><rect x="608" y="80" width="12" height="12" rx="2" fill="rgba(59, 130, 246, 0.30000000000000004)"  /><rect x="608" y="96" width="12" height="12" rx="2" fill="rgba(59, 130, 246, 0.9)" style="animation: shimmer 2.769450483310574s infinite" /><rect x="624" y="0" width="12" height="12" rx="2" fill="rgba(59, 130, 246, 0.30000000000000004)"  /><rect x="624" y="16" width="12" height="12" rx="2" fill="rgba(59, 130, 246, 0.05)"  /><rect x="624" y="32" width="12" height="12" rx="2" fill="rgba(59, 130, 246, 0.05)"  /><rect x="624" y="48" width="12" height="12" rx="2" fill="rgba(59, 130, 246, 0.05)"  /><rect x="624" y="64" width="12" height="12" rx="2" fill="rgba(59, 130, 246, 0.05)"  /><rect x="624" y="80" width="12" height="12" rx="2" fill="rgba(59, 130, 246, 0.05)"  /><rect x="624" y="96" width="12" height="12" rx="2" fill="rgba(59, 130, 246, 0.05)"  /><rect x="640" y="0" width="12" height="12" rx="2" fill="rgba(59, 130, 246, 0.9)" style="animation: shimmer 2.3838973276350064s infinite" /><rect x="640" y="16" width="12" height="12" rx="2" fill="rgba(59, 130, 246, 0.05)"  /><rect x="640" y="32" width="12" height="12" rx="2" fill="rgba(59, 130, 246, 0.05)"  /><rect x="640" y="48" width="12" height="12" rx="2" fill="rgba(59, 130, 246, 0.05)"  /><rect x="640" y="64" width="12" height="12" rx="2" fill="rgba(59, 130, 246, 0.8999999999999999)" style="animation: shimmer 2.966347033002271s infinite" /><rect x="640" y="80" width="12" height="12" rx="2" fill="rgba(59, 130, 246, 0.4)"  /><rect x="640" y="96" width="12" height="12" rx="2" fill="rgba(59, 130, 246, 0.05)"  /><rect x="656" y="0" width="12" height="12" rx="2" fill="rgba(59, 130, 246, 0.05)"  /><rect x="656" y="16" width="12" height="12" rx="2" fill="rgba(59, 130, 246, 0.05)"  /><rect x="656" y="32" width="12" height="12" rx="2" fill="rgba(59, 130, 246, 0.05)"  /><rect x="656" y="48" width="12" height="12" rx="2" fill="rgba(59, 130, 246, 0.05)"  /><rect x="656" y="64" width="12" height="12" rx="2" fill="rgba(59, 130, 246, 0.05)"  /><rect x="656" y="80" width="12" height="12" rx="2" fill="rgba(59, 130, 246, 0.05)"  /><rect x="656" y="96" width="12" height="12" rx="2" fill="rgba(59, 130, 246, 0.05)"  /><rect x="672" y="0" width="12" height="12" rx="2" fill="rgba(59, 130, 246, 0.05)"  /><rect x="672" y="16" width="12" height="12" rx="2" fill="rgba(59, 130, 246, 0.05)"  /><rect x="672" y="32" width="12" height="12" rx="2" fill="rgba(59, 130, 246, 0.05)"  /><rect x="672" y="48" width="12" height="12" rx="2" fill="rgba(59, 130, 246, 0.05)"  /><rect x="672" y="64" width="12" height="12" rx="2" fill="rgba(59, 130, 246, 0.05)"  /><rect x="672" y="80" width="12" height="12" rx="2" fill="rgba(59, 130, 246, 0.05)"  /><rect x="672" y="96" width="12" height="12" rx="2" fill="rgba(59, 130, 246, 0.05)"  /><rect x="688" y="0" width="12" height="12" rx="2" fill="rgba(59, 130, 246, 0.05)"  />
      </g>
    </g>
  
      <g transform="translate(60, 640)">
    <text x="0" y="0" class="font-sans" font-weight="700" font-size="18" fill="#f3f4f6">Top Works</text>
  
      <g transform="translate(0, 30)">
        <rect width="355" height="130" rx="20" fill="rgba(17, 24, 39, 0.7)" stroke="rgba(59, 130, 246, 0.3)" stroke-width="1" />
        <text x="20" y="35" class="font-mono" font-weight="700" font-size="16" fill="#f3f4f6">altus-ui</text>
        <text x="20" y="65" class="font-sans" font-size="13" fill="#9ca3af" width="310">Multi Themed UI component library. Built for performance ...</text>
        <g transform="translate(20, 100)">
          <circle cx="6" cy="-4" r="5" fill="#3178c6" filter="url(#glow)" />
          <text x="18" y="0" class="font-sans" font-size="12" fill="#9ca3af">TypeScript</text>
          <text x="280" y="0" class="font-mono" font-size="12" fill="#06b6d4">★ 3</text>
        </g>
      </g>
    
      <g transform="translate(375, 30)">
        <rect width="355" height="130" rx="20" fill="rgba(17, 24, 39, 0.7)" stroke="rgba(59, 130, 246, 0.3)" stroke-width="1" />
        <text x="20" y="35" class="font-mono" font-weight="700" font-size="16" fill="#f3f4f6">Portel</text>
        <text x="20" y="65" class="font-sans" font-size="13" fill="#9ca3af" width="310">Host you&apos;re very own website inside a minecraft server fo...</text>
        <g transform="translate(20, 100)">
          <circle cx="6" cy="-4" r="5" fill="#b07219" filter="url(#glow)" />
          <text x="18" y="0" class="font-sans" font-size="12" fill="#9ca3af">Java</text>
          <text x="280" y="0" class="font-mono" font-size="12" fill="#06b6d4">★ 3</text>
        </g>
      </g>
    
      <g transform="translate(0, 180)">
        <rect width="355" height="130" rx="20" fill="rgba(17, 24, 39, 0.7)" stroke="rgba(59, 130, 246, 0.3)" stroke-width="1" />
        <text x="20" y="35" class="font-mono" font-weight="700" font-size="16" fill="#f3f4f6">RTP</text>
        <text x="20" y="65" class="font-sans" font-size="13" fill="#9ca3af" width="310">Random Teleport plugin updated for modern Paper servers</text>
        <g transform="translate(20, 100)">
          <circle cx="6" cy="-4" r="5" fill="#b07219" filter="url(#glow)" />
          <text x="18" y="0" class="font-sans" font-size="12" fill="#9ca3af">Java</text>
          <text x="280" y="0" class="font-mono" font-size="12" fill="#06b6d4">★ 1</text>
        </g>
      </g>
    
      <g transform="translate(375, 180)">
        <rect width="355" height="130" rx="20" fill="rgba(17, 24, 39, 0.7)" stroke="rgba(59, 130, 246, 0.3)" stroke-width="1" />
        <text x="20" y="35" class="font-mono" font-weight="700" font-size="16" fill="#f3f4f6">Sublet</text>
        <text x="20" y="65" class="font-sans" font-size="13" fill="#9ca3af" width="310">Create, Manage, Run multiple independent Minecraft sub/mi...</text>
        <g transform="translate(20, 100)">
          <circle cx="6" cy="-4" r="5" fill="#b07219" filter="url(#glow)" />
          <text x="18" y="0" class="font-sans" font-size="12" fill="#9ca3af">Java</text>
          <text x="280" y="0" class="font-mono" font-size="12" fill="#06b6d4">★ 1</text>
        </g>
      </g>
    </g>
      <g transform="translate(60, 1000)">
    <text x="0" y="0" class="font-sans" font-weight="700" font-size="18" fill="#f3f4f6">My Best Tools</text>
    <g transform="translate(0, 30)">
  
      <g transform="translate(0, 0)">
        <rect width="230" height="50" rx="12" fill="rgba(17, 24, 39, 0.7)" stroke="rgba(59, 130, 246, 0.3)" stroke-width="1" />
        <circle cx="25" cy="25" r="8" fill="none" stroke="#dea584" stroke-width="1.5" stroke-dasharray="10 5" opacity="0.6">
          <animateTransform attributeName="transform" type="rotate" from="0 25 25" to="360 25 25" dur="4s" repeatCount="indefinite" />
        </circle>
        <circle cx="25" cy="25" r="3" fill="#dea584" filter="url(#glow)" />
        <text x="45" y="30" class="font-mono" font-weight="700" font-size="13" fill="#f3f4f6" letter-spacing="1px">RUST</text>
      </g>
    
      <g transform="translate(250, 0)">
        <rect width="230" height="50" rx="12" fill="rgba(17, 24, 39, 0.7)" stroke="rgba(59, 130, 246, 0.3)" stroke-width="1" />
        <circle cx="25" cy="25" r="8" fill="none" stroke="#f9e2af" stroke-width="1.5" stroke-dasharray="10 5" opacity="0.6">
          <animateTransform attributeName="transform" type="rotate" from="0 25 25" to="360 25 25" dur="4s" repeatCount="indefinite" />
        </circle>
        <circle cx="25" cy="25" r="3" fill="#f9e2af" filter="url(#glow)" />
        <text x="45" y="30" class="font-mono" font-weight="700" font-size="13" fill="#f3f4f6" letter-spacing="1px">BUN</text>
      </g>
    
      <g transform="translate(500, 0)">
        <rect width="230" height="50" rx="12" fill="rgba(17, 24, 39, 0.7)" stroke="rgba(59, 130, 246, 0.3)" stroke-width="1" />
        <circle cx="25" cy="25" r="8" fill="none" stroke="#24c8db" stroke-width="1.5" stroke-dasharray="10 5" opacity="0.6">
          <animateTransform attributeName="transform" type="rotate" from="0 25 25" to="360 25 25" dur="4s" repeatCount="indefinite" />
        </circle>
        <circle cx="25" cy="25" r="3" fill="#24c8db" filter="url(#glow)" />
        <text x="45" y="30" class="font-mono" font-weight="700" font-size="13" fill="#f3f4f6" letter-spacing="1px">TAURI</text>
      </g>
    
      <g transform="translate(0, 70)">
        <rect width="230" height="50" rx="12" fill="rgba(17, 24, 39, 0.7)" stroke="rgba(59, 130, 246, 0.3)" stroke-width="1" />
        <circle cx="25" cy="25" r="8" fill="none" stroke="#00ADD8" stroke-width="1.5" stroke-dasharray="10 5" opacity="0.6">
          <animateTransform attributeName="transform" type="rotate" from="0 25 25" to="360 25 25" dur="4s" repeatCount="indefinite" />
        </circle>
        <circle cx="25" cy="25" r="3" fill="#00ADD8" filter="url(#glow)" />
        <text x="45" y="30" class="font-mono" font-weight="700" font-size="13" fill="#f3f4f6" letter-spacing="1px">GO</text>
      </g>
    
      <g transform="translate(250, 70)">
        <rect width="230" height="50" rx="12" fill="rgba(17, 24, 39, 0.7)" stroke="rgba(59, 130, 246, 0.3)" stroke-width="1" />
        <circle cx="25" cy="25" r="8" fill="none" stroke="#3178c6" stroke-width="1.5" stroke-dasharray="10 5" opacity="0.6">
          <animateTransform attributeName="transform" type="rotate" from="0 25 25" to="360 25 25" dur="4s" repeatCount="indefinite" />
        </circle>
        <circle cx="25" cy="25" r="3" fill="#3178c6" filter="url(#glow)" />
        <text x="45" y="30" class="font-mono" font-weight="700" font-size="13" fill="#f3f4f6" letter-spacing="1px">TYPESCRIPT</text>
      </g>
    
      <g transform="translate(500, 70)">
        <rect width="230" height="50" rx="12" fill="rgba(17, 24, 39, 0.7)" stroke="rgba(59, 130, 246, 0.3)" stroke-width="1" />
        <circle cx="25" cy="25" r="8" fill="none" stroke="#ffffff" stroke-width="1.5" stroke-dasharray="10 5" opacity="0.6">
          <animateTransform attributeName="transform" type="rotate" from="0 25 25" to="360 25 25" dur="4s" repeatCount="indefinite" />
        </circle>
        <circle cx="25" cy="25" r="3" fill="#ffffff" filter="url(#glow)" />
        <text x="45" y="30" class="font-mono" font-weight="700" font-size="13" fill="#f3f4f6" letter-spacing="1px">NEXT.JS</text>
      </g>
    </g></g>
      
    <g transform="translate(60, 1250)">
      <text class="font-mono" font-size="14" fill="#f3f4f6" opacity="0.7">Discord: v_late</text>
      <text x="180" y="0" class="font-mono" font-size="14" fill="#f3f4f6" opacity="0.7">Insta: jk_nan_</text>
      <text x="480" y="0" class="font-mono" font-size="12" fill="#06b6d4" opacity="0.6">Let's build something together.</text>
    </g>
  
    </svg>
  